<svg xmlns="http://www.w3.org/2000/svg" viewBox="33.70 195.68 770.55 203.90" fill="currentColor">
  <defs>
    <style>
      html[lang^="en"] #logo-pt { display: none; }
      html:not([lang^="en"]) #logo-en { display: none; }
    </style>
  </defs>
  <g id="logo-pt">
    <path d="M198.69,312.14l12.78,4.39v-.05s0-.01,0-.01v-.04s0-.05,0-.05v-.05s0,0,0,0v-.1s0-.05,0-.05h0s0-.06,0-.06v-.05s0-.04,0-.04h0s0-.06,0-.06v-.05s0-.03,0-.03v-.02s0-.05,0-.05v-.05s0-.02,0-.02v-.03s0-.05,0-.05v-.15s0-.05,0-.05h0s0-.05,0-.05v-.05s0-.05,0-.05h0s0-.15,0-.15h0s0-.07,0-.07v-.05s0-.03,0-.03v-.02s0-.05,0-.05v-.05s0-.02,0-.02v-.03s0-.05,0-.05v-.05h0s0-.2,0-.2v-.05s0-.05,0-.05h0s0-.06,0-.06v-.09s0-.02,0-.02v-.05s0-.05,0-.05v-.1s0-.05,0-.05v-.15h0v-.15h0v-.15s0,0,0,0v-.1s0-.04,0-.04v-.07s0-.05,0-.05v-.03s0-.02,0-.02l-12.82-1.12ZM168.92,307.99l18.72,1.81-19.54-6.51c.13.54.25,1.09.36,1.64h0s0,.03,0,.03h0s0,.03,0,.03h0s0,.03,0,.03h0s0,.03,0,.03h0v.03s0,.03,0,.03v.02s0,0,0,0v.03s0,.03,0,.03v.02s0,0,0,0v.03s0,.03,0,.03v.02s0,0,0,0v.02s0,.03,0,.03v.02s0,0,0,0v.02s0,.03,0,.03h0s0,.03,0,.03v.03s0,.03,0,.03h0s0,.02,0,.02v.03s0,.03,0,.03v.03s0,.03,0,.03c.14.79.25,1.59.33,2.39ZM192.9,328.51l14.87,9.76v-.03s.02-.03.02-.03l.02-.06.02-.06h0s.02-.06.02-.06l.02-.06v-.04s.02-.02.02-.02l.04-.12v-.02s.02-.04.02-.04l.03-.11h0s.02-.07.02-.07l.02-.06v-.03s.02-.03.02-.03l.02-.06.02-.06h0s.02-.06.02-.06l.02-.06v-.04s.02-.02.02-.02l.02-.06.02-.06v-.02s.02-.04.02-.04l.02-.06v-.05s.02,0,.02,0l.02-.06.02-.06v-.03s.02-.03.02-.03l.02-.06.02-.06h0s.02-.06.02-.06l.02-.06v-.04s.02-.02.02-.02l.02-.06.02-.06v-.02s.02-.04.02-.04l.02-.06v-.05s.02,0,.02,0l.02-.06.02-.06v-.03s.02-.03.02-.03l.02-.06.02-.06h0s.02-.06.02-.06l.02-.06v-.04s.02-.02.02-.02l.02-.06.02-.06v-.02s.02-.05.02-.05l.02-.06v-.05s.02,0,.02,0l.03-.12v-.03s.02-.03.02-.03l.02-.06.02-.06h0s.02-.06.02-.06l.02-.06v-.04s.02-.02.02-.02l.02-.06.02-.06h0s.01-.06.01-.06l.02-.06v-.05s.02-.01.02-.01l.02-.06-15.96-5.91ZM168.51,318.07l14.33,5.33-13.83-9.17c-.1,1.29-.26,2.57-.5,3.84ZM183.06,342.82l14.83,16.65v-.02s.11-.15.11-.15l.06-.1.03-.05v-.02s.09-.13.09-.13l.09-.13h0s.04-.07.04-.07l.06-.09.09-.15.09-.15.05-.08.04-.07h0s.04-.07.04-.07l.04-.07h0s.09-.16.09-.16l.02-.04.04-.07.02-.04.02-.03.04-.07.03-.05h0s.04-.08.04-.08l.04-.07h0s.04-.07.04-.07l.04-.07v-.02s.1-.15.1-.15l.02-.04.04-.07.03-.04.02-.02.04-.07.03-.06h0s.04-.08.04-.08l.04-.07h0s.04-.07.04-.07l.04-.07v-.02s.04-.05.04-.05l.04-.07.02-.03.02-.04.04-.07.03-.04v-.02s.05-.07.05-.07l.03-.06h0s.04-.08.04-.08l.04-.07.04-.06.04-.07v-.02s.04-.05.04-.05l.06-.1.02-.03.04-.07.03-.05v-.02s.05-.07.05-.07l.04-.06h0s.04-.07.04-.07l.04-.07h0s.03-.07.03-.07l.04-.07-17.41-12.39ZM164.96,328.38l9.73,6.92-8.47-9.59v.02s-.02.04-.02.04l-.02.04-.02.04-.02.04-.02.04-.02.04-.02.04-.02.04-.02.04-.02.04v.02s-.02.02-.02.02l-.02.04-.02.04v.02s-.02.02-.02.02v.02s-.02.02-.02.02v.02s-.02.02-.02.02l-.02.04v.02s-.02.03-.02.03l-.02.04v.02s-.02.03-.02.03h0s-.01.04-.01.04h0s-.01.04-.01.04h0s-.01.04-.01.04h0s-.01.04-.01.04h0s-.01.04-.01.04h0s-.01.04-.01.04h0s-.02.04-.02.04h0s-.02.04-.02.04l-.02.04h0s-.02.04-.02.04h0s-.02.04-.02.04h0s-.02.04-.02.04h0s-.02.04-.02.04h0s-.02.04-.02.04h0s-.02.04-.02.04h0s-.02.04-.02.04h0s-.02.04-.02.04l-.02.04h0s-.02.04-.02.04h0s-.02.04-.02.04l-.02.04h0s-.02.04-.02.04l-.02.04h0s-.02.04-.02.04l-.02.04h0s-.02.04-.02.04h0s-.02.04-.02.04h0c-.11.22-.22.44-.33.66ZM169.87,354.12l11.78,23.67.03-.03.02-.02h0s.03-.03.03-.03l.03-.03.03-.03.03-.02h0s.03-.03.03-.03l.03-.03.03-.03.03-.03h0s.03-.03.03-.03l.03-.03.03-.03.03-.03h.01s.02-.03.02-.03l.03-.03.06-.05h.02s.01-.03.01-.03l.03-.03.03-.03.03-.03.02-.02h0s.03-.03.03-.03l.03-.03.03-.03.03-.03h0s.03-.03.03-.03l.03-.03.03-.03.03-.03h0s.09-.08.09-.08l.03-.03h.01s.02-.03.02-.03l.03-.03.03-.03.03-.03.02-.02h.01s.03-.04.03-.04l.06-.05.03-.02.07-.06.03-.03.03-.03h0s.09-.08.09-.08l.03-.03h0s.02-.03.02-.03l.03-.03.03-.03.03-.03h.01s.02-.03.02-.03l.03-.03.03-.03.06-.05.03-.03.09-.08.04-.04.07-.06h.01s.05-.06.05-.06l.07-.06h0s.13-.12.13-.12h0s.07-.07.07-.07l.05-.05.02-.02.07-.06.04-.04.03-.03.03-.03.03-.03c.58-.53,1.15-1.06,1.71-1.6l-16.22-19.69ZM154.2,361.59l5.92,28.87c2.04-.8,3.91-1.63,5.85-2.56l.03-.02.09-.05.04-.02.05-.03-12-26.2ZM137.13,364.79l-1.89,31.18c2.36-.16,4.67-.42,6.94-.76l-5.05-30.43ZM84.98,217.57l-3.58-6.9c-2.27,1.42-4.49,2.92-6.65,4.52l5.83,7.06h.01s.05-.08.05-.08l.07-.08h0s.07-.08.07-.08l.05-.06h.01s.07-.09.07-.09l.04-.05.03-.03.07-.08.03-.03.04-.04.07-.08.02-.02.05-.06.07-.08h0s.06-.07.06-.07l.06-.07h0s.07-.08.07-.08l.05-.05.02-.02.07-.08.03-.04.03-.04.07-.07.02-.02.05-.05.07-.07h0s.06-.07.06-.07l.06-.07h0s.07-.08.07-.08l.05-.06.02-.02.07-.07.04-.04.03-.03.07-.07.03-.03.04-.04.07-.07.02-.02.05-.06.07-.07h0s.07-.07.07-.07l.06-.06h.01s.07-.08.07-.08l.05-.05.02-.02.07-.07.03-.03.04-.04.07-.07.02-.02.05-.05.07-.07h0s.06-.07.06-.07l.06-.07h0s.07-.08.07-.08l.05-.05.02-.02.07-.07.04-.04.03-.03.07-.07.03-.03.04-.05.07-.07h.01s.06-.07.06-.07l.07-.07h0s.07-.07.07-.07l.06-.06h.01s.07-.08.07-.08l.04-.04.03-.03.07-.07.03-.03.04-.04.07-.07.02-.02.05-.05.07-.07h0s.07-.07.07-.07l.06-.06h0s.07-.08.07-.08l.05-.05.02-.02ZM163.48,291.59l22.67-10.34-26.75,5.47c1.53,1.55,2.89,3.19,4.09,4.87ZM116.75,395.46c-2.38-.3-4.75-.68-7.1-1.17l-.11-.02,10.28-30.83-3.07,32.02ZM36.31,273.82l23.8,7.88v.03s0,.03,0,.03v.06s0,.03,0,.03v.03c.02.38.04.77.07,1.15v.03s0,.03,0,.03h0s0,.14,0,.14v.13s.02.13.02.13v.13s.01.03.01.03v.03s0,.03,0,.03l-25.39-2.41c.39-2.53.86-5.03,1.46-7.52ZM33.71,299.87l29.71,1.78c.09.28.53.16.75.31h0s.04.11.04.11l.02.07-.35.28-29.66,4.99v-.12c-.27-2.47-.45-4.94-.52-7.43ZM40.29,332.68c-.88-2.35-1.69-4.68-2.41-7.09l31.25-6.39.15.24-28.99,13.23ZM48.5,349.42l-.06-.1,29.4-14.69-25.32,20.89c-1.41-1.99-2.75-4.02-4.02-6.1ZM64.61,369.56l24.53-21.75-19.03,26.7-.09-.07c-1.87-1.57-3.66-3.19-5.42-4.88ZM85.36,385.04l18.09-27.38-11.49,30.77-.11-.05c-2.2-1.03-4.37-2.15-6.49-3.34ZM128.63,316.48c-.02.09-.03.19-.04.29-12.57-1.91-22.39-9.51-27.45-19.77l6.73-.66-8.16-2.65c-.35-.92-.66-1.87-.93-2.82h0c-.19-.66-.35-1.32-.5-1.99h0s-.07-.34-.07-.34l11.05,1.2-11.85-7.82c-.02-.57-.02-1.15-.02-1.73v-.04s0,0,0,0v-.04s0-.04,0-.04v-.04s0-.04,0-.04h0s0-.05,0-.05h0s0-.04,0-.04v-.03s0-.01,0-.01v-.04s0-.04,0-.04v-.04s0-.03,0-.03h0s0-.06,0-.06h0s0-.04,0-.04v-.02s0-.03,0-.03v-.03s0-.01,0-.01v-.04s0,0,0,0v-.04s0-.02,0-.02v-.02s0-.04,0-.04h0s0-.05,0-.05v-.04s0-.04,0-.04v-.04s0,0,0,0v-.02s0-.02,0-.02h0s0-.02,0-.02v-.02s0-.02,0-.02h0v-.05s0,0,0,0h0s0-.02,0-.02v-.02s0,0,0,0h0s0-.03,0-.03v-.06s0,0,0,0v-.04s0,0,0,0v-.17s0,0,0,0l.03-.52,14.83,5.6-13.13-14.81c.06-.2.12-.39.18-.58h0s0-.02,0-.02v-.02s.01-.01.01-.01h0s0-.03,0-.03v-.02s0,0,0,0v-.02s.01-.02.01-.02h0s0-.02,0-.02v-.02s.01-.02.01-.02h0s0-.02,0-.02v-.02s.01-.02.01-.02h0s0-.03,0-.03v-.02s0,0,0,0h0s0-.03,0-.03v-.02s0,0,0,0v-.02s.01-.02.01-.02h0s0-.02,0-.02v-.02s.01-.02.01-.02h0s0-.02,0-.02v-.02s.01-.01.01-.01h0s0-.03,0-.03v-.02s0,0,0,0v-.02s.01-.02.01-.02h0s0-.02,0-.02v-.02s.01-.02.01-.02h0s0-.02,0-.02v-.02s.01-.02.01-.02h0s0-.02,0-.02v-.02s0,0,0,0h0s0-.03,0-.03v-.02s.01-.02.01-.02v-.02s.01-.01.01-.01h0s0-.03,0-.03v-.02s0,0,0,0v-.02s.01-.02.01-.02h0s0-.02,0-.02v-.02s.01-.02.01-.02h0s0-.02,0-.02v-.02s.01-.02.01-.02h0s0-.03,0-.03v-.02s0,0,0,0h0s0-.03,0-.03v-.02s0,0,0,0v-.02s.01-.02.01-.02h0s0-.02,0-.02v-.02s.01-.02.01-.02h0s.01-.05.01-.05h0s.02-.06.02-.06h0s.01-.05.01-.05h0s.02-.06.02-.06h0s.01-.04.01-.04h0s.02-.06.02-.06h0s16.9,12.01,16.9,12.01l-11.27-22.51c.22-.29.43-.57.66-.85l16.26,19.68-5.92-28.81h0s.06-.04.06-.04l.06-.04h.02s12.18,26.8,12.18,26.8l1.8-29.94.25-.11,4.68,29.71,9.39-28.15h.04s-2.83,29.55-2.83,29.55l16.45-24.9-10.43,27.94,22.33-19.79-17.32,24.3,26.68-13.33-21.37,17.64c-.59-.57-1.21-1.12-1.85-1.66-3.77-3.23-8.79-5.75-14.04-7.1-11.64-2.99-25.06,2.6-27.75,15.28-2.18,10.31,4.55,20.64,13.73,24.09ZM61.41,263.4l-19.09-7.15c.55-1.22,1.1-2.4,1.66-3.53.55-1.12,1.14-2.25,1.77-3.4l16.3,10.72c-.28,1.21-.42,2.03-.61,3.19l-.02.11v.06ZM68.93,239.94l-.03.07v.02s-.03.04-.03.04l-.03.07-.02.04v.03s-.05.07-.05.07l-.03.05h0s-.01.04-.01.04c-.3.62-.59,1.25-.88,1.88l-12.15-8.7c1.64-2.06,3.36-4.05,5.14-5.96l9.14,10.27-.02.03-.02.03v.03s-.02,0-.02,0l-.02.03-.03.06h0s-.02.04-.02.04h0s-.01.03-.01.03l-.02.03-.02.03-.02.03-.02.03h0s-.02.03-.02.03l-.02.03-.02.03-.02.03v.02s-.02.02-.02.02l-.02.03-.02.03-.02.03-.02.03h0s-.01.03-.01.03l-.02.03-.02.03-.02.03v.02s-.02.01-.02.01l-.02.03-.02.03-.02.03-.02.03h0s-.01.03-.01.03l-.02.03-.02.03-.02.03v.03s-.02,0-.02,0l-.02.03-.02.03-.02.03-.02.03h0s0,.03,0,.03l-.02.03-.02.03-.02.03-.02.03h0s-.02.03-.02.03l-.02.03-.02.03-.02.03v.02s-.02.02-.02.02l-.02.03-.02.03-.02.03-.02.03h0s-.01.03-.01.03l-.02.03-.02.03-.02.03v.02s-.02.01-.02.01l-.02.03-.02.03-.02.03-.02.03h0s-.01.03-.01.03l-.02.03ZM99.86,206.12l-1.83-3.82c2.14-.84,4.32-1.61,6.52-2.31l1.48,2.85c-1.28.61-2.54,1.25-3.78,1.93l-.06.03-.05.03h-.02s-.06.04-.06.04l-.09.05h0s-.09.05-.09.05l-.07.04h-.02s-.03.03-.03.03l-.3.17-.03.02-.03.02-.03.02-.03.02-.03.02-.03.02-.03.02-.03.02-.03.02-.05.03h-.01s-.03.02-.03.02l-.03.02-.03.02-.03.02-.03.02h0s-.03.02-.03.02l-.03.02-.03.02-.03.02-.03.02h-.02s0,.02,0,.02l-.03.02-.03.02-.03.02-.03.02-.03.02h-.01s-.02.02-.02.02l-.03.02-.03.02-.03.02-.03.02-.03.02h0s-.03.02-.03.02l-.03.02-.03.02-.03.02-.03.02-.06.03-.03.02-.03.02-.03.02-.03.02h0s-.06.03-.06.03l-.03.02-.03.02-.03.02h-.02s0,.02,0,.02l-.06.03-.03.02ZM188.76,295.42l-24.44-1.54c.98,1.68,1.81,3.42,2.48,5.21l21.96-3.67Z"/>
  <path d="M132.97,396.1l.1,3.45c4.18.11,8.43-.05,12.82-.68l-.57-4.18c-3.96.74-8.08,1.22-12.34,1.41M157.86,391.32l1.67,5.02c4.06-.97,8.13-2.23,12.2-3.98l-2.74-6.01c-3.52,1.91-7.23,3.57-11.13,4.96ZM196.75,361.18l8.78,9.2c3.03-2.87,5.93-6,8.58-9.54l-11.76-9.13c-1.66,3.27-3.52,6.44-5.6,9.47ZM207.09,340.4l14.87,9c2.19-3.56,4.17-7.33,5.82-11.44l-17.99-7.56c-.7,3.38-1.6,6.73-2.7,10ZM209.89,297.66l26.24.84c.11-4.18-.05-8.43-.68-12.82l-27.64,3.85c.83,2.67,1.52,5.38,2.07,8.13ZM168.27,303.98l-8.05-.95h0s8.37,2.56,8.37,2.56c-.09-.54-.2-1.07-.32-1.61ZM169.02,314.08l-11.12-4.47h0s10.89,6.7,10.89,6.7c.1-.74.18-1.48.23-2.23ZM166.51,324.99l-12.56-9.62h0s11.34,12.35,11.34,12.35c.44-.9.85-1.81,1.22-2.73ZM160.49,335.1l-11.84-15.2h0s9.51,17.77,9.51,17.77c.82-.82,1.6-1.68,2.34-2.56ZM150.99,343.33l-8.63-20.42h0s5.22,22.31,5.22,22.31c1.19-.58,2.33-1.21,3.42-1.89ZM138.87,348.38l-3.37-24.2h0l-.81,25.04c1.43-.23,2.82-.51,4.17-.85ZM125.29,349.86l3.26-26.22h0s-7.86,25.97-7.86,25.97c1.57.14,3.1.22,4.61.25ZM111.17,347.93l10.79-26.61h0s-15.59,25.1-15.59,25.1c1.57.57,3.17,1.08,4.8,1.51ZM97.38,342.29l18.83-24.92h0s-23.51,22.04-23.51,22.04c1.52,1.03,3.08,1.99,4.68,2.88ZM84.71,333.09l26.97-21.01h0s-31.28,16.74-31.28,16.74c1.38,1.49,2.81,2.91,4.3,4.28ZM73.75,320.54l33.59-14.2c-.07-.07-.13-.14-.2-.21l-37.04,8.66c1.13,1.97,2.35,3.89,3.65,5.75ZM65.24,304.78l36.87-5.13c-.19-.31-.38-.61-.56-.93l-38.81-1.25c.7,2.47,1.54,4.91,2.5,7.3ZM60.47,286.07l38.32,4.8c-.19-.66-.35-1.32-.5-1.99l-38.23-11.42c-.06,2.86.09,5.74.41,8.61ZM61.08,265.44l36.31,14.76c.01-.93.06-1.88.14-2.82l-34.53-21.35c-.8,3.06-1.44,6.2-1.92,9.41ZM67.08,244.02l32.28,24.33c.36-1.14.76-2.25,1.2-3.32l-28.71-30.57c-1.78,3.04-3.37,6.23-4.78,9.55ZM79.41,223.63l25.74,33.12c.82-1.13,1.69-2.21,2.61-3.23l-20.3-38.3c-2.87,2.58-5.56,5.39-8.05,8.4ZM98.3,207.06l16.92,40.04c1.32-.89,2.7-1.7,4.12-2.44l-10.07-43.26c-3.81,1.59-7.48,3.48-10.97,5.66ZM135.08,195.69c-.95.03-1.9.08-2.84.14-3.33.27-6.6.75-9.81,1.44l6.09,43.77c1.68-.47,3.4-.86,5.14-1.18l1.42-44.18ZM159.69,198.67c-1.47-.39-2.95-.76-4.44-1.09-.48-.11-.96-.2-1.44-.3-1.6-.31-3.23-.57-4.9-.77l-5.27,42.45c1.69-.01,3.4.05,5.1.18.21.02.41.04.61.05l12.11-40.02c-.59-.18-1.18-.35-1.78-.51ZM185.94,209.69c-3.65-2.17-7.46-4.12-11.42-5.84l-15.03,37.05c2.03.51,4.01,1.11,5.94,1.81l20.5-33.01ZM206.88,226.11c-2.98-3.04-6.17-5.9-9.53-8.57l-22.34,29.57c1.95,1.11,3.82,2.31,5.63,3.61l26.24-24.61ZM222.93,247.36c-2.11-3.72-4.46-7.3-7.02-10.73l-27.03,21.06c1.69,1.69,3.3,3.46,4.83,5.32l29.23-15.65ZM232.26,269.47c-.91-3.17-1.98-6.28-3.19-9.33l-.12-.29-28.88,12.21c1.32,2.21,2.53,4.48,3.63,6.82l29.23-6.83c-.21-.86-.42-1.72-.66-2.58ZM233.64,320.25c.12-.53.24-1.05.36-1.58.16-.75.3-1.49.44-2.23.24-1.34.45-2.71.62-4.1l-23.67-2.95c.17,3.08.16,6.17-.02,9.26l21.03,6.25c.45-1.52.87-3.07,1.24-4.64ZM195,379.39l-6.42-8.07c-2.5,2.64-5.2,5.11-8.07,7.41l3.74,7.67c3.78-2.05,7.38-4.34,10.76-7Z"/>
  <path d="M335.69,297.79c0,1.62.17,3.15.5,4.58.33,1.43.83,2.77,1.49,4.02.66,1.25,1.45,2.35,2.36,3.32.92.97,1.96,1.79,3.13,2.48,1.17.69,2.43,1.2,3.76,1.55,1.33.34,2.76.52,4.27.52s2.97-.17,4.32-.52c1.35-.34,2.61-.86,3.78-1.55,1.17-.69,2.21-1.51,3.12-2.47.91-.96,1.69-2.06,2.34-3.29.65-1.24,1.14-2.57,1.46-4.01.33-1.43.49-2.98.49-4.62,0-3.23-.65-6.08-1.95-8.56-.65-1.23-1.43-2.33-2.34-3.28-.91-.95-1.95-1.77-3.12-2.45-1.17-.68-2.43-1.19-3.78-1.52-1.35-.34-2.79-.51-4.32-.51s-2.94.17-4.27.51c-1.34.34-2.59.85-3.76,1.52-1.17.68-2.22,1.49-3.13,2.45-.92.96-1.7,2.05-2.36,3.29-.66,1.23-1.15,2.57-1.48,3.99-.33,1.43-.5,2.95-.5,4.57M351.2,324.24c-2.57,0-5.01-.28-7.32-.84-2.31-.56-4.47-1.39-6.49-2.5-2.02-1.11-3.83-2.45-5.41-4.01-1.58-1.56-2.94-3.34-4.08-5.35-2.27-4-3.4-8.59-3.4-13.76s1.14-9.69,3.4-13.69c1.14-2,2.49-3.78,4.08-5.34,1.58-1.55,3.38-2.88,5.41-3.99,2.02-1.1,4.19-1.93,6.49-2.48,2.31-.55,4.75-.83,7.32-.83,5.16,0,9.77,1.1,13.81,3.31,2.03,1.1,3.83,2.43,5.41,3.99,1.58,1.55,2.94,3.33,4.08,5.34,2.27,4,3.4,8.57,3.4,13.69s-1.14,9.75-3.4,13.76c-1.13,2-2.49,3.79-4.08,5.35-1.58,1.56-3.39,2.9-5.41,4.01-2.02,1.11-4.19,1.95-6.49,2.5-2.31.56-4.75.83-7.32.83ZM382.65,272.15h13.86l17.06,35.33v-35.33h10.88v51.39h-14.39l-17.07-35.33v35.33h-10.88v-51.39h.53ZM455.56,324.24c-2.49,0-4.86-.28-7.09-.83-2.24-.56-4.34-1.39-6.31-2.51-3.95-2.23-7.04-5.35-9.29-9.36-1.12-2-1.97-4.15-2.53-6.45-.56-2.29-.84-4.73-.84-7.3,0-5.12,1.11-9.68,3.34-13.69,1.11-2,2.44-3.78,3.99-5.34,1.54-1.56,3.3-2.89,5.28-3.99,3.94-2.21,8.39-3.31,13.35-3.31,2.17,0,4.26.22,6.26.67,2,.44,3.9,1.11,5.71,2,1.81.89,3.47,1.96,4.97,3.21,1.5,1.25,2.85,2.68,4.03,4.28,1.19,1.6,2.18,3.32,2.98,5.15.8,1.83,1.4,3.77,1.81,5.82l.13.63h-11.37l-.11-.39c-.49-1.71-1.18-3.26-2.07-4.63-.89-1.37-1.99-2.58-3.28-3.63-2.59-2.08-5.58-3.12-8.98-3.12-1.4,0-2.73.17-3.99.51-1.25.34-2.45.86-3.57,1.55-1.12.69-2.13,1.51-3.01,2.46-.88.95-1.65,2.05-2.3,3.28-.65,1.23-1.14,2.55-1.46,3.97-.33,1.42-.49,2.94-.49,4.56s.16,3.14.49,4.57c.33,1.42.81,2.76,1.46,3.99.65,1.24,1.42,2.34,2.31,3.3.89.96,1.9,1.79,3.03,2.47,1.13.68,2.33,1.2,3.61,1.54,1.27.34,2.62.52,4.05.52,1.81,0,3.49-.26,5.03-.77,1.54-.51,2.95-1.27,4.23-2.29,1.28-1.02,2.35-2.22,3.2-3.61.86-1.4,1.5-2.98,1.93-4.75l.1-.41h11.29l-.1.62c-.34,2.12-.9,4.11-1.66,5.97-.77,1.86-1.74,3.6-2.93,5.21-1.19,1.61-2.54,3.03-4.04,4.28-1.5,1.24-3.17,2.3-4.99,3.18-1.82.88-3.74,1.54-5.76,1.98-2.02.44-4.14.66-6.36.66ZM486.29,272.15h36.08v9.81h-25.73v10.07h21.96v9.81h-21.96v11.9h25.73v9.81h-36.61v-51.39h.53ZM551.6,293.98c1.78,0,3.22-.56,4.31-1.66.55-.55.96-1.19,1.23-1.91.27-.72.41-1.54.41-2.44s-.14-1.71-.41-2.43c-.27-.71-.68-1.34-1.22-1.88-.54-.54-1.17-.95-1.88-1.22-.72-.27-1.53-.41-2.43-.41h-11.92v11.96h11.92ZM529.33,272.15h22.46c1.63,0,3.17.17,4.63.5,1.46.34,2.83.84,4.11,1.51,1.28.67,2.42,1.48,3.42,2.41,1,.94,1.86,2.01,2.58,3.2.72,1.2,1.26,2.48,1.61,3.85.36,1.37.54,2.82.54,4.35,0,3.52-1.07,6.65-3.19,9.41-1.06,1.38-2.29,2.54-3.69,3.49-1.21.82-2.55,1.48-4.01,1.98l13.88,20.69h-12.48l-13.09-19.69h-6.42v19.69h-10.88v-51.39h.53ZM585.11,281.84h-14.53v-9.68h39.69v9.68h-14.28v41.71h-10.88v-41.71ZM634.37,301.53l-5.9-15.41-5.95,15.41h11.85ZM623.51,272.15h10.17c6.79,17.14,13.61,34.27,20.43,51.39h-11.28l-4.72-12.33h-19.27l-4.72,12.33h-11.28c6.76-17.13,13.52-34.27,20.3-51.39h.36ZM673.44,323.91c-1.47-.22-2.88-.55-4.25-.99-1.61-.52-3.16-1.2-4.62-2.03-3.95-2.23-7.04-5.35-9.29-9.36-1.12-2-1.97-4.15-2.53-6.45-.56-2.29-.84-4.73-.84-7.3,0-5.12,1.11-9.68,3.34-13.69,1.11-2,2.44-3.78,3.99-5.34,1.54-1.56,3.3-2.89,5.28-3.99,3.94-2.21,8.39-3.31,13.35-3.31,2.17,0,4.26.22,6.26.67,2,.44,3.9,1.11,5.71,2,1.81.89,3.47,1.96,4.97,3.21,1.5,1.25,2.85,2.68,4.03,4.28,1.19,1.6,2.18,3.32,2.98,5.15.8,1.83,1.4,3.77,1.81,5.82l.13.63h-11.37l-.11-.39c-.49-1.71-1.18-3.26-2.07-4.63-.89-1.37-1.99-2.58-3.28-3.63-2.59-2.08-5.58-3.12-8.98-3.12-1.4,0-2.73.17-3.99.51-1.25.34-2.45.86-3.57,1.55-1.12.69-2.13,1.51-3.01,2.46-.88.95-1.65,2.05-2.3,3.28-.65,1.23-1.14,2.55-1.46,3.97-.33,1.42-.49,2.94-.49,4.56s.16,3.14.49,4.57c.33,1.42.81,2.76,1.46,3.99.65,1.24,1.42,2.34,2.31,3.3.89.96,1.9,1.79,3.03,2.47,1.13.68,2.33,1.2,3.61,1.54,1.27.34,2.62.52,4.05.52,1.81,0,3.49-.26,5.03-.77,1.54-.51,2.95-1.27,4.23-2.29,1.28-1.02,2.35-2.22,3.2-3.61.86-1.4,1.5-2.98,1.93-4.75l.1-.41h11.29l-.1.62c-.34,2.12-.9,4.11-1.66,5.97-.77,1.86-1.75,3.6-2.93,5.21-1.19,1.61-2.54,3.03-4.04,4.28-1.5,1.24-3.17,2.3-4.99,3.18-1.7.82-3.5,1.45-5.38,1.89-1.78.42-3.65.66-5.6.72l-.52.86.8-.13c.62-.09,1.16-.13,1.64-.13,1.9,0,3.5.55,4.77,1.64.65.56,1.14,1.22,1.47,2,.32.76.48,1.62.48,2.58,0,1.15-.28,2.2-.83,3.15-.55.93-1.36,1.76-2.43,2.48-1.05.7-2.18,1.23-3.38,1.58-1.2.35-2.48.53-3.82.53-1.56,0-2.98-.09-4.25-.28-1.28-.18-2.42-.47-3.42-.84l-.35-.13v-5.96l.79.45c.67.38,1.44.67,2.3.86.87.19,1.84.29,2.91.29,1.36,0,2.35-.17,3-.5.53-.27.79-.67.79-1.2,0-.94-.85-1.41-2.56-1.41-.46,0-.91.05-1.35.16-.44.11-.87.28-1.28.49l-.25.13-3.34-1.76,3.14-5.17ZM722.15,272.15h10.17c6.79,17.14,13.61,34.27,20.43,51.39h-11.28l-4.72-12.33h-19.27l-4.72,12.33h-11.28c6.76-17.13,13.52-34.27,20.3-51.39h.36ZM733.01,301.53l-5.9-15.41-5.95,15.41h11.85ZM734.3,269.07c-1.01.46-2.12.69-3.35.69-.55,0-1.07-.04-1.55-.13-.49-.09-.94-.22-1.35-.39-.39-.16-.79-.36-1.19-.59-.38-.22-.76-.46-1.14-.74-.18-.09-.49-.26-.9-.5-.19-.11-.37-.19-.52-.24-.14-.04-.27-.07-.38-.07-.14,0-.27.03-.38.09-.12.06-.22.16-.32.29-.11.15-.19.32-.25.52-.06.21-.09.45-.09.71v.53h-7.8v-.53c0-1.41.19-2.7.56-3.87.38-1.17.95-2.21,1.7-3.11.77-.91,1.65-1.6,2.66-2.05,1-.46,2.12-.68,3.35-.68.53,0,1.03.04,1.5.12.47.08.91.2,1.31.36.39.16.78.34,1.18.56.4.22.81.47,1.22.75l.53.34.52.29c.15.08.29.14.41.17.11.03.22.05.32.05.17,0,.32-.03.44-.09.12-.06.23-.16.33-.29.22-.3.34-.71.34-1.23v-.53h7.8v.53c0,1.41-.19,2.7-.56,3.87-.38,1.17-.95,2.21-1.7,3.11-.77.91-1.65,1.6-2.66,2.05ZM762.04,297.79c0,1.62.17,3.15.5,4.58.33,1.43.83,2.77,1.49,4.02.66,1.25,1.45,2.35,2.36,3.32.92.97,1.96,1.79,3.13,2.48,1.17.69,2.43,1.2,3.76,1.55,1.33.34,2.76.52,4.27.52s2.97-.17,4.32-.52c1.35-.34,2.61-.86,3.78-1.55,1.17-.69,2.21-1.51,3.12-2.47.91-.96,1.69-2.06,2.34-3.29.65-1.24,1.14-2.57,1.46-4.01.33-1.43.49-2.98.49-4.62,0-3.23-.65-6.08-1.95-8.56-.65-1.23-1.43-2.33-2.34-3.28-.91-.95-1.95-1.77-3.12-2.45-1.17-.68-2.43-1.19-3.78-1.52-1.35-.34-2.79-.51-4.32-.51s-2.94.17-4.27.51c-1.34.34-2.59.85-3.76,1.52-1.17.68-2.22,1.49-3.13,2.45-.92.96-1.7,2.05-2.36,3.29-.66,1.23-1.15,2.57-1.48,3.99-.33,1.43-.5,2.95-.5,4.57ZM777.55,324.24c-2.57,0-5.01-.28-7.32-.84-2.31-.56-4.47-1.39-6.49-2.5-2.02-1.11-3.83-2.45-5.41-4.01-1.58-1.56-2.94-3.34-4.08-5.35-2.27-4-3.4-8.59-3.4-13.76s1.14-9.69,3.4-13.69c1.14-2,2.49-3.78,4.08-5.34,1.58-1.55,3.38-2.88,5.41-3.99,2.02-1.1,4.19-1.93,6.49-2.48,2.31-.55,4.75-.83,7.32-.83,5.16,0,9.77,1.1,13.81,3.31,2.03,1.1,3.83,2.43,5.41,3.99,1.58,1.55,2.94,3.33,4.08,5.34,2.27,4,3.4,8.57,3.4,13.69s-1.14,9.75-3.4,13.76c-1.13,2-2.49,3.79-4.08,5.35-1.58,1.56-3.39,2.9-5.41,4.01-2.02,1.11-4.19,1.95-6.49,2.5-2.31.56-4.75.83-7.32.83ZM296.4,324.24c-2.49,0-4.86-.28-7.09-.83-2.24-.56-4.34-1.39-6.31-2.51-3.95-2.23-7.04-5.35-9.29-9.36-1.12-2-1.97-4.15-2.53-6.45-.56-2.29-.84-4.73-.84-7.3,0-5.12,1.11-9.68,3.34-13.69,1.11-2,2.44-3.78,3.99-5.34,1.54-1.56,3.3-2.89,5.28-3.99,3.94-2.21,8.39-3.31,13.35-3.31,2.17,0,4.26.22,6.26.67,2,.44,3.9,1.11,5.71,2,1.81.89,3.47,1.96,4.97,3.21,1.5,1.25,2.85,2.68,4.03,4.28,1.19,1.6,2.18,3.32,2.98,5.15.8,1.83,1.4,3.77,1.81,5.82l.13.63h-11.37l-.11-.39c-.49-1.71-1.18-3.26-2.07-4.63-.89-1.37-1.99-2.58-3.28-3.63-2.59-2.08-5.58-3.12-8.98-3.12-1.4,0-2.73.17-3.99.51-1.25.34-2.45.86-3.57,1.55-1.12.69-2.13,1.51-3.01,2.46-.88.95-1.65,2.05-2.3,3.28-.65,1.23-1.14,2.55-1.46,3.97-.33,1.42-.49,2.94-.49,4.56s.16,3.14.49,4.57c.33,1.42.81,2.76,1.46,3.99.65,1.24,1.42,2.34,2.31,3.3.89.96,1.9,1.79,3.03,2.47,1.13.68,2.33,1.2,3.61,1.54,1.27.34,2.62.52,4.05.52,1.81,0,3.49-.26,5.03-.77,1.54-.51,2.95-1.27,4.23-2.29,1.28-1.02,2.35-2.22,3.2-3.61.86-1.4,1.5-2.98,1.93-4.75l.1-.41h11.29l-.1.62c-.34,2.12-.9,4.11-1.66,5.97-.77,1.86-1.74,3.6-2.93,5.21-1.19,1.61-2.54,3.03-4.04,4.28-1.5,1.24-3.17,2.3-4.99,3.18-1.82.88-3.74,1.54-5.76,1.98-2.02.44-4.14.66-6.36.66Z"/>
  <path d="M286.79,254.88c-1.81,0-3.46-.4-4.9-1.21s-2.56-1.93-3.34-3.37c-.81-1.44-1.21-3.08-1.21-4.9v-13.89h4.49v14.35c0,1.47.46,2.65,1.38,3.57s2.1,1.38,3.57,1.38,2.65-.46,3.57-1.38,1.38-2.1,1.38-3.57v-14.35h4.49v13.89c0,1.81-.4,3.46-1.18,4.9-.81,1.44-1.93,2.56-3.37,3.37s-3.08,1.21-4.9,1.21ZM300.56,235.84h4.44v2.33c.35-.78.95-1.44,1.84-1.93.86-.49,1.81-.72,2.88-.72,1.12,0,2.13.23,3.02.72s1.64,1.21,2.19,2.1c.6-.89,1.38-1.61,2.33-2.1s2.05-.72,3.23-.72c1.3,0,2.45.29,3.46.89s1.79,1.41,2.36,2.48c.55,1.07.84,2.3.84,3.66v12.01h-4.49v-11.84c0-.95-.29-1.7-.86-2.3-.6-.58-1.35-.86-2.3-.86-1.01,0-1.81.29-2.42.86-.63.6-.95,1.35-.95,2.3v11.84h-4.49v-11.84c0-.95-.29-1.7-.89-2.3-.6-.58-1.35-.86-2.3-.86s-1.79.29-2.42.86c-.63.6-.95,1.35-.95,2.3v11.84h-4.49v-18.73ZM338.98,254.88c-1.7,0-3.2-.4-4.55-1.24-1.35-.81-2.45-1.96-3.23-3.43-.78-1.47-1.18-3.14-1.18-5.04s.4-3.57,1.18-5.04c.78-1.47,1.87-2.59,3.23-3.4s2.85-1.21,4.55-1.21c1.24,0,2.36.23,3.4.69,1.01.46,1.87,1.12,2.59,1.96v-2.33h4.44v18.73h-4.44v-2.36c-.72.86-1.58,1.53-2.59,1.99s-2.16.69-3.4.69ZM334.61,245.17c0,1.12.23,2.1.66,2.94s1.07,1.5,1.84,1.96c.78.49,1.7.72,2.71.72s1.93-.23,2.71-.72c.78-.46,1.41-1.12,1.84-1.96s.66-1.81.66-2.94-.23-2.07-.66-2.91c-.43-.84-1.07-1.5-1.84-1.96s-1.7-.69-2.71-.69-1.93.23-2.71.69-1.41,1.12-1.84,1.96c-.43.84-.66,1.81-.66,2.91Z"/>
  <path d="M278.4,350.3h4.41v2.33c.72-.84,1.58-1.5,2.62-1.96,1.01-.46,2.13-.69,3.37-.69,1.7,0,3.23.4,4.58,1.21,1.35.84,2.42,1.96,3.2,3.43s1.18,3.17,1.18,5.04-.37,3.57-1.15,5.04-1.87,2.59-3.23,3.4c-1.35.84-2.88,1.24-4.58,1.24-1.24,0-2.33-.23-3.34-.69-1.01-.43-1.87-1.07-2.59-1.9v8.04h-4.47v-24.49ZM282.75,359.67c0,1.12.23,2.1.66,2.94s1.07,1.5,1.84,1.96,1.7.69,2.71.69,1.93-.23,2.71-.69,1.41-1.12,1.84-1.96.66-1.81.66-2.94-.23-2.07-.66-2.91-1.07-1.5-1.84-1.99c-.78-.46-1.7-.69-2.71-.69s-1.93.23-2.71.69c-.78.49-1.41,1.15-1.84,1.99s-.66,1.81-.66,2.91ZM309.71,369.34c-1.87,0-3.54-.4-5.01-1.21s-2.59-1.93-3.4-3.4c-.84-1.47-1.24-3.14-1.24-5.01s.43-3.6,1.27-5.07,1.99-2.62,3.46-3.46c1.47-.81,3.17-1.21,5.04-1.21s3.63.43,5.13,1.3,2.65,2.05,3.49,3.51c.81,1.5,1.21,3.17,1.21,4.98,0,.43-.03.89-.09,1.35h-14.84c.14,1.27.72,2.28,1.7,3.05.95.78,2.07,1.18,3.34,1.18,1.01,0,1.96-.26,2.85-.78.86-.49,1.5-1.18,1.9-2.07h4.72c-.66,2.1-1.81,3.77-3.49,4.98-1.67,1.24-3.69,1.84-6.05,1.84ZM314.78,357.65c-.37-1.12-.98-2.05-1.84-2.71-.89-.66-1.9-.98-3.05-.98s-2.22.32-3.11.98-1.5,1.58-1.84,2.74l9.85-.03ZM323.11,345.98h4.49v23.05h-4.49v-23.05ZM340.02,369.34c-1.7,0-3.2-.4-4.55-1.24-1.35-.81-2.45-1.96-3.23-3.43s-1.18-3.14-1.18-5.04.4-3.57,1.18-5.04,1.87-2.59,3.23-3.4,2.85-1.21,4.55-1.21c1.24,0,2.36.23,3.4.69,1.01.46,1.87,1.12,2.59,1.96v-2.33h4.44v18.73h-4.44v-2.36c-.72.86-1.58,1.53-2.59,1.99s-2.16.69-3.4.69ZM335.64,359.64c0,1.12.23,2.1.66,2.94s1.07,1.5,1.84,1.96c.78.49,1.7.72,2.71.72s1.93-.23,2.71-.72c.78-.46,1.41-1.12,1.84-1.96s.66-1.81.66-2.94-.23-2.07-.66-2.91-1.07-1.5-1.84-1.96-1.7-.69-2.71-.69-1.93.23-2.71.69-1.41,1.12-1.84,1.96-.66,1.81-.66,2.91ZM371.07,345.98h4.49l9.16,23.05h-4.64l-2.16-5.65h-9.16l-2.16,5.65h-4.64l9.1-23.05ZM376.4,359.43l-3.05-7.98-3.08,7.98h6.14ZM387.32,350.3h4.44v2.33c.35-.78.95-1.44,1.84-1.93.86-.49,1.81-.72,2.88-.72,1.12,0,2.13.23,3.02.72s1.64,1.21,2.19,2.1c.6-.89,1.38-1.61,2.33-2.1s2.05-.72,3.23-.72c1.3,0,2.45.29,3.46.89s1.79,1.41,2.36,2.48c.55,1.07.84,2.3.84,3.66v12.01h-4.49v-11.84c0-.95-.29-1.7-.86-2.3-.6-.58-1.35-.86-2.3-.86-1.01,0-1.81.29-2.42.86-.63.6-.95,1.35-.95,2.3v11.84h-4.49v-11.84c0-.95-.29-1.7-.89-2.3-.6-.58-1.35-.86-2.3-.86s-1.79.29-2.42.86c-.63.6-.95,1.35-.95,2.3v11.84h-4.49v-18.73ZM425.75,369.34c-1.7,0-3.2-.4-4.55-1.24-1.35-.81-2.45-1.96-3.23-3.43s-1.18-3.14-1.18-5.04.4-3.57,1.18-5.04,1.87-2.59,3.23-3.4,2.85-1.21,4.55-1.21c1.24,0,2.36.23,3.4.69,1.01.46,1.87,1.12,2.59,1.96v-2.33h4.44v18.73h-4.44v-2.36c-.72.86-1.58,1.53-2.59,1.99s-2.16.69-3.4.69ZM421.37,359.64c0,1.12.23,2.1.66,2.94s1.07,1.5,1.84,1.96c.78.49,1.7.72,2.71.72s1.93-.23,2.71-.72c.78-.46,1.41-1.12,1.84-1.96s.66-1.81.66-2.94-.23-2.07-.66-2.91-1.07-1.5-1.84-1.96-1.7-.69-2.71-.69-1.93.23-2.71.69-1.41,1.12-1.84,1.96-.66,1.81-.66,2.91ZM440.18,364.99l10.03-10.66h-9.45v-4.03h15.27v4.03l-10.08,10.66h10.37v4.03h-16.13v-4.03ZM468.99,369.34c-1.93,0-3.63-.4-5.1-1.21-1.5-.81-2.65-1.96-3.49-3.43-.84-1.47-1.24-3.14-1.24-5.04s.4-3.57,1.24-5.04c.84-1.47,1.99-2.59,3.49-3.43,1.47-.81,3.17-1.21,5.1-1.21s3.63.4,5.13,1.21c1.47.84,2.62,1.96,3.46,3.43.84,1.47,1.24,3.14,1.24,5.04s-.4,3.57-1.24,5.04c-.84,1.47-1.99,2.62-3.46,3.43-1.5.81-3.2,1.21-5.13,1.21ZM467.43,344.19h3.11l3.83,4.29h-3.98l-1.41-1.73-1.41,1.73h-3.98l3.83-4.29ZM463.77,359.67c0,1.12.23,2.1.66,2.94.43.84,1.07,1.5,1.84,1.96.78.49,1.7.72,2.71.72s1.93-.23,2.74-.72c.78-.46,1.41-1.12,1.84-1.96s.66-1.81.66-2.94-.23-2.07-.66-2.94c-.43-.84-1.07-1.5-1.84-1.99-.81-.46-1.73-.69-2.74-.69s-1.93.23-2.71.69c-.78.49-1.41,1.15-1.84,1.99-.43.86-.66,1.84-.66,2.94ZM482.27,350.3h4.47v2.39c.26-.66.86-1.3,1.79-1.87.89-.55,2.02-.84,3.37-.84s2.71.35,3.86,1.01c1.12.69,2.05,1.64,2.71,2.88s.98,2.68.98,4.26v10.89h-4.49v-10.8c0-1.27-.37-2.3-1.12-3.08-.75-.78-1.73-1.15-2.97-1.15s-2.22.37-2.97,1.15c-.75.78-1.12,1.81-1.12,3.08v10.8h-4.49v-18.73ZM503.47,345.98h4.49v4.03h-4.49v-4.03ZM503.47,352.78h4.49v16.25h-4.49v-16.25ZM520.38,369.34c-1.7,0-3.2-.4-4.55-1.24-1.35-.81-2.45-1.96-3.23-3.43-.78-1.47-1.18-3.14-1.18-5.04s.4-3.57,1.18-5.04c.78-1.47,1.87-2.59,3.23-3.4,1.35-.81,2.85-1.21,4.55-1.21,1.24,0,2.36.23,3.4.69,1.01.46,1.87,1.12,2.59,1.96v-2.33h4.44v18.73h-4.44v-2.36c-.72.86-1.58,1.53-2.59,1.99-1.01.46-2.16.69-3.4.69ZM516,359.64c0,1.12.23,2.1.66,2.94s1.07,1.5,1.84,1.96c.78.49,1.7.72,2.71.72s1.93-.23,2.71-.72c.78-.46,1.41-1.12,1.84-1.96s.66-1.81.66-2.94-.23-2.07-.66-2.91-1.07-1.5-1.84-1.96-1.7-.69-2.71-.69-1.93.23-2.71.69-1.41,1.12-1.84,1.96-.66,1.81-.66,2.91Z"/>
  </g>
  <g id="logo-en">
    <path d="M287.14,243.16h4.31l8.78,22.1h-4.45l-2.07-5.41h-8.78l-2.07,5.41h-4.45l8.73-22.1ZM292.25,256.06l-2.93-7.65-2.96,7.65h5.88ZM302.71,247.3h4.25v2.24c.33-.75.91-1.38,1.77-1.85.83-.47,1.74-.69,2.76-.69,1.08,0,2.04.22,2.9.69s1.57,1.16,2.1,2.02c.58-.86,1.33-1.55,2.24-2.02s1.96-.69,3.09-.69c1.24,0,2.35.28,3.31.86s1.71,1.35,2.26,2.38c.52,1.02.8,2.21.8,3.51v11.52h-4.31v-11.35c0-.91-.28-1.63-.83-2.21-.58-.55-1.3-.83-2.21-.83-.97,0-1.74.28-2.32.83-.61.58-.91,1.3-.91,2.21v11.35h-4.31v-11.35c0-.91-.28-1.63-.86-2.21-.58-.55-1.3-.83-2.21-.83s-1.71.28-2.32.83c-.61.58-.91,1.3-.91,2.21v11.35h-4.31v-17.95ZM339.55,265.56c-1.63,0-3.07-.39-4.36-1.19-1.3-.77-2.35-1.88-3.09-3.29s-1.13-3.01-1.13-4.83.39-3.43,1.13-4.83,1.8-2.49,3.09-3.26,2.73-1.16,4.36-1.16c1.19,0,2.26.22,3.26.66.97.44,1.8,1.08,2.49,1.88v-2.24h4.25v17.95h-4.25v-2.26c-.69.83-1.52,1.46-2.49,1.91s-2.07.66-3.26.66ZM335.35,256.25c0,1.08.22,2.02.64,2.82s1.02,1.44,1.77,1.88c.75.47,1.63.69,2.6.69s1.85-.22,2.6-.69c.75-.44,1.35-1.08,1.77-1.88s.64-1.74.64-2.82-.22-1.99-.64-2.79-1.02-1.44-1.77-1.88-1.63-.66-2.6-.66-1.85.22-2.6.66-1.35,1.08-1.77,1.88-.64,1.74-.64,2.79ZM353.38,261.39l9.61-10.22h-9.06v-3.87h14.64v3.87l-9.67,10.22h9.94v3.87h-15.47v-3.87ZM381,265.56c-1.85,0-3.48-.39-4.89-1.16-1.44-.77-2.54-1.88-3.34-3.29s-1.19-3.01-1.19-4.83.39-3.43,1.19-4.83,1.91-2.49,3.34-3.29c1.41-.77,3.04-1.16,4.89-1.16s3.48.39,4.92,1.16c1.41.8,2.51,1.88,3.31,3.29s1.19,3.01,1.19,4.83-.39,3.43-1.19,4.83-1.91,2.51-3.31,3.29c-1.44.77-3.07,1.16-4.92,1.16ZM376,256.28c0,1.08.22,2.02.64,2.82s1.02,1.44,1.77,1.88c.75.47,1.63.69,2.6.69s1.85-.22,2.62-.69c.75-.44,1.35-1.08,1.77-1.88s.64-1.74.64-2.82-.22-1.99-.64-2.82c-.41-.8-1.02-1.44-1.77-1.91-.77-.44-1.66-.66-2.62-.66s-1.85.22-2.6.66c-.75.47-1.35,1.1-1.77,1.91-.41.83-.64,1.77-.64,2.82ZM393.73,247.3h4.28v2.29c.25-.64.83-1.24,1.71-1.8.86-.52,1.93-.8,3.23-.8s2.6.33,3.7.97c1.08.66,1.96,1.57,2.6,2.76s.94,2.57.94,4.09v10.44h-4.31v-10.36c0-1.22-.36-2.21-1.08-2.96s-1.66-1.1-2.85-1.1-2.13.36-2.85,1.1-1.08,1.74-1.08,2.96v10.36h-4.31v-17.95Z"/>
  <path d="M710.99,306.74c0,1.51.15,2.92.46,4.24.3,1.31.76,2.55,1.37,3.7.6,1.14,1.33,2.16,2.16,3.04.84.89,1.8,1.64,2.87,2.27,1.08.63,2.23,1.1,3.45,1.42,1.22.32,2.54.47,3.94.47s2.74-.16,3.98-.48c1.24-.32,2.4-.79,3.46-1.41,1.07-.63,2.02-1.38,2.86-2.26.84-.88,1.55-1.89,2.14-3.02.6-1.14,1.04-2.37,1.34-3.69.3-1.32.45-2.75.45-4.28,0-2.99-.6-5.63-1.8-7.91-.59-1.13-1.31-2.13-2.14-3.01-.83-.87-1.78-1.62-2.86-2.24-1.07-.62-2.23-1.08-3.46-1.4-1.24-.31-2.57-.47-3.99-.47s-2.71.16-3.94.47c-1.23.31-2.38.78-3.45,1.4-1.07.62-2.03,1.37-2.87,2.24-.84.88-1.56,1.88-2.16,3.01-.6,1.13-1.06,2.36-1.36,3.67-.3,1.32-.46,2.73-.46,4.23M683.79,281.85h10.35v49.89h-11.36v-49.89h1.01ZM651.31,292.08h-13.82v-10.22h38.76v10.22h-13.58v39.67h-11.36v-39.67ZM624.52,309.79l-4.87-12.74-4.92,12.74h9.8ZM614.92,281.85h10.02c6.61,16.63,13.22,33.26,19.83,49.89h-11.82l-4.49-11.73h-17.63l-4.49,11.73h-11.82c6.57-16.63,13.14-33.26,19.71-49.89h.69ZM577.41,292.08h-13.82v-10.22h38.76v10.22h-13.58v39.67h-11.36v-39.67ZM545.93,302.62c.8,0,1.51-.12,2.13-.36.61-.24,1.14-.59,1.61-1.07.47-.48.82-1.02,1.05-1.64.24-.63.36-1.34.36-2.14s-.12-1.5-.36-2.13c-.23-.61-.58-1.14-1.05-1.61h0c-.47-.47-1-.82-1.61-1.05-.63-.24-1.34-.36-2.13-.36h-10.83v10.36h10.83ZM524.75,281.85h21.36c1.59,0,3.09.16,4.52.49,1.43.33,2.78.82,4.03,1.48,1.26.66,2.38,1.45,3.36,2.37.99.92,1.83,1.97,2.54,3.15.71,1.18,1.24,2.44,1.59,3.8.35,1.35.53,2.77.53,4.26,0,1.72-.26,3.36-.79,4.91-.52,1.55-1.31,3-2.36,4.35-1.04,1.35-2.25,2.49-3.63,3.43-1.02.69-2.12,1.27-3.31,1.72l13.37,19.93h-13.09l-12.44-18.73h-5.32v18.73h-11.36v-49.89h1.01ZM483.08,281.85h34.82v10.34h-24.47v8.56h20.88v10.34h-20.88v10.3h24.47v10.34h-35.83v-49.89h1.01ZM453.65,332.4c-2.41,0-4.7-.27-6.87-.81s-4.21-1.35-6.13-2.44c-1.92-1.09-3.63-2.39-5.13-3.9-1.51-1.52-2.81-3.25-3.9-5.19-1.09-1.94-1.91-4.03-2.45-6.26-.54-2.23-.82-4.58-.82-7.07,0-4.96,1.08-9.38,3.24-13.26,1.08-1.95,2.38-3.68,3.88-5.19,1.5-1.52,3.21-2.81,5.13-3.88,1.91-1.07,3.95-1.87,6.12-2.41,2.16-.53,4.43-.8,6.82-.8,2.1,0,4.12.22,6.06.65,1.94.43,3.79,1.08,5.54,1.94,1.76.86,3.37,1.9,4.82,3.11,1.46,1.22,2.77,2.6,3.92,4.16,1.15,1.56,2.12,3.23,2.89,5,.77,1.78,1.36,3.66,1.75,5.64l.24,1.21h-11.81l-.21-.74c-.45-1.58-1.09-3.01-1.91-4.27-.82-1.26-1.82-2.37-3.02-3.33-1.19-.95-2.46-1.67-3.83-2.14-1.36-.47-2.83-.71-4.39-.71-1.3,0-2.52.16-3.66.47-1.14.31-2.23.78-3.26,1.41-1.03.63-1.95,1.38-2.75,2.25-.81.87-1.51,1.88-2.11,3.01-.6,1.13-1.05,2.35-1.34,3.65-.3,1.31-.45,2.72-.45,4.22s.15,2.92.45,4.23c.3,1.32.75,2.54,1.34,3.68.6,1.14,1.3,2.15,2.12,3.03.81.88,1.74,1.63,2.77,2.26,1.03.62,2.13,1.1,3.3,1.41,1.17.32,2.41.47,3.72.47,1.67,0,3.21-.23,4.63-.7,1.41-.47,2.7-1.16,3.87-2.1,1.17-.93,2.15-2.03,2.93-3.31.79-1.28,1.38-2.74,1.77-4.37l.19-.78h11.74l-.19,1.17c-.33,2.05-.87,3.98-1.61,5.79-.74,1.81-1.7,3.5-2.85,5.06-1.15,1.56-2.47,2.95-3.93,4.16-1.47,1.21-3.08,2.24-4.85,3.09-1.77.85-3.64,1.49-5.6,1.92-1.96.43-4.01.64-6.15.64ZM383.98,281.85h13.5l15.4,31.89v-31.89h11.36v49.89h-14.51l-15.4-31.89v31.89h-11.36v-49.89h1.01ZM339.38,306.74c0,1.51.15,2.92.46,4.24.3,1.31.76,2.55,1.37,3.7.6,1.14,1.33,2.16,2.16,3.04.84.89,1.8,1.64,2.87,2.27,1.08.63,2.23,1.1,3.45,1.42,1.22.32,2.54.47,3.94.47s2.74-.16,3.98-.48c1.24-.32,2.4-.79,3.46-1.41,1.07-.63,2.02-1.38,2.86-2.26.83-.88,1.55-1.89,2.14-3.02.6-1.14,1.04-2.37,1.34-3.69.3-1.32.45-2.75.45-4.28s-.15-2.92-.45-4.23c-.3-1.32-.75-2.54-1.34-3.68-.59-1.13-1.31-2.13-2.14-3.01-.83-.87-1.78-1.62-2.86-2.24-1.07-.62-2.23-1.08-3.46-1.4-1.24-.31-2.57-.47-3.99-.47s-2.71.16-3.94.47c-1.23.31-2.38.78-3.45,1.4-1.07.62-2.03,1.37-2.87,2.24-.84.88-1.56,1.88-2.16,3.01-.6,1.13-1.06,2.36-1.36,3.67-.31,1.32-.46,2.73-.46,4.23ZM353.62,332.4c-2.48,0-4.84-.27-7.08-.81-2.24-.54-4.34-1.35-6.3-2.43-1.96-1.08-3.72-2.38-5.26-3.9-1.54-1.52-2.86-3.25-3.96-5.2-1.1-1.95-1.93-4.03-2.48-6.26-.55-2.22-.82-4.58-.82-7.07,0-4.96,1.1-9.38,3.31-13.27,1.1-1.95,2.42-3.68,3.96-5.19,1.54-1.51,3.29-2.8,5.26-3.88,1.96-1.07,4.06-1.87,6.3-2.41,2.24-.53,4.6-.8,7.08-.8,4.99,0,9.45,1.07,13.38,3.21,1.97,1.07,3.72,2.37,5.26,3.88,1.54,1.51,2.86,3.24,3.96,5.19,1.1,1.95,1.93,4.03,2.48,6.25.55,2.21.82,4.56.82,7.02,0,5-1.1,9.45-3.31,13.33-1.1,1.95-2.42,3.68-3.96,5.2-1.54,1.52-3.29,2.82-5.26,3.9-1.96,1.08-4.06,1.89-6.3,2.43-2.24.54-4.6.81-7.08.81ZM300.02,332.4c-2.41,0-4.7-.27-6.87-.81-2.17-.54-4.21-1.35-6.13-2.44-1.92-1.09-3.63-2.39-5.13-3.9-1.51-1.52-2.81-3.25-3.9-5.19-1.09-1.94-1.91-4.03-2.45-6.26-.54-2.23-.82-4.58-.82-7.07s.27-4.81.81-7.02c.54-2.22,1.35-4.3,2.43-6.24,1.08-1.95,2.38-3.68,3.88-5.19,1.5-1.52,3.21-2.81,5.13-3.88,3.82-2.14,8.14-3.21,12.94-3.21,2.1,0,4.12.22,6.06.65,1.94.43,3.79,1.08,5.54,1.94,1.76.86,3.37,1.9,4.82,3.11,1.46,1.22,2.77,2.6,3.92,4.16,1.15,1.56,2.12,3.23,2.89,5,.77,1.78,1.36,3.66,1.75,5.64l.24,1.21h-11.81l-.21-.74c-.45-1.58-1.09-3.01-1.91-4.27-.82-1.26-1.82-2.37-3.02-3.33-1.19-.95-2.46-1.67-3.83-2.14-1.36-.47-2.83-.71-4.39-.71-1.3,0-2.52.16-3.66.47-1.14.31-2.23.78-3.26,1.41-1.03.63-1.95,1.38-2.76,2.25-.81.87-1.51,1.88-2.11,3.01-.6,1.13-1.05,2.35-1.34,3.65-.3,1.31-.45,2.72-.45,4.22s.15,2.92.45,4.23c.3,1.32.75,2.54,1.34,3.68.6,1.14,1.3,2.15,2.12,3.03.81.88,1.74,1.63,2.77,2.26,1.03.62,2.13,1.1,3.3,1.41,1.17.32,2.41.47,3.72.47,1.67,0,3.21-.23,4.63-.7,1.41-.47,2.7-1.16,3.87-2.1,1.17-.93,2.15-2.03,2.93-3.31.79-1.28,1.38-2.74,1.77-4.37l.19-.78h11.74l-.19,1.17c-.33,2.05-.87,3.98-1.61,5.79-.74,1.81-1.7,3.5-2.85,5.06-1.15,1.56-2.47,2.95-3.93,4.16-1.46,1.21-3.08,2.24-4.85,3.09-1.77.85-3.64,1.49-5.6,1.92-1.96.43-4.01.64-6.15.64ZM755.58,281.85h13.5l15.4,31.89v-31.89h11.36v49.89h-14.51l-15.4-31.89v31.89h-11.36c0-16.63,0-33.26,0-49.89h1.01ZM725.23,332.4c-2.48,0-4.84-.27-7.08-.81-2.24-.54-4.34-1.35-6.3-2.43-1.96-1.08-3.72-2.38-5.25-3.9-1.54-1.52-2.86-3.25-3.96-5.2-1.1-1.95-1.93-4.03-2.48-6.26-.55-2.22-.83-4.58-.83-7.07,0-4.96,1.1-9.38,3.31-13.27,1.1-1.95,2.42-3.68,3.96-5.19,1.54-1.51,3.29-2.8,5.26-3.88,1.96-1.07,4.06-1.87,6.3-2.41,2.24-.53,4.6-.8,7.08-.8,4.99,0,9.45,1.07,13.38,3.21,1.97,1.07,3.72,2.37,5.26,3.88,1.54,1.51,2.86,3.24,3.96,5.19,1.1,1.95,1.93,4.03,2.48,6.25.55,2.21.82,4.56.82,7.02,0,5-1.1,9.45-3.31,13.33-1.1,1.95-2.42,3.68-3.96,5.2-1.54,1.52-3.29,2.82-5.26,3.9-1.96,1.08-4.06,1.89-6.3,2.43-2.24.54-4.6.81-7.08.81Z"/>
  <path d="M203.39,311.81l12.49,4.3v-.05s0-.01,0-.01v-.04s0-.05,0-.05v-.05s0,0,0,0v-.1s0-.05,0-.05h0s0-.05,0-.05v-.05s0-.04,0-.04h0s0-.06,0-.06v-.05s0-.03,0-.03v-.02s0-.05,0-.05v-.05s0-.02,0-.02v-.03s0-.05,0-.05v-.15s0-.05,0-.05h0s0-.05,0-.05v-.05s0-.04,0-.04h0s0-.14,0-.14h0s0-.06,0-.06v-.05s0-.03,0-.03v-.02s0-.05,0-.05v-.05s0-.02,0-.02v-.03s0-.05,0-.05v-.05h0s0-.2,0-.2v-.05s0-.04,0-.04h0s0-.06,0-.06v-.08s0-.02,0-.02v-.05s0-.05,0-.05v-.1s0-.05,0-.05v-.15h0v-.15h0v-.14s0,0,0,0v-.1s0-.03,0-.03v-.06s0-.05,0-.05v-.03s0-.02,0-.02l-12.53-1.1ZM174.3,307.75l18.3,1.77-19.1-6.36c.13.53.25,1.07.35,1.61h0s0,.03,0,.03h0s0,.03,0,.03h0s0,.03,0,.03h0s0,.03,0,.03h0v.02s0,.02,0,.02v.02s0,0,0,0v.02s0,.02,0,.02v.02s0,0,0,0v.02s0,.02,0,.02v.02s0,0,0,0v.02s0,.02,0,.02v.02s0,0,0,0v.02s0,.02,0,.02h0s0,.02,0,.02v.02s0,.02,0,.02h0s0,.02,0,.02v.02s0,.02,0,.02v.02s0,.02,0,.02c.14.78.24,1.56.32,2.34ZM197.74,327.82l14.54,9.54v-.03s.02-.03.02-.03l.02-.06.02-.06h0s.02-.06.02-.06l.02-.06v-.04s.02-.02.02-.02l.03-.12v-.02s.02-.04.02-.04l.03-.11h0s.02-.06.02-.06l.02-.06v-.03s.02-.03.02-.03l.02-.06.02-.06h0s.02-.06.02-.06l.02-.06v-.04s.02-.02.02-.02l.02-.06.02-.06v-.02s.02-.04.02-.04l.02-.06v-.05s.02,0,.02,0l.02-.06.02-.06v-.03s.02-.03.02-.03l.02-.06.02-.06h0s.02-.06.02-.06l.02-.06v-.04s.02-.02.02-.02l.02-.06.02-.06v-.02s.02-.04.02-.04l.02-.06v-.05s.02,0,.02,0l.02-.06.02-.06v-.03s.02-.03.02-.03l.02-.06.02-.06h0s.02-.06.02-.06l.02-.06v-.04s.02-.02.02-.02l.02-.06.02-.06h0s.01-.06.01-.06l.02-.06v-.05s.02,0,.02,0l.03-.12v-.03s.02-.03.02-.03l.02-.06.02-.06h0s.02-.06.02-.06l.02-.06v-.04s.02-.02.02-.02l.02-.06.02-.06h0s.01-.06.01-.06v-.06s.03-.05.03-.05h0s.02-.07.02-.07l-15.6-5.78ZM173.9,317.61l14,5.21-13.52-8.96c-.09,1.26-.26,2.51-.49,3.76ZM188.12,341.81l14.49,16.28v-.02s.11-.14.11-.14l.06-.09.03-.05v-.02s.09-.13.09-.13l.08-.13h0s.03-.06.03-.06l.06-.09.09-.14.09-.14.05-.08.04-.06h0s.04-.07.04-.07l.04-.06h0s.09-.16.09-.16l.02-.04.04-.06.02-.04.02-.03.04-.07.03-.05h0s.04-.08.04-.08l.04-.06h0s.04-.07.04-.07l.04-.06v-.02s.1-.14.1-.14l.02-.04.04-.07.02-.04v-.02s.05-.07.05-.07l.03-.05h0s.04-.08.04-.08l.04-.07h0s.04-.07.04-.07l.04-.07v-.02s.04-.05.04-.05l.04-.07.02-.03.02-.04.04-.07.03-.04v-.02s.05-.07.05-.07l.03-.06h0s.04-.07.04-.07l.04-.07.03-.06.04-.07v-.02s.04-.05.04-.05l.06-.1.02-.03.04-.07.03-.05v-.02s.05-.07.05-.07l.03-.06h0s.04-.07.04-.07l.04-.07h0s.03-.07.03-.07l.04-.07-17.02-12.11ZM170.43,327.69l9.51,6.77-8.28-9.38v.02s-.02.04-.02.04l-.02.04-.02.04-.02.04-.02.04-.02.04-.02.04-.02.04-.02.04-.02.04v.02s-.02.02-.02.02l-.02.04-.02.04v.02s-.02.02-.02.02v.02s-.02.02-.02.02v.02s-.02.02-.02.02l-.02.04v.02s-.02.03-.02.03l-.02.04h0s-.01.04-.01.04h0s-.01.04-.01.04h0s-.01.04-.01.04h0s-.01.04-.01.04h0s-.01.04-.01.04h0s-.01.04-.01.04h0s-.01.04-.01.04h0s-.01.04-.01.04h0s-.01.04-.01.04l-.02.04h0s-.02.04-.02.04h0s-.02.04-.02.04h0s-.02.04-.02.04h0s-.02.04-.02.04h0s-.02.04-.02.04h0s-.02.04-.02.04h0s-.02.04-.02.04h0s-.02.04-.02.04l-.02.04h0s-.02.04-.02.04h0s-.02.04-.02.04l-.02.04h0s-.02.04-.02.04l-.02.04h0s-.02.04-.02.04l-.02.04h0s-.02.04-.02.04h0s-.02.04-.02.04h0c-.11.22-.22.43-.33.65ZM175.23,352.85l11.51,23.13.03-.03.02-.02h0s.03-.03.03-.03l.03-.03.03-.03.03-.02h0s.03-.03.03-.03l.03-.03.03-.03.03-.03h0s.03-.03.03-.03l.03-.03.03-.03.03-.03h.01s.02-.03.02-.03l.03-.03.06-.05h.02s.01-.03.01-.03l.03-.03.03-.03.03-.03.02-.02h0s.03-.03.03-.03l.03-.03.03-.03.03-.03h0s.03-.03.03-.03l.03-.03.03-.03.03-.03h0s.08-.08.08-.08l.03-.03h.01s.02-.03.02-.03l.03-.03.03-.03.03-.03.02-.02h.01s.03-.04.03-.04l.06-.05.02-.02.07-.06.03-.03.03-.03h0s.09-.08.09-.08l.03-.03h0s.02-.03.02-.03l.03-.03.03-.03.03-.03h.01s.02-.03.02-.03l.03-.03.03-.03.06-.05.03-.03.09-.08.04-.04.07-.06h.01s.05-.06.05-.06l.07-.06h0s.13-.12.13-.12h0s.07-.07.07-.07l.05-.04.02-.02.07-.06.04-.03.03-.03.03-.02.03-.02c.56-.51,1.12-1.04,1.67-1.57l-15.86-19.25ZM159.9,360.16l5.79,28.22c1.99-.78,3.83-1.59,5.72-2.5l.03-.02.09-.04.04-.02.05-.03-11.73-25.61ZM143.22,363.28l-1.85,30.48c2.31-.16,4.57-.41,6.78-.74l-4.94-29.74ZM92.24,219.37l-3.5-6.75c-2.22,1.39-4.39,2.86-6.5,4.42l5.7,6.91h.01s.05-.07.05-.07l.06-.07h0s.06-.07.06-.07l.05-.06h.01s.06-.09.06-.09l.04-.05.02-.03.06-.07.03-.03.04-.04.07-.07.02-.02.05-.05.07-.07h0s.06-.07.06-.07l.06-.06h0s.07-.08.07-.08l.05-.05.02-.02.07-.07.03-.04.03-.04.07-.07.02-.02.04-.05.07-.07h0s.06-.07.06-.07l.06-.07h0s.07-.07.07-.07l.05-.06.02-.02.07-.07.04-.04.03-.03.07-.07.03-.03.04-.04.07-.07v-.02s.07-.06.07-.06l.07-.07h0s.07-.07.07-.07l.06-.06h.01s.07-.08.07-.08l.04-.05.02-.02.07-.07.03-.03.04-.04.07-.07.02-.02.05-.05.07-.07h0s.06-.07.06-.07l.06-.06h0s.07-.08.07-.08l.05-.05.02-.02.07-.07.04-.04.03-.03.07-.07.02-.03.04-.04.07-.07h.01s.06-.07.06-.07l.07-.07h0s.07-.07.07-.07l.05-.06h.01s.07-.08.07-.08l.04-.04.03-.03.07-.07.03-.03.04-.04.07-.07.02-.02.05-.05.07-.07h0s.06-.07.06-.07l.06-.06h0s.07-.08.07-.08l.05-.05.02-.02ZM168.98,291.72l22.16-10.11-26.15,5.35c1.5,1.52,2.83,3.12,3.99,4.76ZM123.3,393.26c-2.33-.29-4.64-.66-6.94-1.14l-.11-.02,10.05-30.14-3,31.3ZM44.67,274.36l23.27,7.7v.03s0,.03,0,.03v.06s0,.03,0,.03v.03c.02.38.04.75.07,1.13v.03s0,.03,0,.03h0s0,.14,0,.14v.13s.02.13.02.13v.13s.01.03.01.03v.03s0,.03,0,.03l-24.82-2.35c.38-2.47.84-4.91,1.43-7.35ZM42.13,299.82l29.04,1.74c.09.27.52.15.74.3h0s.03.11.03.11l.02.07-.34.27-28.99,4.88v-.11c-.26-2.42-.44-4.83-.51-7.26ZM48.56,331.89c-.86-2.3-1.65-4.58-2.35-6.93l30.54-6.24.15.24-28.34,12.93ZM56.58,348.25l-.06-.1,28.74-14.36-24.75,20.42c-1.38-1.94-2.69-3.93-3.93-5.96ZM72.33,367.94l23.98-21.26-18.6,26.1-.09-.07c-1.83-1.53-3.58-3.11-5.3-4.77ZM92.61,383.07l17.68-26.77-11.23,30.08-.1-.05c-2.15-1.01-4.27-2.1-6.35-3.26ZM134.91,316.06c-.01.09-.03.18-.04.29-12.29-1.87-21.89-9.3-26.83-19.33l6.58-.64-7.98-2.59c-.34-.9-.64-1.82-.91-2.76h0c-.18-.64-.35-1.29-.49-1.94h0s-.07-.33-.07-.33l10.8,1.18-11.58-7.65c-.02-.56-.02-1.12-.02-1.69v-.04s0,0,0,0v-.04s0-.04,0-.04v-.04s0-.04,0-.04h0s0-.04,0-.04h0s0-.04,0-.04v-.03s0-.01,0-.01v-.04s0-.04,0-.04v-.04s0-.03,0-.03h0s0-.06,0-.06h0s0-.04,0-.04v-.02s0-.03,0-.03v-.03s0-.01,0-.01v-.04s0,0,0,0v-.04s0-.02,0-.02v-.02s0-.03,0-.03h0s0-.05,0-.05v-.04s0-.04,0-.04v-.04s0,0,0,0v-.02s0-.02,0-.02h0s0-.02,0-.02v-.02s0-.02,0-.02h0v-.05s0,0,0,0h0s0-.02,0-.02v-.02s0,0,0,0h0s0-.03,0-.03v-.06s0,0,0,0v-.04s0,0,0,0v-.17s0,0,0,0l.03-.51,14.5,5.48-12.84-14.47c.06-.19.12-.38.18-.57h0s0-.02,0-.02v-.02s.01-.01.01-.01h0s0-.03,0-.03v-.02s0,0,0,0v-.02s.01-.02.01-.02h0s0-.02,0-.02v-.02s.01-.02.01-.02h0s0-.02,0-.02v-.02s.01-.02.01-.02h0s0-.02,0-.02v-.02s0,0,0,0h0s0-.03,0-.03v-.02s0,0,0,0v-.02s.01-.02.01-.02h0s0-.02,0-.02v-.02s.01-.02.01-.02h0s0-.02,0-.02v-.02s.01-.01.01-.01h0s0-.03,0-.03v-.02s0,0,0,0v-.02s.01-.02.01-.02h0s0-.02,0-.02v-.02s.01-.02.01-.02h0s0-.02,0-.02v-.02s.01-.02.01-.02h0s0-.02,0-.02v-.02s0,0,0,0h0s0-.03,0-.03v-.02s.01-.02.01-.02v-.02s0-.01,0-.01h0s0-.03,0-.03v-.02s0,0,0,0v-.02s.01-.02.01-.02h0s0-.02,0-.02v-.02s.01-.02.01-.02h0s0-.02,0-.02v-.02s.01-.02.01-.02h0s0-.03,0-.03v-.02s0,0,0,0h0s0-.03,0-.03v-.02s0,0,0,0v-.02s.01-.02.01-.02h0s0-.02,0-.02v-.02s.01-.02.01-.02h0s.01-.05.01-.05h0s.02-.05.02-.05h0s.01-.05.01-.05h0s.02-.06.02-.06h0s.01-.04.01-.04h0s.02-.06.02-.06h0s16.52,11.74,16.52,11.74l-11.01-22c.21-.28.42-.56.64-.83l15.89,19.24-5.79-28.16h0s.06-.04.06-.04l.06-.04h.02s11.9,26.2,11.9,26.2l1.76-29.27.25-.1,4.57,29.04,9.18-27.52h.04s-2.77,28.88-2.77,28.88l16.08-24.34-10.2,27.31,21.83-19.35-16.93,23.76,26.08-13.03-20.89,17.24c-.58-.55-1.18-1.09-1.81-1.62-3.69-3.16-8.6-5.62-13.73-6.94-11.37-2.93-24.5,2.54-27.12,14.94-2.14,10.08,4.45,20.18,13.42,23.54ZM69.2,264.17l-18.66-6.99c.53-1.2,1.07-2.35,1.62-3.45.54-1.09,1.12-2.2,1.73-3.32l15.93,10.48c-.28,1.19-.42,1.98-.59,3.11l-.02.1v.06ZM76.56,241.24l-.03.07v.02s-.03.04-.03.04l-.03.07-.02.04v.03s-.04.07-.04.07l-.03.05h0s-.01.04-.01.04c-.29.61-.58,1.22-.86,1.84l-11.87-8.51c1.6-2.01,3.28-3.96,5.03-5.83l8.94,10.04-.02.03-.02.03v.03s-.02,0-.02,0l-.02.03-.03.06h0s-.02.04-.02.04h0s-.01.03-.01.03l-.02.03-.02.03-.02.03-.02.03h0s-.02.03-.02.03l-.02.03-.02.03-.02.03v.02s-.02.02-.02.02l-.02.03-.02.03-.02.03-.02.03h0s-.01.03-.01.03l-.02.03-.02.03-.02.03v.02s-.02.01-.02.01l-.02.03-.02.03-.02.03-.02.03h0s-.01.03-.01.03l-.02.03-.02.03-.02.03v.03s-.02,0-.02,0l-.02.03-.02.03-.02.03-.02.03h0s0,.03,0,.03l-.02.03-.02.03-.02.03v.03s-.02,0-.02,0l-.02.03-.02.03-.02.03-.02.03v.02s-.02.02-.02.02l-.02.03-.02.03-.02.03-.02.03h0s-.01.03-.01.03l-.02.03-.02.03-.02.03v.02s-.02.01-.02.01l-.02.03-.02.03-.02.03-.02.03h0s-.01.03-.01.03l-.02.03ZM106.78,208.17l-1.78-3.74c2.09-.82,4.22-1.58,6.38-2.26l1.44,2.79c-1.25.59-2.48,1.22-3.7,1.88l-.06.03-.04.02h-.01s-.06.04-.06.04l-.09.05h0s-.09.05-.09.05l-.07.04h-.02s-.03.03-.03.03l-.3.16-.03.02-.03.02-.03.02-.03.02-.03.02-.03.02-.03.02-.03.02-.03.02-.05.03h-.01s-.03.02-.03.02l-.03.02-.03.02-.03.02-.03.02h0s-.02.02-.02.02l-.03.02-.03.02-.03.02-.03.02h-.02s0,.02,0,.02l-.03.02-.03.02-.03.02-.03.02-.03.02h-.01s-.02.02-.02.02l-.03.02-.03.02-.03.02-.03.02-.03.02h0s-.03.02-.03.02l-.03.02-.03.02-.03.02-.03.02-.06.03-.03.02-.03.02-.03.02-.03.02h0s-.06.03-.06.03l-.03.02-.03.02-.03.02h-.02s0,.02,0,.02l-.06.03-.03.02ZM193.69,295.47l-23.9-1.5c.95,1.64,1.76,3.34,2.43,5.09l21.47-3.59Z"/>
  <path d="M139.16,393.89l.1,3.38c4.08.11,8.24-.05,12.53-.67l-.56-4.09c-3.88.72-7.9,1.19-12.07,1.38M163.48,389.21l1.63,4.91c3.97-.95,7.95-2.18,11.93-3.89l-2.68-5.87c-3.44,1.86-7.07,3.49-10.88,4.85ZM201.5,359.75l8.58,8.99c2.97-2.81,5.79-5.86,8.39-9.33l-11.5-8.92c-1.62,3.2-3.44,6.29-5.47,9.26ZM211.61,339.44l14.54,8.8c2.14-3.48,4.08-7.16,5.69-11.18l-17.58-7.39c-.68,3.31-1.57,6.58-2.64,9.78ZM214.35,297.66l25.65.82c.11-4.08-.05-8.24-.67-12.53l-27.01,3.76c.81,2.61,1.49,5.26,2.03,7.95ZM173.66,303.84l-7.86-.93h0s8.18,2.5,8.18,2.5c-.09-.53-.2-1.05-.31-1.57ZM174.39,313.71l-10.87-4.37h0s10.64,6.55,10.64,6.55c.1-.72.17-1.45.22-2.18ZM171.94,324.37l-12.28-9.41h0s11.09,12.08,11.09,12.08c.43-.88.83-1.77,1.19-2.67ZM166.06,334.26l-11.58-14.86h0s9.3,17.37,9.3,17.37c.81-.81,1.57-1.64,2.28-2.51ZM156.77,342.3l-8.44-19.96h0s5.1,21.81,5.1,21.81c1.16-.57,2.27-1.19,3.34-1.84ZM144.92,347.24l-3.29-23.65h0l-.79,24.48c1.4-.22,2.76-.5,4.08-.83ZM131.65,348.69l3.18-25.63h0s-7.68,25.38-7.68,25.38c1.53.14,3.03.22,4.5.25ZM117.85,346.8l10.55-26.01h0s-15.24,24.53-15.24,24.53c1.54.56,3.1,1.05,4.69,1.48ZM104.37,341.29l18.41-24.36h0s-22.98,21.54-22.98,21.54c1.49,1,3.01,1.94,4.57,2.81ZM91.97,332.29l26.37-20.54h0s-30.57,16.36-30.57,16.36c1.35,1.45,2.75,2.85,4.21,4.18ZM81.26,320.03l32.84-13.88c-.06-.07-.13-.14-.19-.2l-36.21,8.47c1.11,1.92,2.3,3.8,3.57,5.62ZM72.95,304.62l36.04-5.01c-.19-.3-.37-.6-.54-.9l-37.94-1.22c.69,2.41,1.5,4.8,2.44,7.14ZM68.28,286.33l37.46,4.7c-.18-.64-.35-1.29-.49-1.94l-37.37-11.17c-.05,2.8.08,5.61.4,8.41ZM68.88,266.16l35.5,14.43c.01-.91.06-1.83.14-2.76l-33.75-20.87c-.78,2.99-1.41,6.06-1.88,9.2ZM74.74,245.22l31.56,23.79c.35-1.12.74-2.2,1.17-3.25l-28.06-29.88c-1.74,2.98-3.29,6.09-4.67,9.34ZM86.8,225.29l25.16,32.38c.8-1.11,1.66-2.16,2.56-3.16l-19.85-37.44c-2.8,2.53-5.44,5.27-7.87,8.21ZM105.27,209.09l16.54,39.14c1.29-.87,2.64-1.66,4.03-2.38l-9.84-42.28c-3.73,1.55-7.31,3.4-10.73,5.53ZM141.22,197.98c-.93.03-1.85.08-2.78.14-3.25.27-6.46.74-9.59,1.41l5.95,42.79c1.64-.46,3.32-.85,5.02-1.15l1.39-43.19ZM165.27,200.9c-1.43-.38-2.88-.74-4.34-1.06-.47-.1-.94-.19-1.4-.29-1.56-.3-3.16-.56-4.79-.75l-5.15,41.49c1.66-.01,3.32.05,4.98.17.2.01.4.04.6.05l11.84-39.12c-.58-.17-1.15-.34-1.74-.5ZM190.93,211.66c-3.57-2.12-7.29-4.03-11.16-5.71l-14.69,36.21c1.98.5,3.92,1.09,5.81,1.77l20.04-32.27ZM211.41,227.72c-2.92-2.97-6.03-5.77-9.32-8.38l-21.84,28.9c1.9,1.08,3.74,2.26,5.51,3.53l25.65-24.06ZM227.09,248.49c-2.07-3.64-4.36-7.14-6.86-10.49l-26.43,20.59c1.66,1.65,3.23,3.38,4.72,5.2l28.57-15.29ZM236.21,270.11c-.89-3.09-1.94-6.14-3.12-9.12l-.12-.29-28.23,11.94c1.29,2.16,2.47,4.38,3.55,6.67l28.57-6.68c-.2-.84-.42-1.68-.64-2.53ZM237.56,319.74c.12-.51.24-1.03.35-1.55.15-.73.3-1.46.43-2.18.24-1.31.44-2.65.6-4.01l-23.14-2.88c.17,3.01.16,6.03-.02,9.05l20.56,6.11c.44-1.49.85-3,1.21-4.53ZM199.79,377.55l-6.28-7.89c-2.45,2.58-5.08,5-7.89,7.24l3.65,7.49c3.69-2,7.22-4.24,10.52-6.84Z"/>
  </g>
</svg>
