<?xml version="1.0" encoding="UTF-8"?> <svg xmlns="http://www.w3.org/2000/svg" width="216" height="37" viewBox="0 0 216 37" fill="none"><mask id="path-1-inside-1_2101_460" fill="white"><path d="M36.1258 25.0909V10.3273H41.9866C43.0567 10.3273 43.9895 10.5065 44.785 10.8651C45.5876 11.2166 46.2036 11.7263 46.633 12.3942C47.0695 13.0621 47.2878 13.86 47.2878 14.788C47.2878 15.5192 47.1434 16.1624 46.8548 16.7178C46.5662 17.2662 46.1684 17.7232 45.6615 18.0887C45.1617 18.4543 44.5844 18.7179 43.9297 18.8796L48.0692 25.0909H44.3415L40.7828 19.4807H39.2516V25.0909H36.1258ZM39.2516 16.9604H41.5748C42.3774 16.9604 43.0039 16.7987 43.4545 16.4753C43.9121 16.1448 44.1409 15.6457 44.1409 14.9778C44.1409 14.2888 43.9297 13.7721 43.5073 13.4276C43.0919 13.0832 42.483 12.9109 41.6804 12.9109H39.2516V16.9604Z"></path><path d="M54.7365 25.4073C53.5749 25.4073 52.5541 25.1718 51.6741 24.7007C50.7941 24.2297 50.1077 23.5724 49.6149 22.7287C49.1221 21.8851 48.8757 20.8973 48.8757 19.7655C48.8757 18.9429 49.0165 18.1872 49.2981 17.4982C49.5868 16.8092 49.9881 16.2152 50.502 15.716C51.0229 15.2098 51.6319 14.8196 52.3289 14.5455C53.0329 14.2642 53.8037 14.1236 54.6415 14.1236C55.5637 14.1236 56.3804 14.2853 57.0914 14.6087C57.8095 14.9321 58.4044 15.3856 58.8761 15.9691C59.3478 16.5456 59.6751 17.224 59.8582 18.0044C60.0482 18.7847 60.0658 19.6319 59.911 20.5458H51.7375C51.7375 21.0379 51.8642 21.4668 52.1177 21.8324C52.3781 22.1979 52.7407 22.4862 53.2053 22.6971C53.677 22.901 54.2261 23.0029 54.8527 23.0029C55.4722 23.0029 56.0636 22.9185 56.6268 22.7498C57.19 22.5811 57.7215 22.3245 58.2214 21.98L59.2457 24.0891C58.9077 24.3492 58.4853 24.5812 57.9785 24.7851C57.4716 24.9819 56.933 25.1331 56.3628 25.2385C55.7996 25.351 55.2575 25.4073 54.7365 25.4073ZM51.917 18.4262H56.9541C56.933 17.8005 56.7113 17.3048 56.2889 16.9393C55.8735 16.5737 55.2997 16.3909 54.5676 16.3909C53.8354 16.3909 53.2265 16.5737 52.7407 16.9393C52.262 17.3048 51.9874 17.8005 51.917 18.4262Z"></path><path d="M65.5904 25.3967C64.64 25.3967 63.7635 25.2737 62.961 25.0276C62.1584 24.7745 61.472 24.4301 60.9018 23.9942L61.905 21.8429C62.4611 22.2225 63.0631 22.5213 63.7107 22.7393C64.3584 22.9502 64.9815 23.0556 65.5799 23.0556C66.1712 23.0556 66.6253 22.9678 66.9421 22.792C67.266 22.6092 67.4279 22.3491 67.4279 22.0116C67.4279 21.7093 67.2835 21.4879 66.9949 21.3473C66.7133 21.1996 66.1642 21.0415 65.3475 20.8727C63.9395 20.6196 62.9117 20.2224 62.264 19.6811C61.6163 19.1327 61.2925 18.3805 61.2925 17.4244C61.2925 16.7495 61.4791 16.1554 61.8522 15.6422C62.2323 15.129 62.7533 14.7318 63.4151 14.4505C64.0768 14.1623 64.8371 14.0182 65.696 14.0182C66.5408 14.0182 67.3363 14.1342 68.0826 14.3662C68.8359 14.5912 69.48 14.9075 70.0151 15.3153L69.0436 17.4771C68.762 17.2521 68.4381 17.0553 68.072 16.8865C67.713 16.7178 67.3328 16.5878 66.9316 16.4964C66.5373 16.3979 66.1501 16.3487 65.7699 16.3487C65.256 16.3487 64.8407 16.4366 64.5239 16.6124C64.2071 16.7811 64.0487 17.0201 64.0487 17.3295C64.0487 17.6388 64.193 17.8673 64.4816 18.0149C64.7703 18.1625 65.3088 18.3242 66.0973 18.5C67.5687 18.8093 68.6141 19.2206 69.2336 19.7338C69.8602 20.24 70.1735 20.9536 70.1735 21.8745C70.1735 22.5846 69.9799 23.2033 69.5927 23.7305C69.2125 24.2578 68.6775 24.6691 67.9876 24.9644C67.3047 25.2526 66.5056 25.3967 65.5904 25.3967Z"></path><path d="M72.1312 29.52V14.44H74.8134V15.7476C75.2218 15.2625 75.7392 14.8724 76.3658 14.5771C76.9994 14.2748 77.7491 14.1236 78.6151 14.1236C79.6429 14.1236 80.5581 14.3627 81.3607 14.8407C82.1632 15.3118 82.7933 15.9726 83.2509 16.8233C83.7085 17.6739 83.9373 18.6547 83.9373 19.7655C83.9373 20.5599 83.8035 21.2981 83.536 21.98C83.2755 22.6619 82.9059 23.2595 82.4272 23.7727C81.9485 24.2859 81.3818 24.6867 80.7271 24.9749C80.0723 25.2632 79.3507 25.4073 78.5623 25.4073C77.8653 25.4073 77.2352 25.2913 76.672 25.0593C76.1159 24.8273 75.6266 24.5004 75.2042 24.0785V29.52H72.1312ZM78.0448 22.7393C78.5939 22.7393 79.0832 22.6198 79.5127 22.3807C79.9491 22.1347 80.2871 21.7902 80.5264 21.3473C80.7728 20.9044 80.896 20.3771 80.896 19.7655C80.896 19.1538 80.7728 18.6265 80.5264 18.1836C80.28 17.7407 79.9421 17.3998 79.5127 17.1607C79.0832 16.9147 78.5939 16.7916 78.0448 16.7916C77.5027 16.7916 77.017 16.9147 76.5875 17.1607C76.1581 17.3998 75.8202 17.7407 75.5738 18.1836C75.3274 18.6265 75.2042 19.1538 75.2042 19.7655C75.2042 20.3771 75.3239 20.9044 75.5632 21.3473C75.8096 21.7902 76.1475 22.1347 76.577 22.3807C77.0064 22.6198 77.4957 22.7393 78.0448 22.7393Z"></path><path d="M90.7498 25.4073C89.6023 25.4073 88.585 25.1507 87.698 24.6375C86.811 24.1242 86.114 23.4423 85.6071 22.5916C85.1073 21.7339 84.8573 20.7919 84.8573 19.7655C84.8573 19.0132 85.0017 18.2996 85.2903 17.6247C85.579 16.9428 85.9873 16.3417 86.5153 15.8215C87.0433 15.2942 87.6663 14.8794 88.3844 14.5771C89.1025 14.2748 89.891 14.1236 90.7498 14.1236C91.8974 14.1236 92.9111 14.3802 93.7911 14.8935C94.6782 15.4067 95.3716 16.0921 95.8715 16.9498C96.3783 17.8005 96.6318 18.739 96.6318 19.7655C96.6318 20.5107 96.4875 21.2242 96.1988 21.9062C95.9102 22.5881 95.5018 23.1927 94.9738 23.72C94.4529 24.2402 93.8334 24.6515 93.1153 24.9538C92.3972 25.2561 91.6087 25.4073 90.7498 25.4073ZM90.7498 22.7393C91.2919 22.7393 91.7777 22.6198 92.2071 22.3807C92.6366 22.1347 92.9745 21.7902 93.2209 21.3473C93.4673 20.8973 93.5905 20.3701 93.5905 19.7655C93.5905 19.1538 93.4673 18.6265 93.2209 18.1836C92.9815 17.7407 92.6471 17.3998 92.2177 17.1607C91.7882 16.9147 91.299 16.7916 90.7498 16.7916C90.2007 16.7916 89.7079 16.9147 89.2714 17.1607C88.842 17.3998 88.5041 17.7407 88.2577 18.1836C88.0183 18.6265 87.8986 19.1538 87.8986 19.7655C87.8986 20.3771 88.0218 20.9044 88.2682 21.3473C88.5146 21.7902 88.8526 22.1347 89.282 22.3807C89.7114 22.6198 90.2007 22.7393 90.7498 22.7393Z"></path><path d="M98.3258 25.0909V14.44H101.409V15.6422C101.818 15.1079 102.3 14.7212 102.856 14.4822C103.419 14.2432 104.007 14.1236 104.62 14.1236C105.612 14.1236 106.429 14.3205 107.07 14.7142C107.717 15.1008 108.196 15.6035 108.506 16.2222C108.822 16.8408 108.981 17.4912 108.981 18.1731V25.0909H105.897V19.1327C105.897 18.4578 105.707 17.92 105.327 17.5193C104.954 17.1185 104.412 16.9182 103.701 16.9182C103.25 16.9182 102.853 17.0201 102.508 17.224C102.163 17.4208 101.892 17.6985 101.694 18.0571C101.504 18.4156 101.409 18.8304 101.409 19.3015V25.0909H98.3258Z"></path><path d="M115.319 25.3967C114.369 25.3967 113.492 25.2737 112.69 25.0276C111.887 24.7745 111.201 24.4301 110.63 23.9942L111.634 21.8429C112.19 22.2225 112.792 22.5213 113.439 22.7393C114.087 22.9502 114.71 23.0556 115.308 23.0556C115.9 23.0556 116.354 22.9678 116.671 22.792C116.995 22.6092 117.156 22.3491 117.156 22.0116C117.156 21.7093 117.012 21.4879 116.724 21.3473C116.442 21.1996 115.893 21.0415 115.076 20.8727C113.668 20.6196 112.64 20.2224 111.993 19.6811C111.345 19.1327 111.021 18.3805 111.021 17.4244C111.021 16.7495 111.208 16.1554 111.581 15.6422C111.961 15.129 112.482 14.7318 113.144 14.4505C113.805 14.1623 114.566 14.0182 115.425 14.0182C116.269 14.0182 117.065 14.1342 117.811 14.3662C118.564 14.5912 119.209 14.9075 119.744 15.3153L118.772 17.4771C118.491 17.2521 118.167 17.0553 117.801 16.8865C117.442 16.7178 117.061 16.5878 116.66 16.4964C116.266 16.3979 115.879 16.3487 115.499 16.3487C114.985 16.3487 114.569 16.4366 114.252 16.6124C113.936 16.7811 113.777 17.0201 113.777 17.3295C113.777 17.6388 113.922 17.8673 114.21 18.0149C114.499 18.1625 115.037 18.3242 115.826 18.5C117.297 18.8093 118.343 19.2206 118.962 19.7338C119.589 20.24 119.902 20.9536 119.902 21.8745C119.902 22.5846 119.708 23.2033 119.321 23.7305C118.941 24.2578 118.406 24.6691 117.716 24.9644C117.033 25.2526 116.234 25.3967 115.319 25.3967Z"></path><path d="M121.86 25.0909V14.44H124.943V25.0909H121.86ZM123.402 12.7527C122.888 12.7527 122.444 12.5945 122.071 12.2782C121.698 11.9548 121.511 11.5259 121.511 10.9916C121.511 10.4503 121.698 10.0215 122.071 9.70509C122.444 9.3817 122.888 9.22 123.402 9.22C123.916 9.22 124.359 9.3817 124.732 9.70509C125.105 10.0215 125.292 10.4503 125.292 10.9916C125.292 11.5259 125.105 11.9548 124.732 12.2782C124.359 12.5945 123.916 12.7527 123.402 12.7527Z"></path><path d="M130.077 25.0909L126.233 14.44H129.56L132.052 22.4335H131.682L134.122 14.44H137.374L133.647 25.0909H130.077Z"></path><path d="M143.551 25.4073C142.39 25.4073 141.369 25.1718 140.489 24.7007C139.609 24.2297 138.922 23.5724 138.43 22.7287C137.937 21.8851 137.69 20.8973 137.69 19.7655C137.69 18.9429 137.831 18.1872 138.113 17.4982C138.401 16.8092 138.803 16.2152 139.317 15.716C139.838 15.2098 140.447 14.8196 141.144 14.5455C141.848 14.2642 142.618 14.1236 143.456 14.1236C144.378 14.1236 145.195 14.2853 145.906 14.6087C146.624 14.9321 147.219 15.3856 147.691 15.9691C148.162 16.5456 148.49 17.224 148.673 18.0044C148.863 18.7847 148.881 19.6319 148.726 20.5458H140.552C140.552 21.0379 140.679 21.4668 140.932 21.8324C141.193 22.1979 141.555 22.4862 142.02 22.6971C142.492 22.901 143.041 23.0029 143.667 23.0029C144.287 23.0029 144.878 22.9185 145.442 22.7498C146.005 22.5811 146.536 22.3245 147.036 21.98L148.06 24.0891C147.722 24.3492 147.3 24.5812 146.793 24.7851C146.286 24.9819 145.748 25.1331 145.177 25.2385C144.614 25.351 144.072 25.4073 143.551 25.4073ZM140.732 18.4262H145.769C145.748 17.8005 145.526 17.3048 145.104 16.9393C144.688 16.5737 144.114 16.3909 143.382 16.3909C142.65 16.3909 142.041 16.5737 141.555 16.9393C141.077 17.3048 140.802 17.8005 140.732 18.4262Z"></path><path d="M154.986 25.0909L149.22 10.3273H151.459L156.031 22.3702L160.414 10.3273H162.589L157.013 25.0909H154.986Z"></path><path d="M167.927 25.4073C166.857 25.4073 165.903 25.1577 165.065 24.6585C164.227 24.1594 163.569 23.495 163.09 22.6655C162.612 21.8359 162.372 20.9219 162.372 19.9236C162.372 19.1855 162.51 18.4859 162.784 17.8251C163.059 17.1642 163.446 16.5807 163.946 16.0745C164.446 15.5613 165.033 15.1606 165.709 14.8724C166.385 14.5841 167.124 14.44 167.927 14.44C169.004 14.44 169.961 14.6896 170.799 15.1887C171.637 15.6879 172.295 16.3522 172.774 17.1818C173.253 18.0114 173.492 18.9253 173.492 19.9236C173.492 20.6618 173.355 21.3613 173.08 22.0222C172.806 22.683 172.418 23.2665 171.919 23.7727C171.419 24.2789 170.831 24.6796 170.155 24.9749C169.479 25.2632 168.737 25.4073 167.927 25.4073ZM167.927 23.6567C168.624 23.6567 169.24 23.5056 169.775 23.2033C170.317 22.8939 170.743 22.4616 171.053 21.9062C171.362 21.3438 171.517 20.6829 171.517 19.9236C171.517 19.1573 171.362 18.4965 171.053 17.9411C170.75 17.3787 170.328 16.9463 169.785 16.644C169.243 16.3417 168.624 16.1905 167.927 16.1905C167.23 16.1905 166.61 16.3417 166.068 16.644C165.533 16.9463 165.111 17.3787 164.801 17.9411C164.498 18.4965 164.347 19.1573 164.347 19.9236C164.347 20.6829 164.498 21.3438 164.801 21.9062C165.111 22.4616 165.537 22.8939 166.079 23.2033C166.621 23.5056 167.237 23.6567 167.927 23.6567Z"></path><path d="M175.512 25.0909V14.7564H177.455V25.0909H175.512ZM176.483 12.8055C176.117 12.8055 175.8 12.6824 175.533 12.4364C175.265 12.1903 175.132 11.8775 175.132 11.4978C175.132 11.1182 175.265 10.8088 175.533 10.5698C175.8 10.3238 176.117 10.2007 176.483 10.2007C176.856 10.2007 177.173 10.3238 177.434 10.5698C177.701 10.8088 177.835 11.1182 177.835 11.4978C177.835 11.8775 177.701 12.1903 177.434 12.4364C177.173 12.6824 176.856 12.8055 176.483 12.8055Z"></path><path d="M185.079 25.4073C183.987 25.4073 183.019 25.1682 182.175 24.6902C181.33 24.2121 180.668 23.5618 180.189 22.7393C179.711 21.9097 179.471 20.9712 179.471 19.9236C179.471 19.1292 179.612 18.3981 179.894 17.7302C180.182 17.0623 180.587 16.4823 181.108 15.9902C181.629 15.4981 182.238 15.1184 182.935 14.8513C183.639 14.5771 184.406 14.44 185.237 14.44C185.913 14.44 186.536 14.5279 187.106 14.7036C187.676 14.8794 188.204 15.1501 188.69 15.5156L187.698 17.0131C187.381 16.7389 187.011 16.535 186.589 16.4015C186.166 16.2608 185.719 16.1905 185.248 16.1905C184.473 16.1905 183.801 16.3382 183.231 16.6335C182.667 16.9217 182.231 17.3435 181.921 17.8989C181.611 18.4543 181.457 19.1222 181.457 19.9025C181.457 21.0766 181.795 21.9976 182.47 22.6655C183.153 23.3263 184.075 23.6567 185.237 23.6567C185.772 23.6567 186.272 23.5618 186.737 23.372C187.201 23.1752 187.581 22.9221 187.877 22.6127L188.88 24.0891C188.338 24.4968 187.743 24.8202 187.096 25.0593C186.448 25.2913 185.776 25.4073 185.079 25.4073Z"></path><path d="M195.164 25.4073C194.066 25.4073 193.098 25.1788 192.26 24.7218C191.422 24.2648 190.768 23.6286 190.296 22.8131C189.824 21.9905 189.588 21.0344 189.588 19.9447C189.588 19.1573 189.722 18.4262 189.99 17.7513C190.264 17.0764 190.644 16.4928 191.13 16.0007C191.623 15.5086 192.197 15.1255 192.851 14.8513C193.513 14.5771 194.231 14.44 195.006 14.44C195.843 14.44 196.59 14.5876 197.244 14.8829C197.906 15.1782 198.452 15.593 198.881 16.1273C199.318 16.6545 199.631 17.2767 199.821 17.9938C200.011 18.7039 200.05 19.4772 199.937 20.3138H191.51C191.489 21.0028 191.63 21.6074 191.933 22.1276C192.235 22.6408 192.672 23.0416 193.242 23.3298C193.819 23.6181 194.502 23.7622 195.291 23.7622C195.868 23.7622 196.431 23.6708 196.98 23.488C197.529 23.3052 198.015 23.0345 198.438 22.676L199.261 24.1207C198.923 24.3949 198.522 24.6304 198.057 24.8273C197.6 25.0171 197.121 25.1612 196.621 25.2596C196.121 25.3581 195.636 25.4073 195.164 25.4073ZM191.616 18.8058H197.994C197.966 17.9341 197.695 17.2556 197.181 16.7705C196.667 16.2784 195.931 16.0324 194.974 16.0324C194.045 16.0324 193.277 16.2784 192.672 16.7705C192.066 17.2556 191.714 17.9341 191.616 18.8058Z"></path><path d="M1.06992 31.7522L3.10503 24.1676L8.66504 29.7199L1.06992 31.7522Z"></path><path fill-rule="evenodd" clip-rule="evenodd" d="M14.52 33C22.5392 33 29.0401 26.5081 29.0401 18.5C29.0401 10.4919 22.5392 4 14.52 4C6.50084 4 0 10.4919 0 18.5C0 26.5081 6.50084 33 14.52 33ZM15.84 10.5909C15.84 9.8629 15.249 9.27273 14.52 9.27273C13.791 9.27273 13.2 9.8629 13.2 10.5909V26.4091C13.2 27.1371 13.791 27.7273 14.52 27.7273C15.249 27.7273 15.84 27.1371 15.84 26.4091V10.5909ZM11.88 14.5455C11.88 13.8174 11.289 13.2273 10.56 13.2273C9.831 13.2273 9.24002 13.8174 9.24002 14.5455L9.24002 22.4545C9.24002 23.1826 9.831 23.7727 10.56 23.7727C11.289 23.7727 11.88 23.1826 11.88 22.4545V14.5455ZM18.48 13.2273C19.2091 13.2273 19.8 13.8174 19.8 14.5455L19.8 22.4545C19.8 23.1826 19.2091 23.7727 18.48 23.7727C17.751 23.7727 17.16 23.1826 17.16 22.4545L17.16 14.5455C17.16 13.8174 17.751 13.2273 18.48 13.2273ZM7.92001 17.1818C7.92001 16.4538 7.32903 15.8636 6.60001 15.8636C5.87099 15.8636 5.28001 16.4538 5.28001 17.1818V19.8182C5.28001 20.5462 5.871 21.1364 6.60001 21.1364C7.32903 21.1364 7.92002 20.5462 7.92001 19.8182V17.1818ZM22.44 15.8636C23.1691 15.8636 23.76 16.4538 23.76 17.1818V19.8182C23.76 20.5462 23.1691 21.1364 22.44 21.1364C21.711 21.1364 21.12 20.5462 21.12 19.8182V17.1818C21.12 16.4538 21.711 15.8636 22.44 15.8636Z"></path></mask><path d="M36.1258 25.0909V10.3273H41.9866C43.0567 10.3273 43.9895 10.5065 44.785 10.8651C45.5876 11.2166 46.2036 11.7263 46.633 12.3942C47.0695 13.0621 47.2878 13.86 47.2878 14.788C47.2878 15.5192 47.1434 16.1624 46.8548 16.7178C46.5662 17.2662 46.1684 17.7232 45.6615 18.0887C45.1617 18.4543 44.5844 18.7179 43.9297 18.8796L48.0692 25.0909H44.3415L40.7828 19.4807H39.2516V25.0909H36.1258ZM39.2516 16.9604H41.5748C42.3774 16.9604 43.0039 16.7987 43.4545 16.4753C43.9121 16.1448 44.1409 15.6457 44.1409 14.9778C44.1409 14.2888 43.9297 13.7721 43.5073 13.4276C43.0919 13.0832 42.483 12.9109 41.6804 12.9109H39.2516V16.9604Z" fill="white"></path><path d="M54.7365 25.4073C53.5749 25.4073 52.5541 25.1718 51.6741 24.7007C50.7941 24.2297 50.1077 23.5724 49.6149 22.7287C49.1221 21.8851 48.8757 20.8973 48.8757 19.7655C48.8757 18.9429 49.0165 18.1872 49.2981 17.4982C49.5868 16.8092 49.9881 16.2152 50.502 15.716C51.0229 15.2098 51.6319 14.8196 52.3289 14.5455C53.0329 14.2642 53.8037 14.1236 54.6415 14.1236C55.5637 14.1236 56.3804 14.2853 57.0914 14.6087C57.8095 14.9321 58.4044 15.3856 58.8761 15.9691C59.3478 16.5456 59.6751 17.224 59.8582 18.0044C60.0482 18.7847 60.0658 19.6319 59.911 20.5458H51.7375C51.7375 21.0379 51.8642 21.4668 52.1177 21.8324C52.3781 22.1979 52.7407 22.4862 53.2053 22.6971C53.677 22.901 54.2261 23.0029 54.8527 23.0029C55.4722 23.0029 56.0636 22.9185 56.6268 22.7498C57.19 22.5811 57.7215 22.3245 58.2214 21.98L59.2457 24.0891C58.9077 24.3492 58.4853 24.5812 57.9785 24.7851C57.4716 24.9819 56.933 25.1331 56.3628 25.2385C55.7996 25.351 55.2575 25.4073 54.7365 25.4073ZM51.917 18.4262H56.9541C56.933 17.8005 56.7113 17.3048 56.2889 16.9393C55.8735 16.5737 55.2997 16.3909 54.5676 16.3909C53.8354 16.3909 53.2265 16.5737 52.7407 16.9393C52.262 17.3048 51.9874 17.8005 51.917 18.4262Z" fill="white"></path><path d="M65.5904 25.3967C64.64 25.3967 63.7635 25.2737 62.961 25.0276C62.1584 24.7745 61.472 24.4301 60.9018 23.9942L61.905 21.8429C62.4611 22.2225 63.0631 22.5213 63.7107 22.7393C64.3584 22.9502 64.9815 23.0556 65.5799 23.0556C66.1712 23.0556 66.6253 22.9678 66.9421 22.792C67.266 22.6092 67.4279 22.3491 67.4279 22.0116C67.4279 21.7093 67.2835 21.4879 66.9949 21.3473C66.7133 21.1996 66.1642 21.0415 65.3475 20.8727C63.9395 20.6196 62.9117 20.2224 62.264 19.6811C61.6163 19.1327 61.2925 18.3805 61.2925 17.4244C61.2925 16.7495 61.4791 16.1554 61.8522 15.6422C62.2323 15.129 62.7533 14.7318 63.4151 14.4505C64.0768 14.1623 64.8371 14.0182 65.696 14.0182C66.5408 14.0182 67.3363 14.1342 68.0826 14.3662C68.8359 14.5912 69.48 14.9075 70.0151 15.3153L69.0436 17.4771C68.762 17.2521 68.4381 17.0553 68.072 16.8865C67.713 16.7178 67.3328 16.5878 66.9316 16.4964C66.5373 16.3979 66.1501 16.3487 65.7699 16.3487C65.256 16.3487 64.8407 16.4366 64.5239 16.6124C64.2071 16.7811 64.0487 17.0201 64.0487 17.3295C64.0487 17.6388 64.193 17.8673 64.4816 18.0149C64.7703 18.1625 65.3088 18.3242 66.0973 18.5C67.5687 18.8093 68.6141 19.2206 69.2336 19.7338C69.8602 20.24 70.1735 20.9536 70.1735 21.8745C70.1735 22.5846 69.9799 23.2033 69.5927 23.7305C69.2125 24.2578 68.6775 24.6691 67.9876 24.9644C67.3047 25.2526 66.5056 25.3967 65.5904 25.3967Z" fill="white"></path><path d="M72.1312 29.52V14.44H74.8134V15.7476C75.2218 15.2625 75.7392 14.8724 76.3658 14.5771C76.9994 14.2748 77.7491 14.1236 78.6151 14.1236C79.6429 14.1236 80.5581 14.3627 81.3607 14.8407C82.1632 15.3118 82.7933 15.9726 83.2509 16.8233C83.7085 17.6739 83.9373 18.6547 83.9373 19.7655C83.9373 20.5599 83.8035 21.2981 83.536 21.98C83.2755 22.6619 82.9059 23.2595 82.4272 23.7727C81.9485 24.2859 81.3818 24.6867 80.7271 24.9749C80.0723 25.2632 79.3507 25.4073 78.5623 25.4073C77.8653 25.4073 77.2352 25.2913 76.672 25.0593C76.1159 24.8273 75.6266 24.5004 75.2042 24.0785V29.52H72.1312ZM78.0448 22.7393C78.5939 22.7393 79.0832 22.6198 79.5127 22.3807C79.9491 22.1347 80.2871 21.7902 80.5264 21.3473C80.7728 20.9044 80.896 20.3771 80.896 19.7655C80.896 19.1538 80.7728 18.6265 80.5264 18.1836C80.28 17.7407 79.9421 17.3998 79.5127 17.1607C79.0832 16.9147 78.5939 16.7916 78.0448 16.7916C77.5027 16.7916 77.017 16.9147 76.5875 17.1607C76.1581 17.3998 75.8202 17.7407 75.5738 18.1836C75.3274 18.6265 75.2042 19.1538 75.2042 19.7655C75.2042 20.3771 75.3239 20.9044 75.5632 21.3473C75.8096 21.7902 76.1475 22.1347 76.577 22.3807C77.0064 22.6198 77.4957 22.7393 78.0448 22.7393Z" fill="white"></path><path d="M90.7498 25.4073C89.6023 25.4073 88.585 25.1507 87.698 24.6375C86.811 24.1242 86.114 23.4423 85.6071 22.5916C85.1073 21.7339 84.8573 20.7919 84.8573 19.7655C84.8573 19.0132 85.0017 18.2996 85.2903 17.6247C85.579 16.9428 85.9873 16.3417 86.5153 15.8215C87.0433 15.2942 87.6663 14.8794 88.3844 14.5771C89.1025 14.2748 89.891 14.1236 90.7498 14.1236C91.8974 14.1236 92.9111 14.3802 93.7911 14.8935C94.6782 15.4067 95.3716 16.0921 95.8715 16.9498C96.3783 17.8005 96.6318 18.739 96.6318 19.7655C96.6318 20.5107 96.4875 21.2242 96.1988 21.9062C95.9102 22.5881 95.5018 23.1927 94.9738 23.72C94.4529 24.2402 93.8334 24.6515 93.1153 24.9538C92.3972 25.2561 91.6087 25.4073 90.7498 25.4073ZM90.7498 22.7393C91.2919 22.7393 91.7777 22.6198 92.2071 22.3807C92.6366 22.1347 92.9745 21.7902 93.2209 21.3473C93.4673 20.8973 93.5905 20.3701 93.5905 19.7655C93.5905 19.1538 93.4673 18.6265 93.2209 18.1836C92.9815 17.7407 92.6471 17.3998 92.2177 17.1607C91.7882 16.9147 91.299 16.7916 90.7498 16.7916C90.2007 16.7916 89.7079 16.9147 89.2714 17.1607C88.842 17.3998 88.5041 17.7407 88.2577 18.1836C88.0183 18.6265 87.8986 19.1538 87.8986 19.7655C87.8986 20.3771 88.0218 20.9044 88.2682 21.3473C88.5146 21.7902 88.8526 22.1347 89.282 22.3807C89.7114 22.6198 90.2007 22.7393 90.7498 22.7393Z" fill="white"></path><path d="M98.3258 25.0909V14.44H101.409V15.6422C101.818 15.1079 102.3 14.7212 102.856 14.4822C103.419 14.2432 104.007 14.1236 104.62 14.1236C105.612 14.1236 106.429 14.3205 107.07 14.7142C107.717 15.1008 108.196 15.6035 108.506 16.2222C108.822 16.8408 108.981 17.4912 108.981 18.1731V25.0909H105.897V19.1327C105.897 18.4578 105.707 17.92 105.327 17.5193C104.954 17.1185 104.412 16.9182 103.701 16.9182C103.25 16.9182 102.853 17.0201 102.508 17.224C102.163 17.4208 101.892 17.6985 101.694 18.0571C101.504 18.4156 101.409 18.8304 101.409 19.3015V25.0909H98.3258Z" fill="white"></path><path d="M115.319 25.3967C114.369 25.3967 113.492 25.2737 112.69 25.0276C111.887 24.7745 111.201 24.4301 110.63 23.9942L111.634 21.8429C112.19 22.2225 112.792 22.5213 113.439 22.7393C114.087 22.9502 114.71 23.0556 115.308 23.0556C115.9 23.0556 116.354 22.9678 116.671 22.792C116.995 22.6092 117.156 22.3491 117.156 22.0116C117.156 21.7093 117.012 21.4879 116.724 21.3473C116.442 21.1996 115.893 21.0415 115.076 20.8727C113.668 20.6196 112.64 20.2224 111.993 19.6811C111.345 19.1327 111.021 18.3805 111.021 17.4244C111.021 16.7495 111.208 16.1554 111.581 15.6422C111.961 15.129 112.482 14.7318 113.144 14.4505C113.805 14.1623 114.566 14.0182 115.425 14.0182C116.269 14.0182 117.065 14.1342 117.811 14.3662C118.564 14.5912 119.209 14.9075 119.744 15.3153L118.772 17.4771C118.491 17.2521 118.167 17.0553 117.801 16.8865C117.442 16.7178 117.061 16.5878 116.66 16.4964C116.266 16.3979 115.879 16.3487 115.499 16.3487C114.985 16.3487 114.569 16.4366 114.252 16.6124C113.936 16.7811 113.777 17.0201 113.777 17.3295C113.777 17.6388 113.922 17.8673 114.21 18.0149C114.499 18.1625 115.037 18.3242 115.826 18.5C117.297 18.8093 118.343 19.2206 118.962 19.7338C119.589 20.24 119.902 20.9536 119.902 21.8745C119.902 22.5846 119.708 23.2033 119.321 23.7305C118.941 24.2578 118.406 24.6691 117.716 24.9644C117.033 25.2526 116.234 25.3967 115.319 25.3967Z" fill="white"></path><path d="M121.86 25.0909V14.44H124.943V25.0909H121.86ZM123.402 12.7527C122.888 12.7527 122.444 12.5945 122.071 12.2782C121.698 11.9548 121.511 11.5259 121.511 10.9916C121.511 10.4503 121.698 10.0215 122.071 9.70509C122.444 9.3817 122.888 9.22 123.402 9.22C123.916 9.22 124.359 9.3817 124.732 9.70509C125.105 10.0215 125.292 10.4503 125.292 10.9916C125.292 11.5259 125.105 11.9548 124.732 12.2782C124.359 12.5945 123.916 12.7527 123.402 12.7527Z" fill="white"></path><path d="M130.077 25.0909L126.233 14.44H129.56L132.052 22.4335H131.682L134.122 14.44H137.374L133.647 25.0909H130.077Z" fill="white"></path><path d="M143.551 25.4073C142.39 25.4073 141.369 25.1718 140.489 24.7007C139.609 24.2297 138.922 23.5724 138.43 22.7287C137.937 21.8851 137.69 20.8973 137.69 19.7655C137.69 18.9429 137.831 18.1872 138.113 17.4982C138.401 16.8092 138.803 16.2152 139.317 15.716C139.838 15.2098 140.447 14.8196 141.144 14.5455C141.848 14.2642 142.618 14.1236 143.456 14.1236C144.378 14.1236 145.195 14.2853 145.906 14.6087C146.624 14.9321 147.219 15.3856 147.691 15.9691C148.162 16.5456 148.49 17.224 148.673 18.0044C148.863 18.7847 148.881 19.6319 148.726 20.5458H140.552C140.552 21.0379 140.679 21.4668 140.932 21.8324C141.193 22.1979 141.555 22.4862 142.02 22.6971C142.492 22.901 143.041 23.0029 143.667 23.0029C144.287 23.0029 144.878 22.9185 145.442 22.7498C146.005 22.5811 146.536 22.3245 147.036 21.98L148.06 24.0891C147.722 24.3492 147.3 24.5812 146.793 24.7851C146.286 24.9819 145.748 25.1331 145.177 25.2385C144.614 25.351 144.072 25.4073 143.551 25.4073ZM140.732 18.4262H145.769C145.748 17.8005 145.526 17.3048 145.104 16.9393C144.688 16.5737 144.114 16.3909 143.382 16.3909C142.65 16.3909 142.041 16.5737 141.555 16.9393C141.077 17.3048 140.802 17.8005 140.732 18.4262Z" fill="white"></path><path d="M154.986 25.0909L149.22 10.3273H151.459L156.031 22.3702L160.414 10.3273H162.589L157.013 25.0909H154.986Z" fill="white"></path><path d="M167.927 25.4073C166.857 25.4073 165.903 25.1577 165.065 24.6585C164.227 24.1594 163.569 23.495 163.09 22.6655C162.612 21.8359 162.372 20.9219 162.372 19.9236C162.372 19.1855 162.51 18.4859 162.784 17.8251C163.059 17.1642 163.446 16.5807 163.946 16.0745C164.446 15.5613 165.033 15.1606 165.709 14.8724C166.385 14.5841 167.124 14.44 167.927 14.44C169.004 14.44 169.961 14.6896 170.799 15.1887C171.637 15.6879 172.295 16.3522 172.774 17.1818C173.253 18.0114 173.492 18.9253 173.492 19.9236C173.492 20.6618 173.355 21.3613 173.08 22.0222C172.806 22.683 172.418 23.2665 171.919 23.7727C171.419 24.2789 170.831 24.6796 170.155 24.9749C169.479 25.2632 168.737 25.4073 167.927 25.4073ZM167.927 23.6567C168.624 23.6567 169.24 23.5056 169.775 23.2033C170.317 22.8939 170.743 22.4616 171.053 21.9062C171.362 21.3438 171.517 20.6829 171.517 19.9236C171.517 19.1573 171.362 18.4965 171.053 17.9411C170.75 17.3787 170.328 16.9463 169.785 16.644C169.243 16.3417 168.624 16.1905 167.927 16.1905C167.23 16.1905 166.61 16.3417 166.068 16.644C165.533 16.9463 165.111 17.3787 164.801 17.9411C164.498 18.4965 164.347 19.1573 164.347 19.9236C164.347 20.6829 164.498 21.3438 164.801 21.9062C165.111 22.4616 165.537 22.8939 166.079 23.2033C166.621 23.5056 167.237 23.6567 167.927 23.6567Z" fill="white"></path><path d="M175.512 25.0909V14.7564H177.455V25.0909H175.512ZM176.483 12.8055C176.117 12.8055 175.8 12.6824 175.533 12.4364C175.265 12.1903 175.132 11.8775 175.132 11.4978C175.132 11.1182 175.265 10.8088 175.533 10.5698C175.8 10.3238 176.117 10.2007 176.483 10.2007C176.856 10.2007 177.173 10.3238 177.434 10.5698C177.701 10.8088 177.835 11.1182 177.835 11.4978C177.835 11.8775 177.701 12.1903 177.434 12.4364C177.173 12.6824 176.856 12.8055 176.483 12.8055Z" fill="white"></path><path d="M185.079 25.4073C183.987 25.4073 183.019 25.1682 182.175 24.6902C181.33 24.2121 180.668 23.5618 180.189 22.7393C179.711 21.9097 179.471 20.9712 179.471 19.9236C179.471 19.1292 179.612 18.3981 179.894 17.7302C180.182 17.0623 180.587 16.4823 181.108 15.9902C181.629 15.4981 182.238 15.1184 182.935 14.8513C183.639 14.5771 184.406 14.44 185.237 14.44C185.913 14.44 186.536 14.5279 187.106 14.7036C187.676 14.8794 188.204 15.1501 188.69 15.5156L187.698 17.0131C187.381 16.7389 187.011 16.535 186.589 16.4015C186.166 16.2608 185.719 16.1905 185.248 16.1905C184.473 16.1905 183.801 16.3382 183.231 16.6335C182.667 16.9217 182.231 17.3435 181.921 17.8989C181.611 18.4543 181.457 19.1222 181.457 19.9025C181.457 21.0766 181.795 21.9976 182.47 22.6655C183.153 23.3263 184.075 23.6567 185.237 23.6567C185.772 23.6567 186.272 23.5618 186.737 23.372C187.201 23.1752 187.581 22.9221 187.877 22.6127L188.88 24.0891C188.338 24.4968 187.743 24.8202 187.096 25.0593C186.448 25.2913 185.776 25.4073 185.079 25.4073Z" fill="white"></path><path d="M195.164 25.4073C194.066 25.4073 193.098 25.1788 192.26 24.7218C191.422 24.2648 190.768 23.6286 190.296 22.8131C189.824 21.9905 189.588 21.0344 189.588 19.9447C189.588 19.1573 189.722 18.4262 189.99 17.7513C190.264 17.0764 190.644 16.4928 191.13 16.0007C191.623 15.5086 192.197 15.1255 192.851 14.8513C193.513 14.5771 194.231 14.44 195.006 14.44C195.843 14.44 196.59 14.5876 197.244 14.8829C197.906 15.1782 198.452 15.593 198.881 16.1273C199.318 16.6545 199.631 17.2767 199.821 17.9938C200.011 18.7039 200.05 19.4772 199.937 20.3138H191.51C191.489 21.0028 191.63 21.6074 191.933 22.1276C192.235 22.6408 192.672 23.0416 193.242 23.3298C193.819 23.6181 194.502 23.7622 195.291 23.7622C195.868 23.7622 196.431 23.6708 196.98 23.488C197.529 23.3052 198.015 23.0345 198.438 22.676L199.261 24.1207C198.923 24.3949 198.522 24.6304 198.057 24.8273C197.6 25.0171 197.121 25.1612 196.621 25.2596C196.121 25.3581 195.636 25.4073 195.164 25.4073ZM191.616 18.8058H197.994C197.966 17.9341 197.695 17.2556 197.181 16.7705C196.667 16.2784 195.931 16.0324 194.974 16.0324C194.045 16.0324 193.277 16.2784 192.672 16.7705C192.066 17.2556 191.714 17.9341 191.616 18.8058Z" fill="white"></path><path d="M1.06992 31.7522L3.10503 24.1676L8.66504 29.7199L1.06992 31.7522Z" fill="white"></path><path fill-rule="evenodd" clip-rule="evenodd" d="M14.52 33C22.5392 33 29.0401 26.5081 29.0401 18.5C29.0401 10.4919 22.5392 4 14.52 4C6.50084 4 0 10.4919 0 18.5C0 26.5081 6.50084 33 14.52 33ZM15.84 10.5909C15.84 9.8629 15.249 9.27273 14.52 9.27273C13.791 9.27273 13.2 9.8629 13.2 10.5909V26.4091C13.2 27.1371 13.791 27.7273 14.52 27.7273C15.249 27.7273 15.84 27.1371 15.84 26.4091V10.5909ZM11.88 14.5455C11.88 13.8174 11.289 13.2273 10.56 13.2273C9.831 13.2273 9.24002 13.8174 9.24002 14.5455L9.24002 22.4545C9.24002 23.1826 9.831 23.7727 10.56 23.7727C11.289 23.7727 11.88 23.1826 11.88 22.4545V14.5455ZM18.48 13.2273C19.2091 13.2273 19.8 13.8174 19.8 14.5455L19.8 22.4545C19.8 23.1826 19.2091 23.7727 18.48 23.7727C17.751 23.7727 17.16 23.1826 17.16 22.4545L17.16 14.5455C17.16 13.8174 17.751 13.2273 18.48 13.2273ZM7.92001 17.1818C7.92001 16.4538 7.32903 15.8636 6.60001 15.8636C5.87099 15.8636 5.28001 16.4538 5.28001 17.1818V19.8182C5.28001 20.5462 5.871 21.1364 6.60001 21.1364C7.32903 21.1364 7.92002 20.5462 7.92001 19.8182V17.1818ZM22.44 15.8636C23.1691 15.8636 23.76 16.4538 23.76 17.1818V19.8182C23.76 20.5462 23.1691 21.1364 22.44 21.1364C21.711 21.1364 21.12 20.5462 21.12 19.8182V17.1818C21.12 16.4538 21.711 15.8636 22.44 15.8636Z" fill="white"></path><path d="M36.1258 25.0909V10.3273H41.9866C43.0567 10.3273 43.9895 10.5065 44.785 10.8651C45.5876 11.2166 46.2036 11.7263 46.633 12.3942C47.0695 13.0621 47.2878 13.86 47.2878 14.788C47.2878 15.5192 47.1434 16.1624 46.8548 16.7178C46.5662 17.2662 46.1684 17.7232 45.6615 18.0887C45.1617 18.4543 44.5844 18.7179 43.9297 18.8796L48.0692 25.0909H44.3415L40.7828 19.4807H39.2516V25.0909H36.1258ZM39.2516 16.9604H41.5748C42.3774 16.9604 43.0039 16.7987 43.4545 16.4753C43.9121 16.1448 44.1409 15.6457 44.1409 14.9778C44.1409 14.2888 43.9297 13.7721 43.5073 13.4276C43.0919 13.0832 42.483 12.9109 41.6804 12.9109H39.2516V16.9604Z" stroke="white" stroke-width="4" mask="url(#path-1-inside-1_2101_460)"></path><path d="M54.7365 25.4073C53.5749 25.4073 52.5541 25.1718 51.6741 24.7007C50.7941 24.2297 50.1077 23.5724 49.6149 22.7287C49.1221 21.8851 48.8757 20.8973 48.8757 19.7655C48.8757 18.9429 49.0165 18.1872 49.2981 17.4982C49.5868 16.8092 49.9881 16.2152 50.502 15.716C51.0229 15.2098 51.6319 14.8196 52.3289 14.5455C53.0329 14.2642 53.8037 14.1236 54.6415 14.1236C55.5637 14.1236 56.3804 14.2853 57.0914 14.6087C57.8095 14.9321 58.4044 15.3856 58.8761 15.9691C59.3478 16.5456 59.6751 17.224 59.8582 18.0044C60.0482 18.7847 60.0658 19.6319 59.911 20.5458H51.7375C51.7375 21.0379 51.8642 21.4668 52.1177 21.8324C52.3781 22.1979 52.7407 22.4862 53.2053 22.6971C53.677 22.901 54.2261 23.0029 54.8527 23.0029C55.4722 23.0029 56.0636 22.9185 56.6268 22.7498C57.19 22.5811 57.7215 22.3245 58.2214 21.98L59.2457 24.0891C58.9077 24.3492 58.4853 24.5812 57.9785 24.7851C57.4716 24.9819 56.933 25.1331 56.3628 25.2385C55.7996 25.351 55.2575 25.4073 54.7365 25.4073ZM51.917 18.4262H56.9541C56.933 17.8005 56.7113 17.3048 56.2889 16.9393C55.8735 16.5737 55.2997 16.3909 54.5676 16.3909C53.8354 16.3909 53.2265 16.5737 52.7407 16.9393C52.262 17.3048 51.9874 17.8005 51.917 18.4262Z" stroke="white" stroke-width="4" mask="url(#path-1-inside-1_2101_460)"></path><path d="M65.5904 25.3967C64.64 25.3967 63.7635 25.2737 62.961 25.0276C62.1584 24.7745 61.472 24.4301 60.9018 23.9942L61.905 21.8429C62.4611 22.2225 63.0631 22.5213 63.7107 22.7393C64.3584 22.9502 64.9815 23.0556 65.5799 23.0556C66.1712 23.0556 66.6253 22.9678 66.9421 22.792C67.266 22.6092 67.4279 22.3491 67.4279 22.0116C67.4279 21.7093 67.2835 21.4879 66.9949 21.3473C66.7133 21.1996 66.1642 21.0415 65.3475 20.8727C63.9395 20.6196 62.9117 20.2224 62.264 19.6811C61.6163 19.1327 61.2925 18.3805 61.2925 17.4244C61.2925 16.7495 61.4791 16.1554 61.8522 15.6422C62.2323 15.129 62.7533 14.7318 63.4151 14.4505C64.0768 14.1623 64.8371 14.0182 65.696 14.0182C66.5408 14.0182 67.3363 14.1342 68.0826 14.3662C68.8359 14.5912 69.48 14.9075 70.0151 15.3153L69.0436 17.4771C68.762 17.2521 68.4381 17.0553 68.072 16.8865C67.713 16.7178 67.3328 16.5878 66.9316 16.4964C66.5373 16.3979 66.1501 16.3487 65.7699 16.3487C65.256 16.3487 64.8407 16.4366 64.5239 16.6124C64.2071 16.7811 64.0487 17.0201 64.0487 17.3295C64.0487 17.6388 64.193 17.8673 64.4816 18.0149C64.7703 18.1625 65.3088 18.3242 66.0973 18.5C67.5687 18.8093 68.6141 19.2206 69.2336 19.7338C69.8602 20.24 70.1735 20.9536 70.1735 21.8745C70.1735 22.5846 69.9799 23.2033 69.5927 23.7305C69.2125 24.2578 68.6775 24.6691 67.9876 24.9644C67.3047 25.2526 66.5056 25.3967 65.5904 25.3967Z" stroke="white" stroke-width="4" mask="url(#path-1-inside-1_2101_460)"></path><path d="M72.1312 29.52V14.44H74.8134V15.7476C75.2218 15.2625 75.7392 14.8724 76.3658 14.5771C76.9994 14.2748 77.7491 14.1236 78.6151 14.1236C79.6429 14.1236 80.5581 14.3627 81.3607 14.8407C82.1632 15.3118 82.7933 15.9726 83.2509 16.8233C83.7085 17.6739 83.9373 18.6547 83.9373 19.7655C83.9373 20.5599 83.8035 21.2981 83.536 21.98C83.2755 22.6619 82.9059 23.2595 82.4272 23.7727C81.9485 24.2859 81.3818 24.6867 80.7271 24.9749C80.0723 25.2632 79.3507 25.4073 78.5623 25.4073C77.8653 25.4073 77.2352 25.2913 76.672 25.0593C76.1159 24.8273 75.6266 24.5004 75.2042 24.0785V29.52H72.1312ZM78.0448 22.7393C78.5939 22.7393 79.0832 22.6198 79.5127 22.3807C79.9491 22.1347 80.2871 21.7902 80.5264 21.3473C80.7728 20.9044 80.896 20.3771 80.896 19.7655C80.896 19.1538 80.7728 18.6265 80.5264 18.1836C80.28 17.7407 79.9421 17.3998 79.5127 17.1607C79.0832 16.9147 78.5939 16.7916 78.0448 16.7916C77.5027 16.7916 77.017 16.9147 76.5875 17.1607C76.1581 17.3998 75.8202 17.7407 75.5738 18.1836C75.3274 18.6265 75.2042 19.1538 75.2042 19.7655C75.2042 20.3771 75.3239 20.9044 75.5632 21.3473C75.8096 21.7902 76.1475 22.1347 76.577 22.3807C77.0064 22.6198 77.4957 22.7393 78.0448 22.7393Z" stroke="white" stroke-width="4" mask="url(#path-1-inside-1_2101_460)"></path><path d="M90.7498 25.4073C89.6023 25.4073 88.585 25.1507 87.698 24.6375C86.811 24.1242 86.114 23.4423 85.6071 22.5916C85.1073 21.7339 84.8573 20.7919 84.8573 19.7655C84.8573 19.0132 85.0017 18.2996 85.2903 17.6247C85.579 16.9428 85.9873 16.3417 86.5153 15.8215C87.0433 15.2942 87.6663 14.8794 88.3844 14.5771C89.1025 14.2748 89.891 14.1236 90.7498 14.1236C91.8974 14.1236 92.9111 14.3802 93.7911 14.8935C94.6782 15.4067 95.3716 16.0921 95.8715 16.9498C96.3783 17.8005 96.6318 18.739 96.6318 19.7655C96.6318 20.5107 96.4875 21.2242 96.1988 21.9062C95.9102 22.5881 95.5018 23.1927 94.9738 23.72C94.4529 24.2402 93.8334 24.6515 93.1153 24.9538C92.3972 25.2561 91.6087 25.4073 90.7498 25.4073ZM90.7498 22.7393C91.2919 22.7393 91.7777 22.6198 92.2071 22.3807C92.6366 22.1347 92.9745 21.7902 93.2209 21.3473C93.4673 20.8973 93.5905 20.3701 93.5905 19.7655C93.5905 19.1538 93.4673 18.6265 93.2209 18.1836C92.9815 17.7407 92.6471 17.3998 92.2177 17.1607C91.7882 16.9147 91.299 16.7916 90.7498 16.7916C90.2007 16.7916 89.7079 16.9147 89.2714 17.1607C88.842 17.3998 88.5041 17.7407 88.2577 18.1836C88.0183 18.6265 87.8986 19.1538 87.8986 19.7655C87.8986 20.3771 88.0218 20.9044 88.2682 21.3473C88.5146 21.7902 88.8526 22.1347 89.282 22.3807C89.7114 22.6198 90.2007 22.7393 90.7498 22.7393Z" stroke="white" stroke-width="4" mask="url(#path-1-inside-1_2101_460)"></path><path d="M98.3258 25.0909V14.44H101.409V15.6422C101.818 15.1079 102.3 14.7212 102.856 14.4822C103.419 14.2432 104.007 14.1236 104.62 14.1236C105.612 14.1236 106.429 14.3205 107.07 14.7142C107.717 15.1008 108.196 15.6035 108.506 16.2222C108.822 16.8408 108.981 17.4912 108.981 18.1731V25.0909H105.897V19.1327C105.897 18.4578 105.707 17.92 105.327 17.5193C104.954 17.1185 104.412 16.9182 103.701 16.9182C103.25 16.9182 102.853 17.0201 102.508 17.224C102.163 17.4208 101.892 17.6985 101.694 18.0571C101.504 18.4156 101.409 18.8304 101.409 19.3015V25.0909H98.3258Z" stroke="white" stroke-width="4" mask="url(#path-1-inside-1_2101_460)"></path><path d="M115.319 25.3967C114.369 25.3967 113.492 25.2737 112.69 25.0276C111.887 24.7745 111.201 24.4301 110.63 23.9942L111.634 21.8429C112.19 22.2225 112.792 22.5213 113.439 22.7393C114.087 22.9502 114.71 23.0556 115.308 23.0556C115.9 23.0556 116.354 22.9678 116.671 22.792C116.995 22.6092 117.156 22.3491 117.156 22.0116C117.156 21.7093 117.012 21.4879 116.724 21.3473C116.442 21.1996 115.893 21.0415 115.076 20.8727C113.668 20.6196 112.64 20.2224 111.993 19.6811C111.345 19.1327 111.021 18.3805 111.021 17.4244C111.021 16.7495 111.208 16.1554 111.581 15.6422C111.961 15.129 112.482 14.7318 113.144 14.4505C113.805 14.1623 114.566 14.0182 115.425 14.0182C116.269 14.0182 117.065 14.1342 117.811 14.3662C118.564 14.5912 119.209 14.9075 119.744 15.3153L118.772 17.4771C118.491 17.2521 118.167 17.0553 117.801 16.8865C117.442 16.7178 117.061 16.5878 116.66 16.4964C116.266 16.3979 115.879 16.3487 115.499 16.3487C114.985 16.3487 114.569 16.4366 114.252 16.6124C113.936 16.7811 113.777 17.0201 113.777 17.3295C113.777 17.6388 113.922 17.8673 114.21 18.0149C114.499 18.1625 115.037 18.3242 115.826 18.5C117.297 18.8093 118.343 19.2206 118.962 19.7338C119.589 20.24 119.902 20.9536 119.902 21.8745C119.902 22.5846 119.708 23.2033 119.321 23.7305C118.941 24.2578 118.406 24.6691 117.716 24.9644C117.033 25.2526 116.234 25.3967 115.319 25.3967Z" stroke="white" stroke-width="4" mask="url(#path-1-inside-1_2101_460)"></path><path d="M121.86 25.0909V14.44H124.943V25.0909H121.86ZM123.402 12.7527C122.888 12.7527 122.444 12.5945 122.071 12.2782C121.698 11.9548 121.511 11.5259 121.511 10.9916C121.511 10.4503 121.698 10.0215 122.071 9.70509C122.444 9.3817 122.888 9.22 123.402 9.22C123.916 9.22 124.359 9.3817 124.732 9.70509C125.105 10.0215 125.292 10.4503 125.292 10.9916C125.292 11.5259 125.105 11.9548 124.732 12.2782C124.359 12.5945 123.916 12.7527 123.402 12.7527Z" stroke="white" stroke-width="4" mask="url(#path-1-inside-1_2101_460)"></path><path d="M130.077 25.0909L126.233 14.44H129.56L132.052 22.4335H131.682L134.122 14.44H137.374L133.647 25.0909H130.077Z" stroke="white" stroke-width="4" mask="url(#path-1-inside-1_2101_460)"></path><path d="M143.551 25.4073C142.39 25.4073 141.369 25.1718 140.489 24.7007C139.609 24.2297 138.922 23.5724 138.43 22.7287C137.937 21.8851 137.69 20.8973 137.69 19.7655C137.69 18.9429 137.831 18.1872 138.113 17.4982C138.401 16.8092 138.803 16.2152 139.317 15.716C139.838 15.2098 140.447 14.8196 141.144 14.5455C141.848 14.2642 142.618 14.1236 143.456 14.1236C144.378 14.1236 145.195 14.2853 145.906 14.6087C146.624 14.9321 147.219 15.3856 147.691 15.9691C148.162 16.5456 148.49 17.224 148.673 18.0044C148.863 18.7847 148.881 19.6319 148.726 20.5458H140.552C140.552 21.0379 140.679 21.4668 140.932 21.8324C141.193 22.1979 141.555 22.4862 142.02 22.6971C142.492 22.901 143.041 23.0029 143.667 23.0029C144.287 23.0029 144.878 22.9185 145.442 22.7498C146.005 22.5811 146.536 22.3245 147.036 21.98L148.06 24.0891C147.722 24.3492 147.3 24.5812 146.793 24.7851C146.286 24.9819 145.748 25.1331 145.177 25.2385C144.614 25.351 144.072 25.4073 143.551 25.4073ZM140.732 18.4262H145.769C145.748 17.8005 145.526 17.3048 145.104 16.9393C144.688 16.5737 144.114 16.3909 143.382 16.3909C142.65 16.3909 142.041 16.5737 141.555 16.9393C141.077 17.3048 140.802 17.8005 140.732 18.4262Z" stroke="white" stroke-width="4" mask="url(#path-1-inside-1_2101_460)"></path><path d="M154.986 25.0909L149.22 10.3273H151.459L156.031 22.3702L160.414 10.3273H162.589L157.013 25.0909H154.986Z" stroke="white" stroke-width="4" mask="url(#path-1-inside-1_2101_460)"></path><path d="M167.927 25.4073C166.857 25.4073 165.903 25.1577 165.065 24.6585C164.227 24.1594 163.569 23.495 163.09 22.6655C162.612 21.8359 162.372 20.9219 162.372 19.9236C162.372 19.1855 162.51 18.4859 162.784 17.8251C163.059 17.1642 163.446 16.5807 163.946 16.0745C164.446 15.5613 165.033 15.1606 165.709 14.8724C166.385 14.5841 167.124 14.44 167.927 14.44C169.004 14.44 169.961 14.6896 170.799 15.1887C171.637 15.6879 172.295 16.3522 172.774 17.1818C173.253 18.0114 173.492 18.9253 173.492 19.9236C173.492 20.6618 173.355 21.3613 173.08 22.0222C172.806 22.683 172.418 23.2665 171.919 23.7727C171.419 24.2789 170.831 24.6796 170.155 24.9749C169.479 25.2632 168.737 25.4073 167.927 25.4073ZM167.927 23.6567C168.624 23.6567 169.24 23.5056 169.775 23.2033C170.317 22.8939 170.743 22.4616 171.053 21.9062C171.362 21.3438 171.517 20.6829 171.517 19.9236C171.517 19.1573 171.362 18.4965 171.053 17.9411C170.75 17.3787 170.328 16.9463 169.785 16.644C169.243 16.3417 168.624 16.1905 167.927 16.1905C167.23 16.1905 166.61 16.3417 166.068 16.644C165.533 16.9463 165.111 17.3787 164.801 17.9411C164.498 18.4965 164.347 19.1573 164.347 19.9236C164.347 20.6829 164.498 21.3438 164.801 21.9062C165.111 22.4616 165.537 22.8939 166.079 23.2033C166.621 23.5056 167.237 23.6567 167.927 23.6567Z" stroke="white" stroke-width="4" mask="url(#path-1-inside-1_2101_460)"></path><path d="M175.512 25.0909V14.7564H177.455V25.0909H175.512ZM176.483 12.8055C176.117 12.8055 175.8 12.6824 175.533 12.4364C175.265 12.1903 175.132 11.8775 175.132 11.4978C175.132 11.1182 175.265 10.8088 175.533 10.5698C175.8 10.3238 176.117 10.2007 176.483 10.2007C176.856 10.2007 177.173 10.3238 177.434 10.5698C177.701 10.8088 177.835 11.1182 177.835 11.4978C177.835 11.8775 177.701 12.1903 177.434 12.4364C177.173 12.6824 176.856 12.8055 176.483 12.8055Z" stroke="white" stroke-width="4" mask="url(#path-1-inside-1_2101_460)"></path><path d="M185.079 25.4073C183.987 25.4073 183.019 25.1682 182.175 24.6902C181.33 24.2121 180.668 23.5618 180.189 22.7393C179.711 21.9097 179.471 20.9712 179.471 19.9236C179.471 19.1292 179.612 18.3981 179.894 17.7302C180.182 17.0623 180.587 16.4823 181.108 15.9902C181.629 15.4981 182.238 15.1184 182.935 14.8513C183.639 14.5771 184.406 14.44 185.237 14.44C185.913 14.44 186.536 14.5279 187.106 14.7036C187.676 14.8794 188.204 15.1501 188.69 15.5156L187.698 17.0131C187.381 16.7389 187.011 16.535 186.589 16.4015C186.166 16.2608 185.719 16.1905 185.248 16.1905C184.473 16.1905 183.801 16.3382 183.231 16.6335C182.667 16.9217 182.231 17.3435 181.921 17.8989C181.611 18.4543 181.457 19.1222 181.457 19.9025C181.457 21.0766 181.795 21.9976 182.47 22.6655C183.153 23.3263 184.075 23.6567 185.237 23.6567C185.772 23.6567 186.272 23.5618 186.737 23.372C187.201 23.1752 187.581 22.9221 187.877 22.6127L188.88 24.0891C188.338 24.4968 187.743 24.8202 187.096 25.0593C186.448 25.2913 185.776 25.4073 185.079 25.4073Z" stroke="white" stroke-width="4" mask="url(#path-1-inside-1_2101_460)"></path><path d="M195.164 25.4073C194.066 25.4073 193.098 25.1788 192.26 24.7218C191.422 24.2648 190.768 23.6286 190.296 22.8131C189.824 21.9905 189.588 21.0344 189.588 19.9447C189.588 19.1573 189.722 18.4262 189.99 17.7513C190.264 17.0764 190.644 16.4928 191.13 16.0007C191.623 15.5086 192.197 15.1255 192.851 14.8513C193.513 14.5771 194.231 14.44 195.006 14.44C195.843 14.44 196.59 14.5876 197.244 14.8829C197.906 15.1782 198.452 15.593 198.881 16.1273C199.318 16.6545 199.631 17.2767 199.821 17.9938C200.011 18.7039 200.05 19.4772 199.937 20.3138H191.51C191.489 21.0028 191.63 21.6074 191.933 22.1276C192.235 22.6408 192.672 23.0416 193.242 23.3298C193.819 23.6181 194.502 23.7622 195.291 23.7622C195.868 23.7622 196.431 23.6708 196.98 23.488C197.529 23.3052 198.015 23.0345 198.438 22.676L199.261 24.1207C198.923 24.3949 198.522 24.6304 198.057 24.8273C197.6 25.0171 197.121 25.1612 196.621 25.2596C196.121 25.3581 195.636 25.4073 195.164 25.4073ZM191.616 18.8058H197.994C197.966 17.9341 197.695 17.2556 197.181 16.7705C196.667 16.2784 195.931 16.0324 194.974 16.0324C194.045 16.0324 193.277 16.2784 192.672 16.7705C192.066 17.2556 191.714 17.9341 191.616 18.8058Z" stroke="white" stroke-width="4" mask="url(#path-1-inside-1_2101_460)"></path><path d="M1.06992 31.7522L3.10503 24.1676L8.66504 29.7199L1.06992 31.7522Z" stroke="white" stroke-width="4" mask="url(#path-1-inside-1_2101_460)"></path><path fill-rule="evenodd" clip-rule="evenodd" d="M14.52 33C22.5392 33 29.0401 26.5081 29.0401 18.5C29.0401 10.4919 22.5392 4 14.52 4C6.50084 4 0 10.4919 0 18.5C0 26.5081 6.50084 33 14.52 33ZM15.84 10.5909C15.84 9.8629 15.249 9.27273 14.52 9.27273C13.791 9.27273 13.2 9.8629 13.2 10.5909V26.4091C13.2 27.1371 13.791 27.7273 14.52 27.7273C15.249 27.7273 15.84 27.1371 15.84 26.4091V10.5909ZM11.88 14.5455C11.88 13.8174 11.289 13.2273 10.56 13.2273C9.831 13.2273 9.24002 13.8174 9.24002 14.5455L9.24002 22.4545C9.24002 23.1826 9.831 23.7727 10.56 23.7727C11.289 23.7727 11.88 23.1826 11.88 22.4545V14.5455ZM18.48 13.2273C19.2091 13.2273 19.8 13.8174 19.8 14.5455L19.8 22.4545C19.8 23.1826 19.2091 23.7727 18.48 23.7727C17.751 23.7727 17.16 23.1826 17.16 22.4545L17.16 14.5455C17.16 13.8174 17.751 13.2273 18.48 13.2273ZM7.92001 17.1818C7.92001 16.4538 7.32903 15.8636 6.60001 15.8636C5.87099 15.8636 5.28001 16.4538 5.28001 17.1818V19.8182C5.28001 20.5462 5.871 21.1364 6.60001 21.1364C7.32903 21.1364 7.92002 20.5462 7.92001 19.8182V17.1818ZM22.44 15.8636C23.1691 15.8636 23.76 16.4538 23.76 17.1818V19.8182C23.76 20.5462 23.1691 21.1364 22.44 21.1364C21.711 21.1364 21.12 20.5462 21.12 19.8182V17.1818C21.12 16.4538 21.711 15.8636 22.44 15.8636Z" stroke="white" stroke-width="4" mask="url(#path-1-inside-1_2101_460)"></path></svg> 