<?xml version="1.0" encoding="UTF-8"?>
<svg id="_2025" data-name="2025" xmlns="http://www.w3.org/2000/svg" xmlns:xlink="http://www.w3.org/1999/xlink" viewBox="0 0 983.96 945.5">
  <defs>
    <style>
      .cls-1 {
        fill: #ea3527;
        filter: url(#drop-shadow-1);
      }

      .cls-2 {
        fill: #a54f4a;
      }

      .cls-2, .cls-3 {
        stroke: #fff;
        stroke-linecap: round;
        stroke-miterlimit: 10;
      }

      .cls-4 {
        fill: #c6c6c6;
      }

      .cls-5 {
        letter-spacing: 0em;
      }

      .cls-6 {
        fill: #fff;
      }

      .cls-7 {
        letter-spacing: 0em;
      }

      .cls-8 {
        letter-spacing: 0em;
      }

      .cls-9 {
        font-size: 14.93px;
      }

      .cls-9, .cls-10 {
        font-family: BarlowSemiCondensed-Medium, 'Barlow Semi Condensed';
        font-weight: 500;
      }

      .cls-3 {
        fill: none;
        stroke-width: .5px;
      }

      .cls-11 {
        letter-spacing: -.02em;
      }

      .cls-12 {
        letter-spacing: -.01em;
      }

      .cls-13 {
        letter-spacing: -.02em;
      }

      .cls-14 {
        letter-spacing: -.02em;
      }

      .cls-15 {
        letter-spacing: -.05em;
      }

      .cls-16 {
        letter-spacing: -.04em;
      }

      .cls-17 {
        letter-spacing: -.05em;
      }

      .cls-18 {
        letter-spacing: -.03em;
      }

      .cls-19 {
        letter-spacing: -.03em;
      }

      .cls-20 {
        letter-spacing: -.03em;
      }

      .cls-21 {
        letter-spacing: -.03em;
      }

      .cls-22 {
        letter-spacing: -.03em;
      }

      .cls-23 {
        letter-spacing: -.03em;
      }

      .cls-24 {
        letter-spacing: -.03em;
      }

      .cls-25 {
        letter-spacing: 0em;
      }

      .cls-26 {
        letter-spacing: 0em;
      }

      .cls-27 {
        letter-spacing: 0em;
      }

      .cls-28 {
        letter-spacing: 0em;
      }

      .cls-29 {
        letter-spacing: 0em;
      }

      .cls-30 {
        letter-spacing: -.01em;
      }

      .cls-31 {
        letter-spacing: 0em;
      }

      .cls-32 {
        letter-spacing: 0em;
      }

      .cls-33 {
        letter-spacing: 0em;
      }

      .cls-34 {
        letter-spacing: 0em;
      }

      .cls-35 {
        letter-spacing: 0em;
      }

      .cls-36 {
        letter-spacing: 0em;
      }

      .cls-37 {
        letter-spacing: 0em;
      }

      .cls-38 {
        letter-spacing: 0em;
      }

      .cls-10 {
        font-size: 15.41px;
      }

      .cls-39 {
        letter-spacing: 0em;
      }
    </style>
    <filter id="drop-shadow-1" x="277.81" y="333.8" width="420.65" height="383.51" filterUnits="userSpaceOnUse">
      <feOffset dx="2" dy="0"/>
      <feGaussianBlur result="blur" stdDeviation="3"/>
      <feFlood flood-color="#935826" flood-opacity=".89"/>
      <feComposite in2="blur" operator="in"/>
      <feComposite in="SourceGraphic"/>
    </filter>
  </defs>
  <path id="bg" class="cls-2" d="M811.49,673.07c-70.17,113.89-197.56,176.62-321.1,175.32-30.99-.33-165.49-3.93-261.17-112.84-14.83-16.89-98.21-104.34-82.66-240.99,2.95-25.96,12.34-137.13,107.32-217.4,19-16.05,88.03-71.87,185.51-74.79,7.49-.22,18.69-.01,32.51,1.52l-1.27-130.32c159.57,20.52,299.02,106.72,359.35,245.67,10.94,25.2,80.45,193.24-18.49,353.83Z"/>
  <g id="eixos">
    <path id="_1" data-name="1" class="cls-4" d="M624.93,117.16l-47.78,118.95c-39.47-20.71-77.39-29.1-104.98-32.19V73.77c54.01,7.1,105.7,21.72,152.76,43.39Z"/>
    <path id="_2" data-name="2" class="cls-4" d="M758.21,211.19l-94.79,94.09c-17.89-21.16-35.16-35.36-44.89-42.78-13.73-10.49-27.65-19.18-41.38-26.39l47.78-118.95c50.78,23.36,96.17,54.92,133.28,94.03Z"/>
    <path id="_3" data-name="3" class="cls-4" d="M839.83,344.62l-125.82,51.01c-12.16-37.99-31.72-68.04-50.59-90.35l94.79-94.09c29.71,31.29,54.12,67.41,71.77,108.05,1.91,4.39,5.59,13.12,9.85,25.38Z"/>
    <path id="_4" data-name="4" class="cls-4" d="M863.68,497.62h-137.41c2.03-31.29-2.02-56.91-3.82-67.45-2.08-12.17-4.95-23.67-8.44-34.53h0s125.82-51.02,125.82-51.02c11.05,31.81,25.98,87.43,23.85,153Z"/>
    <path id="_5" data-name="5" class="cls-4" d="M863.68,497.62c-1.43,44.54-10.74,93.67-34.48,143.05l-128.83-52.2c.83-1.58,1.56-2.96,2.19-4.12,15.8-29.12,21.98-60,23.71-86.73h137.41Z"/>
    <path id="_6" data-name="6" class="cls-4" d="M829.2,640.67c-5.18,10.8-11.07,21.62-17.71,32.4-21.1,34.25-47.37,63.86-77.16,88.5l-94.5-95.44c11.15-9.4,20.55-19.21,28.45-28.69,16.72-20.08,26.68-38.72,32.09-48.97l128.83,52.2Z"/>
    <path id="_7" data-name="7" class="cls-4" d="M734.33,761.57c-36.9,30.54-79.19,53.43-123.72,68.03l-50.55-121.66c17.25-4.68,29.02-9.72,32.75-11.5,18.35-8.74,33.9-19.24,47.02-30.31l94.5,95.44Z"/>
    <path id="_8" data-name="8" class="cls-4" d="M610.61,829.6c-39.06,12.8-79.85,19.21-120.22,18.79-4.25-.05-10.45-.15-18.22-.59v-131.24c34.71,2.78,65.8-2.63,87.89-8.62l50.55,121.66Z"/>
    <path id="_9" data-name="9" class="cls-4" d="M472.17,716.56v131.24c-28.08-1.55-76.77-7.34-128.78-29.77l49.55-123.36c26.96,13.55,54.05,19.87,79.23,21.89Z"/>
    <path id="_10" data-name="10" class="cls-4" d="M392.94,694.67l-49.55,123.36c-38.46-16.6-78.75-42.29-113.84-82.11l95.02-94.31c23.08,27.06,48.38,42.05,59.35,48.25,3,1.7,6.01,3.3,9.02,4.81Z"/>
    <path id="_11" data-name="11" class="cls-4" d="M324.57,641.61l-95.02,94.31c-.11-.12-.22-.25-.33-.37-9.57-10.9-47.72-51.22-69.37-115.2l126.07-51.13c.46,1.65.84,2.91,1.1,3.76,8.59,28.53,22.6,51.11,37.55,68.63Z"/>
    <path id="_12" data-name="12" class="cls-4" d="M285.92,569.22l-126.07,51.13c-11.64-34.37-18.51-75.58-13.62-122.73h131.92c-1.91,33.28,4.72,60.73,7.77,71.6Z"/>
    <path id="_13" data-name="13" class="cls-4" d="M297.61,425.3c-12.94,24.54-18.16,49.77-19.46,72.32h-131.92c.1-1.01.21-2.04.33-3.06,1.82-15.99,6.08-64.29,31.26-117.79l119.79,48.53Z"/>
    <path id="_14" data-name="14" class="cls-4" d="M345.93,369.32c-8.45,6.25-16.24,13.18-23.21,20.68-10.53,11.33-18.76,23.24-25.11,35.3l-119.79-48.53c15.72-33.37,39.57-68.77,76.06-99.61.14-.12.28-.24.43-.36l91.62,92.52Z"/>
    <path id="_15" data-name="15" class="cls-4" d="M407.07,339.74c-13.37,3.61-26.31,8.77-38.43,15.24-.43.22-.85.45-1.27.68-7.51,4.07-14.68,8.65-21.44,13.66l-91.62-92.52c13.38-11.28,49.68-40.51,102.17-58.83l50.59,121.77Z"/>
    <path id="_16" data-name="16" class="cls-4" d="M472.17,203.92v131.35c-14-1.97-28.18-1.91-42.14-.1-7.74,1-15.42,2.54-22.96,4.57l-50.59-121.77c24.37-8.52,52.23-14.68,82.91-15.6.4-.01.82-.02,1.24-.03,3.57-.08,7.88-.06,12.85.14,1.08.05,2.19.1,3.34.16.57.03,1.15.07,1.73.1,1.32.08,2.68.17,4.07.28.47.03.94.07,1.41.11.62.05,1.26.11,1.9.16.58.05,1.16.1,1.75.16,1.37.14,2.78.28,4.22.44.09,0,.18.02.27.03Z"/>
    <path id="_17" data-name="17" class="cls-4" d="M577.15,236.11l-48.23,120.06c-2.79-1.78-5.65-3.47-8.57-5.06-15.36-8.39-31.65-13.53-48.18-15.84v-131.35c27.59,3.09,65.51,11.48,104.98,32.19Z"/>
    <path id="_18" data-name="18" class="cls-4" d="M663.42,305.28l-91.94,91.26c-11.28-15.79-25.72-29.66-42.56-40.37l48.23-120.06c13.73,7.21,27.65,15.9,41.38,26.39,9.73,7.42,27,21.62,44.89,42.78Z"/>
    <path id="_19" data-name="19" class="cls-4" d="M714.01,395.63h0s-119.87,48.61-119.87,48.61c-4.47-16.87-12.21-33.1-22.66-47.7l91.94-91.26c18.87,22.31,38.43,52.36,50.59,90.35Z"/>
    <path id="_20" data-name="20" class="cls-4" d="M726.27,497.62h-129.46c3.06-17.74,1.96-35.9-2.67-53.38l119.87-48.6c3.49,10.86,6.36,22.36,8.44,34.53,1.8,10.54,5.85,36.16,3.82,67.45Z"/>
    <path id="_21" data-name="21" class="cls-4" d="M726.27,497.62c-1.73,26.73-7.91,57.61-23.71,86.73-.63,1.16-1.36,2.54-2.19,4.12l-119.95-48.59c1-1.57,1.95-3.14,2.85-4.73,6.88-12.01,11.31-24.66,13.54-37.53h129.46Z"/>
    <path id="_22" data-name="22" class="cls-4" d="M700.37,588.47c-5.41,10.25-15.37,28.89-32.09,48.97-7.9,9.48-17.3,19.29-28.45,28.69l-91.94-92.85c6.17-3.88,11.82-8.39,16.74-13.47,6.13-6.33,11.37-12.99,15.76-19.89.01-.01.02-.03.03-.04l119.95,48.59Z"/>
    <path id="_23" data-name="23" class="cls-4" d="M639.83,666.13c-13.12,11.07-28.67,21.57-47.02,30.31-3.73,1.78-15.5,6.82-32.75,11.5l-49.8-119.84c13.45-2.71,26.41-7.74,37.63-14.82l91.94,92.85Z"/>
  </g>
  <g id="raios">
    <line class="cls-3" x1="472.18" y1="18.75" x2="472.18" y2="930.74"/>
    <line class="cls-3" x1="951.05" y1="497.62" x2="49.73" y2="497.62"/>
    <line class="cls-3" x1="201.61" y1="223.57" x2="787.86" y2="815.62"/>
    <line class="cls-3" x1="810.79" y1="159.01" x2="163.88" y2="801.11"/>
    <line class="cls-3" x1="102.93" y1="346.43" x2="916.56" y2="676.05"/>
    <line class="cls-3" x1="650.61" y1="53.24" x2="308.99" y2="903.66"/>
    <line class="cls-3" x1="67.14" y1="657.93" x2="914.57" y2="314.31"/>
    <line class="cls-3" x1="330.28" y1="154.88" x2="641.78" y2="904.62"/>
  </g>
  <path id="miolo" class="cls-1" d="M698.46,590.27c-9.6,19.48-20.3,34.72-30.18,47.17-17.2,20.66-41.55,42.84-75.47,59-12.38,5.9-112.99,47.59-208.89-6.58-18.07-10.21-75.05-44.29-96.9-116.88-3.65-12.11-32.65-109.44,35.7-182.98,12.55-13.5,27.78-25.18,44.65-34.34.42-.23.84-.46,1.27-.68,18.5-9.65,39.17-16.56,61.39-19.81,30.44-3.95,61.94.44,90.32,15.94,65.96,36.03,99.95,119.4,62.92,184.04-.08.11-.15.22-.23.33-.02.03-.05.05-.08.11-.28.48-.56.95-.84,1.43-.28.47-.56.92-.87,1.4l-.86,1.5-.74,1.29c-.19.29.26.27,1.45.77l117.36,48.29Z"/>
  <path id="espiral_contorno_" data-name="espiral (contorno)" class="cls-6" d="M494.2,849.41c-1.27,0-2.54,0-3.81-.02-36.56-.39-72.42-5.69-106.6-15.74-62.39-18.36-114.64-51.14-155.31-97.44-.57-.65-1.23-1.39-1.99-2.24-9.17-10.29-33.54-37.64-53.25-78.35-24.72-51.05-34.03-105.27-27.67-161.17l.3-2.74c1.63-14.81,5.45-49.5,20.33-89.78,18.54-50.15,47.82-92.39,87.03-125.53,54.97-46.43,121.07-73.08,186.13-75.03,10.18-.31,37.66-.06,72.77,8.84,39.28,9.95,75.28,27.28,107.01,51.5,20.23,15.44,39.13,34.43,54.65,54.93,25.95,34.27,42.65,72.41,49.65,113.36,9.89,57.85,2.79,112.84-20,154.82-.55,1.01-1.17,2.18-1.87,3.52-5.38,10.2-15.4,29.18-32.52,49.74-21.19,25.46-46.7,45.39-75.81,59.26-1.24.59-30.77,14.49-73.44,19.33-49.98,5.67-95.86-3.06-136.37-25.94-48.88-27.62-82.55-68.24-97.37-117.46-7.76-25.74-28.1-115.07,35.92-183.95,12.65-13.61,27.76-25.23,44.91-34.54.42-.23.85-.47,1.29-.69,19.33-10.31,40.68-17.2,61.72-19.91,32.53-4.22,63.97,1.33,90.93,16.05,35.93,19.63,62.78,53,73.67,91.55,9.24,32.72,5.56,66.06-10.37,93.86-.91,1.6-1.89,3.22-2.91,4.81-4.48,7.05-9.83,13.79-15.88,20.05-24.65,25.47-67.19,36.97-103.46,27.96-28.06-6.96-47.71-25.27-55.34-51.55-7.88-27.16,1.86-65.88,26.69-77.06,11.27-5.07,31.74-6.97,41.96,4.71.36.42.32,1.05-.09,1.41-.42.36-1.05.32-1.41-.09-9.55-10.91-28.93-9.03-39.64-4.21-19.73,8.88-34.86,42.71-25.59,74.68,7.42,25.57,26.56,43.38,53.9,50.17,16.98,4.21,36.43,3.84,54.77-1.05,18.49-4.94,35.1-14.3,46.78-26.36,5.96-6.16,11.22-12.79,15.63-19.73,1-1.56,1.96-3.15,2.85-4.73,15.66-27.34,19.27-60.13,10.18-92.33-10.75-38.04-37.25-70.97-72.71-90.34-26.58-14.52-57.6-19.99-89.71-15.83-20.81,2.68-41.92,9.49-61.05,19.7-.44.22-.85.45-1.26.68-16.96,9.21-31.9,20.69-44.4,34.14-63.3,68.1-43.16,156.53-35.47,182.01,14.67,48.72,48.01,88.94,96.43,116.3,40.13,22.67,85.61,31.31,135.16,25.69,42.34-4.8,71.58-18.56,72.81-19.15,28.85-13.74,54.13-33.51,75.13-58.74,16.98-20.39,26.94-39.26,32.29-49.39.71-1.34,1.33-2.52,1.88-3.54,22.57-41.59,29.6-96.12,19.78-153.53-6.94-40.63-23.52-78.48-49.27-112.49-15.42-20.36-34.18-39.22-54.27-54.55-31.51-24.06-67.27-41.26-106.29-51.15-34.86-8.83-62.12-9.08-72.22-8.78-64.61,1.94-130.27,28.41-184.89,74.55-38.95,32.92-68.03,74.87-86.45,124.69-14.8,40.05-18.6,74.57-20.22,89.31l-.31,2.75c-6.32,55.52,2.93,109.38,27.48,160.07,19.59,40.46,43.82,67.65,52.94,77.89.76.85,1.43,1.61,2,2.25,40.42,46.01,92.36,78.59,154.37,96.84,34,10,69.68,15.27,106.05,15.66,61.92.68,124.2-14.68,180.08-44.35,58.08-30.83,106.55-75.96,140.15-130.5,41.52-67.39,58.45-143.79,50.31-227.06-5.97-61.04-24.28-108.34-31.88-125.84-14.72-33.9-34.57-65.48-59-93.87-23.6-27.42-51.56-51.97-83.1-72.95-61.46-40.89-136.32-67.96-216.46-78.26-.55-.07-.94-.57-.86-1.12.07-.55.57-.94,1.12-.86,80.45,10.35,155.6,37.52,217.32,78.58,31.69,21.08,59.78,45.75,83.5,73.31,24.56,28.54,44.52,60.29,59.32,94.37,7.64,17.59,26.04,65.12,32.04,126.45,3.64,37.21,2.19,73.71-4.29,108.48-7.93,42.53-23.51,82.85-46.3,119.83-33.79,54.84-82.52,100.22-140.92,131.22-55.03,29.21-116.24,44.6-177.23,44.6Z"/>
  <g id="textos">
    <text class="cls-10" transform="translate(204.11 657.6)"><tspan x="0" y="0">Inf</tspan><tspan class="cls-36" x="16.23" y="0">r</tspan><tspan class="cls-5" x="21.43" y="0">a</tspan><tspan class="cls-29" x="28.69" y="0">e</tspan><tspan class="cls-5" x="35.98" y="0">strutu</tspan><tspan class="cls-34" x="72.84" y="0">r</tspan><tspan x="78.05" y="0">a</tspan></text>
    <text class="cls-10" transform="translate(620.14 210.03)"><tspan x="0" y="0">Instru</tspan><tspan class="cls-36" x="35.62" y="0">m</tspan><tspan x="47.01" y="0">en</tspan><tspan class="cls-25" x="61.88" y="0">t</tspan><tspan x="66.75" y="0">os de </tspan><tspan x="5.73" y="18.49">fina</tspan><tspan class="cls-36" x="29.11" y="18.49">n</tspan><tspan x="36.57" y="18.49">cia</tspan><tspan class="cls-36" x="54.66" y="18.49">m</tspan><tspan x="66.04" y="18.49">en</tspan><tspan class="cls-25" x="80.91" y="18.49">t</tspan><tspan x="85.78" y="18.49">o</tspan></text>
    <g>
      <path d="M756.15,555.92c-.5-.24-.88-.58-1.16-1.01-.27-.43-.41-.93-.41-1.51v-.42c0-.1.05-.15.15-.15h1.14c.1,0,.15.05.15.15v.34c0,.5.17.91.52,1.22.34.31.81.46,1.39.46.52,0,.94-.14,1.24-.42.3-.28.45-.66.45-1.12,0-.31-.08-.58-.23-.8-.15-.23-.38-.44-.67-.63s-.72-.44-1.27-.74c-.63-.33-1.13-.62-1.5-.88-.38-.26-.69-.58-.93-.97-.25-.39-.37-.86-.37-1.42,0-.86.28-1.54.85-2.03.57-.49,1.32-.74,2.25-.74.65,0,1.22.12,1.71.37.49.25.88.59,1.15,1.04.27.45.41.96.41,1.55v.35c0,.1-.05.15-.15.15h-1.16c-.1,0-.15-.05-.15-.15v-.32c0-.5-.16-.92-.49-1.23-.33-.32-.78-.48-1.34-.48-.5,0-.9.13-1.18.39-.28.26-.42.62-.42,1.09,0,.31.07.57.21.79s.35.42.64.61c.29.19.71.43,1.28.72.71.4,1.25.73,1.61.99.36.26.66.57.89.94.23.37.35.82.35,1.34,0,.88-.29,1.59-.87,2.11-.58.52-1.36.79-2.35.79-.66,0-1.24-.12-1.73-.36Z"/>
      <path d="M763.55,555.66c-.51-.42-.82-.98-.92-1.7-.08-.51-.12-1.09-.12-1.73s.04-1.22.12-1.71c.1-.71.41-1.27.92-1.7.51-.42,1.17-.63,1.97-.63s1.44.21,1.96.63c.51.42.82.98.92,1.68.08.44.12,1.02.12,1.73s-.04,1.28-.12,1.73c-.1.72-.41,1.29-.92,1.7-.51.42-1.16.62-1.96.62s-1.46-.21-1.97-.62ZM766.49,554.65c.26-.24.42-.55.49-.94.05-.46.08-.96.08-1.48s-.03-1.02-.08-1.46c-.06-.39-.22-.7-.49-.94s-.59-.35-.98-.35-.7.12-.96.35-.42.55-.49.94c-.04.36-.06.85-.06,1.46s.02,1.12.06,1.48c.06.39.22.7.49.94s.59.35.98.35.7-.12.96-.35Z"/>
      <path d="M771.1,555.66c-.51-.42-.82-.98-.93-1.7-.07-.46-.11-1.04-.11-1.74,0-.61.04-1.18.11-1.71.11-.7.43-1.26.94-1.68.51-.42,1.16-.63,1.94-.63s1.4.2,1.93.6c.52.4.84.91.94,1.54l.06.37c0,.09-.05.15-.15.17l-1.16.09h-.03c-.06,0-.1-.04-.12-.11v-.06s-.05-.18-.05-.18c-.05-.32-.21-.59-.46-.81-.26-.22-.58-.33-.97-.33s-.71.12-.96.35-.4.55-.45.94c-.05.43-.08.92-.08,1.46,0,.61.03,1.1.09,1.5.05.39.2.7.45.93.25.23.57.35.96.35s.73-.11.99-.33c.26-.22.41-.5.45-.82l.02-.15c0-.1.07-.15.17-.14l1.16.08c.1,0,.15.06.15.17l-.05.26c-.08.66-.38,1.19-.91,1.6-.52.41-1.18.62-1.96.62s-1.44-.21-1.95-.62Z"/>
      <path d="M777.64,546.81c-.18-.18-.28-.42-.28-.71s.09-.54.28-.72c.19-.18.42-.27.71-.27s.52.09.71.28c.18.19.28.42.28.71s-.09.52-.29.71-.42.28-.7.28-.52-.09-.71-.28ZM777.59,556.01v-7.54c0-.1.05-.15.15-.15h1.17c.1,0,.15.05.15.15v7.54c0,.1-.05.15-.15.15h-1.17c-.1,0-.15-.05-.15-.15Z"/>
      <path d="M784.81,554.75c.24-.17.42-.4.55-.7.03-.09.09-.13.18-.11l1.05.23c.1.03.14.09.11.19-.2.61-.53,1.08-1.02,1.42-.48.34-1.07.51-1.77.51-.8,0-1.45-.2-1.94-.6s-.81-.95-.94-1.65c-.05-.29-.08-.59-.1-.92-.02-.32-.02-.75-.02-1.29s.03-.94.08-1.25c.09-.72.4-1.3.91-1.73s1.16-.66,1.94-.66c.85,0,1.54.24,2.06.72.52.48.82,1.12.88,1.91.03.35.05.99.05,1.93,0,.1-.05.15-.15.15h-4.22s-.06.02-.06.06c0,.29.02.54.05.75.05.38.21.69.48.92.27.24.61.35,1.02.35.35,0,.64-.08.89-.25ZM782.89,549.83c-.25.24-.4.54-.46.92-.03.28-.05.58-.05.91,0,.04.02.06.06.06h2.83s.06-.02.06-.06c-.02-.41-.04-.71-.06-.89-.05-.38-.21-.69-.46-.93s-.58-.36-.97-.36-.71.12-.96.35Z"/>
      <path d="M792.8,545.37h1.17c.1,0,.15.05.15.15v10.48c0,.1-.05.15-.15.15h-1.17c-.1,0-.15-.05-.15-.15v-.52s0-.04-.03-.05c-.02,0-.04,0-.05.02-.37.55-.95.83-1.74.83-.64,0-1.15-.18-1.54-.55s-.68-.94-.86-1.71c-.12-.53-.19-1.12-.19-1.76s.05-1.24.15-1.76c.31-1.54,1.15-2.31,2.51-2.31.4,0,.73.07,1,.2.27.13.49.33.66.6.02.02.04.03.05.03.01,0,.02-.01.02-.05v-3.45c0-.1.05-.15.15-.15ZM792.63,552.23c0-.77-.07-1.36-.21-1.76-.09-.33-.23-.58-.42-.75-.19-.17-.44-.25-.75-.25-.61,0-1.03.32-1.26.97-.16.46-.25,1.06-.25,1.79s.07,1.31.2,1.71c.22.71.65,1.06,1.29,1.06.6,0,1-.34,1.2-1.03.13-.41.2-.99.2-1.74Z"/>
      <path d="M800.77,548.91c.51.48.77,1.1.77,1.87v5.22c0,.1-.05.15-.15.15h-1.17c-.1,0-.15-.05-.15-.15v-.45s0-.03-.02-.04c-.02,0-.03,0-.05.02-.46.49-1.1.74-1.93.74-.67,0-1.24-.18-1.71-.55-.47-.36-.71-.95-.71-1.76s.27-1.48.82-1.92,1.3-.66,2.24-.66h1.29s.06-.02.06-.06v-.43c0-.44-.12-.79-.35-1.05-.23-.26-.56-.38-.99-.38-.34,0-.62.08-.84.25-.22.17-.36.4-.41.69-.01.09-.07.14-.17.14l-1.26-.08s-.08-.01-.11-.04c-.03-.03-.04-.06-.03-.1.06-.64.35-1.15.87-1.55.52-.4,1.17-.59,1.95-.59.85,0,1.54.24,2.05.72ZM799.56,554.63c.33-.26.5-.6.5-1.03v-.99s-.02-.06-.06-.06h-1.19c-.5,0-.91.11-1.21.34-.3.23-.46.55-.46.99,0,.38.11.67.34.85.23.19.52.29.89.29.45,0,.84-.13,1.18-.38Z"/>
      <path d="M807.64,545.37h1.17c.1,0,.15.05.15.15v10.48c0,.1-.05.15-.15.15h-1.17c-.1,0-.15-.05-.15-.15v-.52s0-.04-.03-.05c-.02,0-.04,0-.05.02-.37.55-.95.83-1.74.83-.64,0-1.15-.18-1.54-.55s-.68-.94-.86-1.71c-.12-.53-.19-1.12-.19-1.76s.05-1.24.15-1.76c.31-1.54,1.15-2.31,2.51-2.31.4,0,.73.07,1,.2.27.13.49.33.66.6.02.02.04.03.05.03.01,0,.02-.01.02-.05v-3.45c0-.1.05-.15.15-.15ZM807.47,552.23c0-.77-.07-1.36-.21-1.76-.09-.33-.23-.58-.42-.75-.19-.17-.44-.25-.75-.25-.61,0-1.03.32-1.26.97-.16.46-.25,1.06-.25,1.79s.07,1.31.2,1.71c.22.71.65,1.06,1.29,1.06.6,0,1-.34,1.2-1.03.13-.41.2-.99.2-1.74Z"/>
      <path d="M814.6,554.75c.24-.17.42-.4.55-.7.03-.09.09-.13.18-.11l1.05.23c.1.03.14.09.11.19-.2.61-.53,1.08-1.02,1.42-.48.34-1.07.51-1.77.51-.8,0-1.45-.2-1.94-.6s-.81-.95-.94-1.65c-.05-.29-.08-.59-.1-.92-.02-.32-.02-.75-.02-1.29s.03-.94.08-1.25c.09-.72.4-1.3.91-1.73s1.16-.66,1.94-.66c.85,0,1.54.24,2.06.72.52.48.82,1.12.88,1.91.03.35.05.99.05,1.93,0,.1-.05.15-.15.15h-4.22s-.06.02-.06.06c0,.29.02.54.05.75.05.38.21.69.48.92.27.24.61.35,1.02.35.35,0,.64-.08.89-.25ZM812.67,549.83c-.25.24-.4.54-.46.92-.03.28-.05.58-.05.91,0,.04.02.06.06.06h2.83s.06-.02.06-.06c-.02-.41-.04-.71-.06-.89-.05-.38-.21-.69-.46-.93s-.58-.36-.97-.36-.71.12-.96.35Z"/>
      <path d="M775.13,574.15c-.51-.42-.82-.98-.93-1.7-.07-.46-.11-1.04-.11-1.74,0-.61.04-1.18.11-1.71.11-.7.43-1.26.94-1.68.51-.42,1.16-.63,1.94-.63s1.4.2,1.93.6c.52.4.84.91.94,1.54l.06.37c0,.09-.05.15-.15.17l-1.16.09h-.03c-.06,0-.1-.04-.12-.11v-.06s-.05-.18-.05-.18c-.05-.32-.21-.59-.46-.81-.26-.22-.58-.33-.97-.33s-.71.12-.96.35-.4.55-.45.94c-.05.43-.08.92-.08,1.46,0,.61.03,1.1.09,1.5.05.39.2.7.45.93.25.23.57.35.96.35s.73-.11.99-.33c.26-.22.41-.5.45-.82l.02-.15c0-.1.07-.15.17-.14l1.16.08c.1,0,.15.06.15.17l-.05.26c-.08.66-.38,1.19-.91,1.6-.52.41-1.18.62-1.96.62s-1.44-.21-1.95-.62Z"/>
      <path d="M781.67,565.3c-.18-.18-.28-.42-.28-.71s.09-.54.28-.72c.19-.18.42-.27.71-.27s.52.09.71.28c.18.19.28.42.28.71s-.09.52-.29.71-.42.28-.7.28-.52-.09-.71-.28ZM781.62,574.5v-7.54c0-.1.05-.15.15-.15h1.17c.1,0,.15.05.15.15v7.54c0,.1-.05.15-.15.15h-1.17c-.1,0-.15-.05-.15-.15Z"/>
      <path d="M786.77,574.53l-2.22-7.55v-.05c-.01-.08.04-.12.14-.12h1.29c.1,0,.16.05.17.14l1.42,5.53s.02.03.03.03c0,0,.02-.01.03-.03l1.4-5.53c.02-.09.08-.14.17-.14l1.29.02c.05,0,.09.02.12.05.03.03.03.07.02.12l-2.2,7.54c-.03.08-.09.12-.17.12h-1.33c-.08,0-.14-.04-.17-.12Z"/>
      <path d="M792.12,565.3c-.18-.18-.28-.42-.28-.71s.09-.54.28-.72c.19-.18.42-.27.71-.27s.52.09.71.28c.18.19.28.42.28.71s-.09.52-.29.71-.42.28-.7.28-.52-.09-.71-.28ZM792.07,574.5v-7.54c0-.1.05-.15.15-.15h1.17c.1,0,.15.05.15.15v7.54c0,.1-.05.15-.15.15h-1.17c-.1,0-.15-.05-.15-.15Z"/>
      <path d="M795.52,574.5v-10.48c0-.1.05-.15.15-.15h1.17c.1,0,.15.05.15.15v10.48c0,.1-.05.15-.15.15h-1.17c-.1,0-.15-.05-.15-.15Z"/>
    </g>
    <text class="cls-10" transform="translate(712.17 658.01)"><tspan x="0" y="0">Ciê</tspan><tspan class="cls-36" x="19.11" y="0">n</tspan><tspan x="26.56" y="0">ci</tspan><tspan class="cls-36" x="37.4" y="0">a</tspan><tspan x="44.61" y="0">, </tspan><tspan class="cls-25" x="-12.99" y="18.49">t</tspan><tspan x="-8.12" y="18.49">ec</tspan><tspan class="cls-36" x="6.49" y="18.49">n</tspan><tspan x="13.95" y="18.49">olo</tspan><tspan class="cls-7" x="32.33" y="18.49">g</tspan><tspan x="39.8" y="18.49">ia e </tspan><tspan x="-3.05" y="36.98">i</tspan><tspan class="cls-36" x=".54" y="36.98">n</tspan><tspan class="cls-11" x="8" y="36.98">o</tspan><tspan class="cls-12" x="15.25" y="36.98">v</tspan><tspan x="21.91" y="36.98">aç</tspan><tspan class="cls-36" x="36.41" y="36.98">ã</tspan><tspan x="43.61" y="36.98">o</tspan></text>
    <text class="cls-10" transform="translate(625.84 732.64)"><tspan x="0" y="0">A</tspan><tspan class="cls-39" x="8.21" y="0">r</tspan><tspan class="cls-25" x="13.56" y="0">t</tspan><tspan x="18.43" y="0">e e </tspan><tspan class="cls-31" x="-16.34" y="18.49">e</tspan><tspan x="-9.12" y="18.49">xp</tspan><tspan class="cls-33" x="5.46" y="18.49">r</tspan><tspan class="cls-27" x="10.61" y="18.49">e</tspan><tspan class="cls-14" x="17.9" y="18.49">s</tspan><tspan x="24.38" y="18.49">sõ</tspan><tspan class="cls-27" x="38.56" y="18.49">e</tspan><tspan x="45.85" y="18.49">s </tspan><tspan x="-8.49" y="36.98">cultu</tspan><tspan class="cls-36" x="21.94" y="36.98">r</tspan><tspan x="27.15" y="36.98">ais</tspan></text>
    <g>
      <path d="M479.32,785.86v-10.48c0-.1.05-.15.15-.15h3.13c.96,0,1.72.27,2.29.82s.86,1.27.86,2.17v4.81c0,.9-.29,1.63-.86,2.17-.57.54-1.33.82-2.29.82h-3.13c-.1,0-.15-.05-.15-.15ZM480.86,784.74h1.77c.49-.01.89-.18,1.18-.52s.44-.78.45-1.35v-4.5c0-.58-.15-1.03-.45-1.36-.3-.33-.7-.5-1.2-.5h-1.76s-.06.02-.06.06v8.11s.02.06.06.06Z"/>
      <path d="M491.27,784.6c.24-.17.42-.4.55-.7.03-.09.09-.13.18-.11l1.05.23c.1.03.14.09.11.19-.2.61-.53,1.08-1.02,1.42-.48.34-1.07.51-1.77.51-.8,0-1.45-.2-1.94-.6s-.81-.95-.94-1.65c-.05-.29-.08-.59-.1-.92-.02-.32-.02-.75-.02-1.29s.03-.94.08-1.25c.09-.72.4-1.3.91-1.73s1.16-.66,1.94-.66c.85,0,1.54.24,2.06.72.52.48.82,1.12.88,1.91.03.35.05.99.05,1.93,0,.1-.05.15-.15.15h-4.22s-.06.02-.06.06c0,.29.02.54.05.75.05.38.21.69.48.92.27.24.61.35,1.02.35.35,0,.64-.08.89-.25ZM489.34,779.68c-.25.24-.4.54-.46.92-.03.28-.05.58-.05.91,0,.04.02.06.06.06h2.83s.06-.02.06-.06c-.02-.41-.04-.71-.06-.89-.05-.38-.21-.69-.46-.93s-.58-.36-.97-.36-.71.12-.96.35Z"/>
      <path d="M495.29,785.52c-.51-.39-.76-.89-.76-1.51v-.15c0-.1.05-.15.15-.15h1.09c.1,0,.15.05.15.15v.09c0,.28.13.52.4.72.27.21.6.31.99.31s.71-.1.95-.29.36-.44.36-.72c0-.23-.07-.41-.21-.55-.14-.14-.31-.26-.51-.35-.2-.09-.5-.2-.89-.33-.48-.15-.89-.32-1.23-.49-.33-.17-.62-.41-.85-.72-.24-.31-.35-.71-.35-1.19,0-.69.24-1.23.73-1.63.49-.4,1.14-.6,1.95-.6s1.48.21,1.98.62.75.95.75,1.62v.03c0,.1-.05.15-.15.15h-1.08c-.1,0-.15-.05-.15-.15v-.06c0-.3-.12-.54-.37-.74-.25-.2-.57-.29-.97-.29-.38,0-.69.09-.92.28-.23.18-.35.42-.35.71,0,.22.07.39.2.53.13.14.3.25.5.35.2.09.5.21.89.34.51.17.94.34,1.27.51.33.16.62.4.87.71.25.31.37.7.37,1.19,0,.69-.25,1.23-.75,1.63-.5.4-1.18.6-2.03.6s-1.52-.2-2.03-.59Z"/>
      <path d="M505.29,784.6c.24-.17.42-.4.55-.7.03-.09.09-.13.18-.11l1.05.23c.1.03.14.09.11.19-.2.61-.53,1.08-1.02,1.42-.48.34-1.07.51-1.77.51-.8,0-1.45-.2-1.94-.6s-.81-.95-.94-1.65c-.05-.29-.08-.59-.1-.92-.02-.32-.02-.75-.02-1.29s.03-.94.08-1.25c.09-.72.4-1.3.91-1.73s1.16-.66,1.94-.66c.85,0,1.54.24,2.06.72.52.48.82,1.12.88,1.91.03.35.05.99.05,1.93,0,.1-.05.15-.15.15h-4.22s-.06.02-.06.06c0,.29.02.54.05.75.05.38.21.69.48.92.27.24.61.35,1.02.35.35,0,.64-.08.89-.25ZM503.36,779.68c-.25.24-.4.54-.46.92-.03.28-.05.58-.05.91,0,.04.02.06.06.06h2.83s.06-.02.06-.06c-.02-.41-.04-.71-.06-.89-.05-.38-.21-.69-.46-.93s-.58-.36-.97-.36-.71.12-.96.35Z"/>
      <path d="M513.98,778.76c.42.46.62,1.1.62,1.91v5.19c0,.1-.05.15-.15.15h-1.17c-.1,0-.15-.05-.15-.15v-4.98c0-.47-.12-.85-.36-1.12s-.57-.42-.98-.42-.76.14-1.01.42c-.25.28-.38.66-.38,1.13v4.96c0,.1-.05.15-.15.15h-1.17c-.1,0-.15-.05-.15-.15v-7.54c0-.1.05-.15.15-.15h1.17c.1,0,.15.05.15.15v.48s0,.05.02.05c.02,0,.03,0,.05-.04.4-.5.99-.75,1.76-.75s1.33.23,1.75.69Z"/>
      <path d="M517.95,785.89l-2.22-7.55v-.05c-.01-.08.04-.12.14-.12h1.29c.1,0,.16.05.17.14l1.42,5.53s.02.03.03.03c0,0,.02-.01.03-.03l1.4-5.53c.02-.09.08-.14.17-.14l1.29.02c.05,0,.09.02.12.05.03.03.03.07.02.12l-2.2,7.54c-.03.08-.09.12-.17.12h-1.33c-.08,0-.14-.04-.17-.12Z"/>
      <path d="M523.76,785.51c-.51-.42-.82-.98-.92-1.7-.08-.51-.12-1.09-.12-1.73s.04-1.22.12-1.71c.1-.71.41-1.27.92-1.7.51-.42,1.17-.63,1.97-.63s1.44.21,1.96.63c.51.42.82.98.92,1.68.08.44.12,1.02.12,1.73s-.04,1.28-.12,1.73c-.1.72-.41,1.29-.92,1.7-.51.42-1.16.62-1.96.62s-1.46-.21-1.97-.62ZM526.69,784.51c.26-.24.42-.55.49-.94.05-.46.08-.96.08-1.48s-.03-1.02-.08-1.46c-.06-.39-.22-.7-.49-.94s-.59-.35-.98-.35-.7.12-.96.35-.42.55-.49.94c-.04.36-.06.85-.06,1.46s.02,1.12.06,1.48c.06.39.22.7.49.94s.59.35.98.35.7-.12.96-.35Z"/>
      <path d="M530.42,785.86v-10.48c0-.1.05-.15.15-.15h1.17c.1,0,.15.05.15.15v10.48c0,.1-.05.15-.15.15h-1.17c-.1,0-.15-.05-.15-.15Z"/>
      <path d="M535.39,785.89l-2.22-7.55v-.05c-.01-.08.04-.12.14-.12h1.29c.1,0,.16.05.17.14l1.42,5.53s.02.03.03.03c0,0,.02-.01.03-.03l1.4-5.53c.02-.09.08-.14.17-.14l1.29.02c.05,0,.09.02.12.05.03.03.03.07.02.12l-2.2,7.54c-.03.08-.09.12-.17.12h-1.33c-.08,0-.14-.04-.17-.12Z"/>
      <path d="M540.74,776.66c-.18-.18-.28-.42-.28-.71s.09-.54.28-.72c.19-.18.42-.27.71-.27s.52.09.71.28c.18.19.28.42.28.71s-.09.52-.29.71-.42.28-.7.28-.52-.09-.71-.28ZM540.69,785.86v-7.54c0-.1.05-.15.15-.15h1.17c.1,0,.15.05.15.15v7.54c0,.1-.05.15-.15.15h-1.17c-.1,0-.15-.05-.15-.15Z"/>
      <path d="M553.21,778.76c.4.46.59,1.1.59,1.93v5.18c0,.1-.05.15-.15.15h-1.16c-.1,0-.15-.05-.15-.15v-4.96c0-.48-.12-.86-.35-1.14-.23-.28-.55-.42-.95-.42s-.72.14-.96.41-.36.64-.36,1.12v4.99c0,.1-.05.15-.15.15h-1.16c-.1,0-.15-.05-.15-.15v-4.96c0-.48-.12-.86-.35-1.14s-.55-.42-.94-.42-.72.14-.96.41-.36.64-.36,1.12v4.99c0,.1-.05.15-.15.15h-1.16c-.1,0-.15-.05-.15-.15v-7.54c0-.1.05-.15.15-.15h1.16c.1,0,.15.05.15.15v.46s0,.04.02.05c.02.01.03,0,.05-.02.42-.5,1.01-.75,1.76-.75.45,0,.84.09,1.17.28.33.18.58.46.76.82.03.04.06.04.09-.01.23-.37.52-.64.89-.82.36-.17.75-.26,1.16-.26.72,0,1.28.23,1.67.69Z"/>
      <path d="M559.3,784.6c.24-.17.42-.4.55-.7.03-.09.09-.13.18-.11l1.05.23c.1.03.14.09.11.19-.2.61-.53,1.08-1.02,1.42-.48.34-1.07.51-1.77.51-.8,0-1.45-.2-1.94-.6s-.81-.95-.94-1.65c-.05-.29-.08-.59-.1-.92-.02-.32-.02-.75-.02-1.29s.03-.94.08-1.25c.09-.72.4-1.3.91-1.73s1.16-.66,1.94-.66c.85,0,1.54.24,2.06.72.52.48.82,1.12.88,1.91.03.35.05.99.05,1.93,0,.1-.05.15-.15.15h-4.22s-.06.02-.06.06c0,.29.02.54.05.75.05.38.21.69.48.92.27.24.61.35,1.02.35.35,0,.64-.08.89-.25ZM557.37,779.68c-.25.24-.4.54-.46.92-.03.28-.05.58-.05.91,0,.04.02.06.06.06h2.83s.06-.02.06-.06c-.02-.41-.04-.71-.06-.89-.05-.38-.21-.69-.46-.93s-.58-.36-.97-.36-.71.12-.96.35Z"/>
      <path d="M567.99,778.76c.42.46.62,1.1.62,1.91v5.19c0,.1-.05.15-.15.15h-1.17c-.1,0-.15-.05-.15-.15v-4.98c0-.47-.12-.85-.36-1.12s-.57-.42-.98-.42-.76.14-1.01.42c-.25.28-.38.66-.38,1.13v4.96c0,.1-.05.15-.15.15h-1.17c-.1,0-.15-.05-.15-.15v-7.54c0-.1.05-.15.15-.15h1.17c.1,0,.15.05.15.15v.48s0,.05.02.05c.02,0,.03,0,.05-.04.4-.5.99-.75,1.76-.75s1.33.23,1.75.69Z"/>
      <path d="M573.75,779.31h-1.37s-.06.02-.06.06v4.22c0,.42.08.72.25.89.17.17.43.25.79.25h.29c.1,0,.15.05.15.15v.97c0,.1-.05.15-.15.15l-.6.02c-.72,0-1.26-.14-1.63-.41-.36-.27-.55-.78-.55-1.52v-4.73s-.02-.06-.06-.06h-.75c-.1,0-.15-.05-.15-.15v-.83c0-.1.05-.15.15-.15h.75s.06-.02.06-.06v-1.77c0-.1.05-.15.15-.15h1.12c.1,0,.15.05.15.15v1.77s.02.06.06.06h1.37c.1,0,.15.05.15.15v.83c0,.1-.05.15-.15.15Z"/>
      <path d="M576.16,785.51c-.51-.42-.82-.98-.92-1.7-.08-.51-.12-1.09-.12-1.73s.04-1.22.12-1.71c.1-.71.41-1.27.92-1.7.51-.42,1.17-.63,1.97-.63s1.44.21,1.96.63c.51.42.82.98.92,1.68.08.44.12,1.02.12,1.73s-.04,1.28-.12,1.73c-.1.72-.41,1.29-.92,1.7-.51.42-1.16.62-1.96.62s-1.46-.21-1.97-.62ZM579.1,784.51c.26-.24.42-.55.49-.94.05-.46.08-.96.08-1.48s-.03-1.02-.08-1.46c-.06-.39-.22-.7-.49-.94s-.59-.35-.98-.35-.7.12-.96.35-.42.55-.49.94c-.04.36-.06.85-.06,1.46s.02,1.12.06,1.48c.06.39.22.7.49.94s.59.35.98.35.7-.12.96-.35Z"/>
      <path d="M505.25,797.8h-1.37s-.06.02-.06.06v4.22c0,.42.08.72.25.89.17.17.43.25.79.25h.29c.1,0,.15.05.15.15v.97c0,.1-.05.15-.15.15l-.6.02c-.72,0-1.26-.14-1.63-.41-.36-.27-.55-.78-.55-1.52v-4.73s-.02-.06-.06-.06h-.75c-.1,0-.15-.05-.15-.15v-.83c0-.1.05-.15.15-.15h.75s.06-.02.06-.06v-1.77c0-.1.05-.15.15-.15h1.12c.1,0,.15.05.15.15v1.77s.02.06.06.06h1.37c.1,0,.15.05.15.15v.83c0,.1-.05.15-.15.15Z"/>
      <path d="M510.54,803.1c.24-.17.42-.4.55-.7.03-.09.09-.13.18-.11l1.05.23c.1.03.14.09.11.19-.2.61-.53,1.08-1.02,1.42-.48.34-1.07.51-1.77.51-.8,0-1.45-.2-1.94-.6s-.81-.95-.94-1.65c-.05-.29-.08-.59-.1-.92-.02-.32-.02-.75-.02-1.29s.03-.94.08-1.25c.09-.72.4-1.3.91-1.73s1.16-.66,1.94-.66c.85,0,1.54.24,2.06.72.52.48.82,1.12.88,1.91.03.35.05.99.05,1.93,0,.1-.05.15-.15.15h-4.22s-.06.02-.06.06c0,.29.02.54.05.75.05.38.21.69.48.92.27.24.61.35,1.02.35.35,0,.64-.08.89-.25ZM508.61,798.17c-.25.24-.4.54-.46.92-.03.28-.05.58-.05.91,0,.04.02.06.06.06h2.83s.06-.02.06-.06c-.02-.41-.04-.71-.06-.89-.05-.38-.21-.69-.46-.93s-.58-.36-.97-.36-.71.12-.96.35Z"/>
      <path d="M518.2,796.77c.07.03.1.09.08.18l-.23,1.17c-.01.1-.07.13-.18.09-.15-.05-.32-.08-.51-.08-.13,0-.23,0-.29.02-.4.03-.73.21-1,.55-.27.33-.4.73-.4,1.19v4.45c0,.1-.05.15-.15.15h-1.17c-.1,0-.15-.05-.15-.15v-7.54c0-.1.05-.15.15-.15h1.17c.1,0,.15.05.15.15v.99s0,.05.02.05c.02,0,.03,0,.04-.02.37-.83.93-1.25,1.7-1.25.31,0,.57.06.79.18Z"/>
      <path d="M523.46,796.77c.07.03.1.09.08.18l-.23,1.17c-.01.1-.07.13-.18.09-.15-.05-.32-.08-.51-.08-.13,0-.23,0-.29.02-.4.03-.73.21-1,.55-.27.33-.4.73-.4,1.19v4.45c0,.1-.05.15-.15.15h-1.17c-.1,0-.15-.05-.15-.15v-7.54c0-.1.05-.15.15-.15h1.17c.1,0,.15.05.15.15v.99s0,.05.02.05c.02,0,.03,0,.04-.02.37-.83.93-1.25,1.7-1.25.31,0,.57.06.79.18Z"/>
      <path d="M524.83,795.15c-.18-.18-.28-.42-.28-.71s.09-.54.28-.72c.19-.18.42-.27.71-.27s.52.09.71.28c.18.19.28.42.28.71s-.09.52-.29.71-.42.28-.7.28-.52-.09-.71-.28ZM524.78,804.35v-7.54c0-.1.05-.15.15-.15h1.17c.1,0,.15.05.15.15v7.54c0,.1-.05.15-.15.15h-1.17c-.1,0-.15-.05-.15-.15Z"/>
      <path d="M531.58,797.8h-1.37s-.06.02-.06.06v4.22c0,.42.08.72.25.89.17.17.43.25.79.25h.29c.1,0,.15.05.15.15v.97c0,.1-.05.15-.15.15l-.6.02c-.72,0-1.26-.14-1.63-.41-.36-.27-.55-.78-.55-1.52v-4.73s-.02-.06-.06-.06h-.75c-.1,0-.15-.05-.15-.15v-.83c0-.1.05-.15.15-.15h.75s.06-.02.06-.06v-1.77c0-.1.05-.15.15-.15h1.12c.1,0,.15.05.15.15v1.77s.02.06.06.06h1.37c.1,0,.15.05.15.15v.83c0,.1-.05.15-.15.15Z"/>
      <path d="M534,804.01c-.51-.42-.82-.98-.92-1.7-.08-.51-.12-1.09-.12-1.73s.04-1.22.12-1.71c.1-.71.41-1.27.92-1.7.51-.42,1.17-.63,1.97-.63s1.44.21,1.96.63c.51.42.82.98.92,1.68.08.44.12,1.02.12,1.73s-.04,1.28-.12,1.73c-.1.72-.41,1.29-.92,1.7-.51.42-1.16.62-1.96.62s-1.46-.21-1.97-.62ZM536.93,803c.26-.24.42-.55.49-.94.05-.46.08-.96.08-1.48s-.03-1.02-.08-1.46c-.06-.39-.22-.7-.49-.94s-.59-.35-.98-.35-.7.12-.96.35-.42.55-.49.94c-.04.36-.06.85-.06,1.46s.02,1.12.06,1.48c.06.39.22.7.49.94s.59.35.98.35.7-.12.96-.35Z"/>
      <path d="M544.72,796.77c.07.03.1.09.08.18l-.23,1.17c-.01.1-.07.13-.18.09-.15-.05-.32-.08-.51-.08-.13,0-.23,0-.29.02-.4.03-.73.21-1,.55-.27.33-.4.73-.4,1.19v4.45c0,.1-.05.15-.15.15h-1.17c-.1,0-.15-.05-.15-.15v-7.54c0-.1.05-.15.15-.15h1.17c.1,0,.15.05.15.15v.99s0,.05.02.05c.02,0,.03,0,.04-.02.37-.83.93-1.25,1.7-1.25.31,0,.57.06.79.18Z"/>
      <path d="M546.09,795.15c-.18-.18-.28-.42-.28-.71s.09-.54.28-.72c.19-.18.42-.27.71-.27s.52.09.71.28c.18.19.28.42.28.71s-.09.52-.29.71-.42.28-.7.28-.52-.09-.71-.28ZM546.05,804.35v-7.54c0-.1.05-.15.15-.15h1.17c.1,0,.15.05.15.15v7.54c0,.1-.05.15-.15.15h-1.17c-.1,0-.15-.05-.15-.15Z"/>
      <path d="M554.27,797.26c.51.48.77,1.1.77,1.87v5.22c0,.1-.05.15-.15.15h-1.17c-.1,0-.15-.05-.15-.15v-.45s0-.03-.02-.04c-.02,0-.03,0-.05.02-.46.49-1.1.74-1.93.74-.67,0-1.24-.18-1.71-.55-.47-.36-.71-.95-.71-1.76s.27-1.48.82-1.92,1.3-.66,2.24-.66h1.29s.06-.02.06-.06v-.43c0-.44-.12-.79-.35-1.05-.23-.26-.56-.38-.99-.38-.34,0-.62.08-.84.25-.22.17-.36.4-.41.69-.01.09-.07.14-.17.14l-1.26-.08s-.08-.01-.11-.04c-.03-.03-.04-.06-.03-.1.06-.64.35-1.15.87-1.55.52-.4,1.17-.59,1.95-.59.85,0,1.54.24,2.05.72ZM553.07,802.98c.33-.26.5-.6.5-1.03v-.99s-.02-.06-.06-.06h-1.19c-.5,0-.91.11-1.21.34-.3.23-.46.55-.46.99,0,.38.11.67.34.85.23.19.52.29.89.29.45,0,.84-.13,1.18-.38Z"/>
      <path d="M556.76,804.35v-10.48c0-.1.05-.15.15-.15h1.17c.1,0,.15.05.15.15v10.48c0,.1-.05.15-.15.15h-1.17c-.1,0-.15-.05-.15-.15Z"/>
    </g>
    <g>
      <path d="M376.97,771.88v.99c0,.1-.05.15-.15.15h-2.48s-.06.02-.06.06v9.28c0,.1-.05.15-.15.15h-1.17c-.1,0-.15-.05-.15-.15v-9.28s-.02-.06-.06-.06h-2.37c-.1,0-.15-.05-.15-.15v-.99c0-.1.05-.15.15-.15h6.46c.1,0,.15.05.15.15Z"/>
      <path d="M381.86,774.78c.07.03.1.09.08.18l-.23,1.17c-.01.1-.07.13-.19.09-.15-.05-.32-.08-.51-.08-.13,0-.23,0-.29.02-.4.03-.73.21-1,.55-.27.33-.4.73-.4,1.19v4.45c0,.1-.05.15-.15.15h-1.17c-.1,0-.15-.05-.15-.15v-7.54c0-.1.05-.15.15-.15h1.17c.1,0,.15.05.15.15v.99s0,.05.02.05c.02,0,.03,0,.04-.02.37-.83.94-1.25,1.7-1.25.31,0,.57.06.79.18Z"/>
      <path d="M387.77,775.26c.51.48.77,1.1.77,1.87v5.22c0,.1-.05.15-.15.15h-1.17c-.1,0-.15-.05-.15-.15v-.45s0-.03-.02-.04c-.02,0-.03,0-.05.02-.46.49-1.1.74-1.93.74-.67,0-1.24-.18-1.71-.55-.47-.36-.71-.95-.71-1.76s.27-1.48.82-1.92c.55-.44,1.3-.66,2.24-.66h1.29s.06-.02.06-.06v-.43c0-.44-.12-.79-.35-1.05-.23-.26-.56-.38-.99-.38-.34,0-.62.08-.84.25-.22.17-.36.4-.41.69-.01.09-.07.14-.17.14l-1.26-.08s-.08-.01-.11-.04-.04-.06-.03-.1c.06-.64.35-1.15.87-1.55.52-.4,1.17-.59,1.95-.59.85,0,1.54.24,2.05.72ZM386.56,780.99c.33-.26.5-.6.5-1.03v-.99s-.02-.06-.06-.06h-1.19c-.5,0-.91.11-1.21.34-.3.23-.45.55-.45.99,0,.38.11.67.34.85.23.19.52.29.89.29.45,0,.85-.13,1.18-.38Z"/>
      <path d="M395.35,775.26c.42.46.62,1.1.62,1.91v5.19c0,.1-.05.15-.15.15h-1.17c-.1,0-.15-.05-.15-.15v-4.98c0-.47-.12-.85-.36-1.12-.24-.28-.57-.42-.98-.42s-.76.14-1.01.42c-.25.28-.38.66-.38,1.13v4.96c0,.1-.05.15-.15.15h-1.17c-.1,0-.15-.05-.15-.15v-7.54c0-.1.05-.15.15-.15h1.17c.1,0,.15.05.15.15v.48s0,.05.02.05c.02,0,.03,0,.05-.04.4-.5.99-.75,1.76-.75s1.33.23,1.75.69Z"/>
      <path d="M398.26,782.02c-.51-.39-.76-.89-.76-1.51v-.15c0-.1.05-.15.15-.15h1.09c.1,0,.15.05.15.15v.09c0,.28.13.52.4.72.27.21.6.31.99.31s.71-.1.95-.29.36-.44.36-.72c0-.23-.07-.41-.21-.55-.14-.14-.31-.26-.51-.35-.2-.09-.5-.2-.89-.33-.48-.15-.89-.32-1.23-.49-.33-.17-.62-.41-.85-.72-.24-.31-.35-.71-.35-1.19,0-.69.24-1.23.73-1.63.49-.4,1.14-.6,1.95-.6s1.48.21,1.98.62c.5.41.75.95.75,1.62v.03c0,.1-.05.15-.15.15h-1.08c-.1,0-.15-.05-.15-.15v-.06c0-.3-.12-.54-.37-.74s-.57-.29-.97-.29-.69.09-.92.28c-.23.18-.35.42-.35.71,0,.22.07.39.2.53s.3.25.5.35.5.21.89.34c.51.17.94.34,1.27.51s.62.4.87.71c.25.31.37.7.37,1.19,0,.69-.25,1.23-.76,1.63-.5.4-1.18.6-2.03.6s-1.52-.2-2.03-.59Z"/>
      <path d="M406.77,773.27c-.17.21-.25.57-.25,1.07v.26s.02.06.06.06h1.34c.1,0,.15.05.15.15v.91c0,.1-.05.15-.15.15h-1.34s-.06.02-.06.06v6.41c0,.1-.05.15-.15.15h-1.17c-.1,0-.15-.05-.15-.15v-6.41s-.02-.06-.06-.06h-.8c-.1,0-.15-.05-.15-.15v-.91c0-.1.05-.15.15-.15h.8s.06-.02.06-.06v-.34c0-.65.08-1.16.25-1.53.16-.38.43-.64.79-.81.36-.16.87-.25,1.5-.25h.35c.1,0,.15.05.15.15l-.02.97c0,.1-.05.15-.15.15h-.26c-.42,0-.72.11-.89.32Z"/>
      <path d="M410.09,782.01c-.51-.42-.82-.98-.92-1.7-.08-.51-.12-1.09-.12-1.73s.04-1.22.12-1.71c.1-.71.41-1.27.92-1.7.51-.42,1.17-.63,1.97-.63s1.44.21,1.96.63c.51.42.82.98.92,1.68.08.44.12,1.02.12,1.73s-.04,1.28-.12,1.73c-.1.72-.41,1.29-.92,1.7-.51.42-1.16.62-1.96.62s-1.46-.21-1.97-.62ZM413.02,781c.26-.24.42-.55.49-.94.05-.46.08-.96.08-1.48s-.03-1.02-.08-1.46c-.06-.39-.22-.7-.49-.94-.26-.24-.59-.35-.98-.35s-.7.12-.96.35c-.26.24-.42.55-.49.94-.04.36-.06.85-.06,1.46s.02,1.12.06,1.48c.06.39.22.7.49.94.26.24.59.35.98.35s.7-.12.96-.35Z"/>
      <path d="M420.81,774.78c.07.03.1.09.08.18l-.23,1.17c-.01.1-.07.13-.19.09-.15-.05-.32-.08-.51-.08-.13,0-.23,0-.29.02-.4.03-.73.21-1,.55-.27.33-.4.73-.4,1.19v4.45c0,.1-.05.15-.15.15h-1.17c-.1,0-.15-.05-.15-.15v-7.54c0-.1.05-.15.15-.15h1.17c.1,0,.15.05.15.15v.99s0,.05.02.05c.02,0,.03,0,.04-.02.37-.83.94-1.25,1.7-1.25.31,0,.57.06.79.18Z"/>
      <path d="M431.07,775.26c.4.46.59,1.1.59,1.93v5.18c0,.1-.05.15-.15.15h-1.16c-.1,0-.15-.05-.15-.15v-4.96c0-.48-.12-.86-.35-1.14-.23-.28-.55-.42-.95-.42s-.72.14-.96.41c-.24.27-.36.64-.36,1.12v4.99c0,.1-.05.15-.15.15h-1.16c-.1,0-.15-.05-.15-.15v-4.96c0-.48-.12-.86-.35-1.14s-.55-.42-.94-.42-.72.14-.96.41c-.24.27-.36.64-.36,1.12v4.99c0,.1-.05.15-.15.15h-1.16c-.1,0-.15-.05-.15-.15v-7.54c0-.1.05-.15.15-.15h1.16c.1,0,.15.05.15.15v.46s0,.04.02.05c.02.01.03,0,.05-.02.42-.5,1.01-.75,1.76-.75.45,0,.84.09,1.17.28.33.18.58.46.75.82.03.04.06.04.09-.01.23-.37.52-.64.89-.82s.75-.26,1.16-.26c.72,0,1.28.23,1.67.69Z"/>
      <path d="M438.21,775.26c.51.48.77,1.1.77,1.87v5.22c0,.1-.05.15-.15.15h-1.17c-.1,0-.15-.05-.15-.15v-.45s0-.03-.02-.04c-.02,0-.03,0-.05.02-.46.49-1.1.74-1.93.74-.67,0-1.24-.18-1.71-.55-.47-.36-.71-.95-.71-1.76s.27-1.48.82-1.92c.55-.44,1.3-.66,2.24-.66h1.29s.06-.02.06-.06v-.43c0-.44-.12-.79-.35-1.05-.23-.26-.56-.38-.99-.38-.34,0-.62.08-.84.25-.22.17-.36.4-.41.69-.01.09-.07.14-.17.14l-1.26-.08s-.08-.01-.11-.04-.04-.06-.03-.1c.06-.64.35-1.15.87-1.55.52-.4,1.17-.59,1.95-.59.85,0,1.54.24,2.05.72ZM437,780.99c.33-.26.5-.6.5-1.03v-.99s-.02-.06-.06-.06h-1.19c-.5,0-.91.11-1.21.34-.3.23-.45.55-.45.99,0,.38.11.67.34.85.23.19.52.29.89.29.45,0,.85-.13,1.18-.38Z"/>
      <path d="M444.96,780.05c0-.1.07-.15.17-.14l1.16.08c.1,0,.15.06.15.17l-.05.26c-.08.58-.33,1.06-.74,1.45-.41.39-.94.63-1.59.72-.06.02-.07.05-.02.08.45.44.68.91.68,1.4,0,.12-.02.25-.05.37-.08.33-.24.57-.48.71s-.51.22-.83.22c-.2,0-.42-.03-.66-.09-.09-.03-.13-.09-.12-.18l.08-.49s.03-.07.06-.1c.03-.03.07-.03.12-.02.09.03.18.05.26.05.17,0,.32-.05.43-.16.11-.11.17-.27.17-.49s-.07-.42-.2-.63c-.13-.22-.32-.42-.55-.62-.01-.02-.04-.03-.08-.03-.62-.1-1.12-.36-1.51-.76-.39-.41-.63-.91-.72-1.52-.07-.46-.11-1.04-.11-1.74,0-.61.04-1.18.11-1.71.11-.7.43-1.26.94-1.68.51-.42,1.16-.63,1.94-.63s1.4.2,1.93.6c.52.4.84.91.94,1.54l.06.37c0,.09-.05.15-.15.17l-1.16.09h-.03c-.06,0-.1-.04-.12-.11l-.02-.06-.03-.18c-.05-.32-.21-.59-.46-.81s-.58-.33-.97-.33-.71.12-.96.35c-.25.24-.4.55-.45.94-.05.43-.08.92-.08,1.46,0,.61.03,1.1.09,1.5.05.39.2.7.45.93.25.23.56.35.96.35s.73-.11.99-.33c.26-.22.41-.5.45-.82l.02-.15Z"/>
      <path d="M452.71,775.26c.51.48.77,1.1.77,1.87v5.22c0,.1-.05.15-.15.15h-1.17c-.1,0-.15-.05-.15-.15v-.45s0-.03-.02-.04c-.02,0-.03,0-.05.02-.46.49-1.1.74-1.93.74-.67,0-1.24-.18-1.71-.55-.47-.36-.71-.95-.71-1.76s.27-1.48.82-1.92c.55-.44,1.3-.66,2.24-.66h1.29s.06-.02.06-.06v-.43c0-.44-.12-.79-.35-1.05-.23-.26-.56-.38-.99-.38-.34,0-.62.08-.84.25-.22.17-.36.4-.41.69-.01.09-.07.14-.17.14l-1.26-.08s-.08-.01-.11-.04-.04-.06-.03-.1c.06-.64.35-1.15.87-1.55.52-.4,1.17-.59,1.95-.59.85,0,1.54.24,2.05.72ZM451.1,773.21c-.13-.05-.28-.13-.45-.23-.05-.03-.13-.07-.22-.13s-.18-.1-.25-.12c-.07-.03-.15-.04-.23-.04-.14,0-.27.03-.39.08-.11.06-.22.16-.32.3-.06.09-.13.11-.22.05l-.43-.34c-.07-.06-.09-.13-.05-.2.14-.3.33-.52.55-.67.23-.15.48-.22.76-.22.17,0,.33.03.48.09.14.06.3.15.48.26.05.03.12.08.22.13.09.06.18.1.25.13.08.03.16.05.24.05.3,0,.53-.14.71-.42.06-.09.13-.11.22-.05l.42.32s.06.08.06.12-.02.09-.05.14c-.15.28-.35.48-.59.62-.24.13-.49.2-.75.2-.15,0-.3-.03-.43-.08ZM451.5,780.99c.33-.26.5-.6.5-1.03v-.99s-.02-.06-.06-.06h-1.19c-.5,0-.91.11-1.21.34-.3.23-.45.55-.45.99,0,.38.11.67.34.85.23.19.52.29.89.29.45,0,.85-.13,1.18-.38Z"/>
      <path d="M456.02,782.01c-.51-.42-.82-.98-.92-1.7-.08-.51-.12-1.09-.12-1.73s.04-1.22.12-1.71c.1-.71.41-1.27.92-1.7.51-.42,1.17-.63,1.97-.63s1.44.21,1.96.63c.51.42.82.98.92,1.68.08.44.12,1.02.12,1.73s-.04,1.28-.12,1.73c-.1.72-.41,1.29-.92,1.7-.51.42-1.16.62-1.96.62s-1.46-.21-1.97-.62ZM458.96,781c.26-.24.42-.55.49-.94.05-.46.08-.96.08-1.48s-.03-1.02-.08-1.46c-.06-.39-.22-.7-.49-.94-.26-.24-.59-.35-.98-.35s-.7.12-.96.35c-.26.24-.42.55-.49.94-.04.36-.06.85-.06,1.46s.02,1.12.06,1.48c.06.39.22.7.49.94.26.24.59.35.98.35s.7-.12.96-.35Z"/>
      <path d="M377.83,790.22h1.17c.1,0,.15.05.15.15v10.48c0,.1-.05.15-.15.15h-1.17c-.1,0-.15-.05-.15-.15v-.52s-.01-.04-.03-.05c-.02,0-.04,0-.05.02-.37.55-.95.83-1.74.83-.64,0-1.15-.18-1.54-.55-.39-.37-.68-.94-.86-1.71-.12-.53-.18-1.12-.18-1.76s.05-1.24.15-1.76c.31-1.54,1.15-2.31,2.51-2.31.4,0,.73.07,1,.2.27.13.49.33.66.6.02.02.04.03.05.03s.02-.01.02-.05v-3.45c0-.1.05-.15.15-.15ZM377.66,797.07c0-.77-.07-1.36-.22-1.76-.09-.33-.23-.58-.42-.75-.19-.17-.44-.25-.75-.25-.61,0-1.03.32-1.26.97-.16.46-.25,1.06-.25,1.79s.07,1.31.2,1.71c.22.71.65,1.06,1.29,1.06.6,0,1-.34,1.2-1.03.13-.41.2-.99.2-1.74Z"/>
      <path d="M381.92,800.5c-.51-.42-.82-.98-.92-1.7-.08-.51-.12-1.09-.12-1.73s.04-1.22.12-1.71c.1-.71.41-1.27.92-1.7.51-.42,1.17-.63,1.97-.63s1.44.21,1.96.63c.51.42.82.98.92,1.68.08.44.12,1.02.12,1.73s-.04,1.28-.12,1.73c-.1.72-.41,1.29-.92,1.7-.51.42-1.16.62-1.96.62s-1.46-.21-1.97-.62ZM384.85,799.49c.26-.24.42-.55.49-.94.05-.46.08-.96.08-1.48s-.03-1.02-.08-1.46c-.06-.39-.22-.7-.49-.94-.26-.24-.59-.35-.98-.35s-.7.12-.96.35c-.26.24-.42.55-.49.94-.04.36-.06.85-.06,1.46s.02,1.12.06,1.48c.06.39.22.7.49.94.26.24.59.35.98.35s.7-.12.96-.35Z"/>
      <path d="M395.96,793.16h1.17c.1,0,.15.05.15.15v7.54c0,.1-.05.15-.15.15h-1.17c-.1,0-.15-.05-.15-.15v-.48s0-.04-.02-.05c-.02-.01-.03,0-.05.01-.36.51-.92.77-1.69.77-.7,0-1.28-.21-1.73-.62-.46-.41-.69-1.01-.69-1.79v-5.39c0-.1.05-.15.15-.15h1.16c.1,0,.15.05.15.15v4.99c0,.48.12.86.35,1.12.23.27.56.4.99.4s.76-.14,1.01-.42c.25-.28.38-.67.38-1.15v-4.95c0-.1.05-.15.15-.15Z"/>
      <path d="M399.63,800.51c-.51-.39-.76-.89-.76-1.51v-.15c0-.1.05-.15.15-.15h1.09c.1,0,.15.05.15.15v.09c0,.28.13.52.4.72.27.21.6.31.99.31s.71-.1.95-.29.36-.44.36-.72c0-.23-.07-.41-.21-.55-.14-.14-.31-.26-.51-.35-.2-.09-.5-.2-.89-.33-.48-.15-.89-.32-1.23-.49-.33-.17-.62-.41-.85-.72-.24-.31-.35-.71-.35-1.19,0-.69.24-1.23.73-1.63.49-.4,1.14-.6,1.95-.6s1.48.21,1.98.62c.5.41.75.95.75,1.62v.03c0,.1-.05.15-.15.15h-1.08c-.1,0-.15-.05-.15-.15v-.06c0-.3-.12-.54-.37-.74s-.57-.29-.97-.29-.69.09-.92.28c-.23.18-.35.42-.35.71,0,.22.07.39.2.53s.3.25.5.35.5.21.89.34c.51.17.94.34,1.27.51s.62.4.87.71c.25.31.37.7.37,1.19,0,.69-.25,1.23-.76,1.63-.5.4-1.18.6-2.03.6s-1.52-.2-2.03-.59Z"/>
      <path d="M406.76,800.5c-.51-.42-.82-.98-.92-1.7-.08-.51-.12-1.09-.12-1.73s.04-1.22.12-1.71c.1-.71.41-1.27.92-1.7.51-.42,1.17-.63,1.97-.63s1.44.21,1.96.63c.51.42.82.98.92,1.68.08.44.12,1.02.12,1.73s-.04,1.28-.12,1.73c-.1.72-.41,1.29-.92,1.7-.51.42-1.16.62-1.96.62s-1.46-.21-1.97-.62ZM409.69,799.49c.26-.24.42-.55.49-.94.05-.46.08-.96.08-1.48s-.03-1.02-.08-1.46c-.06-.39-.22-.7-.49-.94-.26-.24-.59-.35-.98-.35s-.7.12-.96.35c-.26.24-.42.55-.49.94-.04.36-.06.85-.06,1.46s.02,1.12.06,1.48c.06.39.22.7.49.94.26.24.59.35.98.35s.7-.12.96-.35Z"/>
      <path d="M420.89,790.22h1.17c.1,0,.15.05.15.15v10.48c0,.1-.05.15-.15.15h-1.17c-.1,0-.15-.05-.15-.15v-.52s-.01-.04-.03-.05c-.02,0-.04,0-.05.02-.37.55-.95.83-1.74.83-.64,0-1.15-.18-1.54-.55-.39-.37-.68-.94-.86-1.71-.12-.53-.18-1.12-.18-1.76s.05-1.24.15-1.76c.31-1.54,1.15-2.31,2.51-2.31.4,0,.73.07,1,.2.27.13.49.33.66.6.02.02.04.03.05.03s.02-.01.02-.05v-3.45c0-.1.05-.15.15-.15ZM420.72,797.07c0-.77-.07-1.36-.22-1.76-.09-.33-.23-.58-.42-.75-.19-.17-.44-.25-.75-.25-.61,0-1.03.32-1.26.97-.16.46-.25,1.06-.25,1.79s.07,1.31.2,1.71c.22.71.65,1.06,1.29,1.06.6,0,1-.34,1.2-1.03.13-.41.2-.99.2-1.74Z"/>
      <path d="M424.97,800.5c-.51-.42-.82-.98-.92-1.7-.08-.51-.12-1.09-.12-1.73s.04-1.22.12-1.71c.1-.71.41-1.27.92-1.7.51-.42,1.17-.63,1.97-.63s1.44.21,1.96.63c.51.42.82.98.92,1.68.08.44.12,1.02.12,1.73s-.04,1.28-.12,1.73c-.1.72-.41,1.29-.92,1.7-.51.42-1.16.62-1.96.62s-1.46-.21-1.97-.62ZM427.91,799.49c.26-.24.42-.55.49-.94.05-.46.08-.96.08-1.48s-.03-1.02-.08-1.46c-.06-.39-.22-.7-.49-.94-.26-.24-.59-.35-.98-.35s-.7.12-.96.35c-.26.24-.42.55-.49.94-.04.36-.06.85-.06,1.46s.02,1.12.06,1.48c.06.39.22.7.49.94.26.24.59.35.98.35s.7-.12.96-.35Z"/>
      <path d="M435.21,800.51c-.51-.39-.76-.89-.76-1.51v-.15c0-.1.05-.15.15-.15h1.09c.1,0,.15.05.15.15v.09c0,.28.13.52.4.72.27.21.6.31.99.31s.71-.1.95-.29.36-.44.36-.72c0-.23-.07-.41-.21-.55-.14-.14-.31-.26-.51-.35-.2-.09-.5-.2-.89-.33-.48-.15-.89-.32-1.23-.49-.33-.17-.62-.41-.85-.72-.24-.31-.35-.71-.35-1.19,0-.69.24-1.23.73-1.63.49-.4,1.14-.6,1.95-.6s1.48.21,1.98.62c.5.41.75.95.75,1.62v.03c0,.1-.05.15-.15.15h-1.08c-.1,0-.15-.05-.15-.15v-.06c0-.3-.12-.54-.37-.74s-.57-.29-.97-.29-.69.09-.92.28c-.23.18-.35.42-.35.71,0,.22.07.39.2.53s.3.25.5.35.5.21.89.34c.51.17.94.34,1.27.51s.62.4.87.71c.25.31.37.7.37,1.19,0,.69-.25,1.23-.76,1.63-.5.4-1.18.6-2.03.6s-1.52-.2-2.03-.59Z"/>
      <path d="M442.34,800.5c-.51-.42-.82-.98-.92-1.7-.08-.51-.12-1.09-.12-1.73s.04-1.22.12-1.71c.1-.71.41-1.27.92-1.7.51-.42,1.17-.63,1.97-.63s1.44.21,1.96.63c.51.42.82.98.92,1.68.08.44.12,1.02.12,1.73s-.04,1.28-.12,1.73c-.1.72-.41,1.29-.92,1.7-.51.42-1.16.62-1.96.62s-1.46-.21-1.97-.62ZM445.27,799.49c.26-.24.42-.55.49-.94.05-.46.08-.96.08-1.48s-.03-1.02-.08-1.46c-.06-.39-.22-.7-.49-.94-.26-.24-.59-.35-.98-.35s-.7.12-.96.35c-.26.24-.42.55-.49.94-.04.36-.06.85-.06,1.46s.02,1.12.06,1.48c.06.39.22.7.49.94.26.24.59.35.98.35s.7-.12.96-.35Z"/>
      <path d="M448.99,800.85v-10.48c0-.1.05-.15.15-.15h1.17c.1,0,.15.05.15.15v10.48c0,.1-.05.15-.15.15h-1.17c-.1,0-.15-.05-.15-.15Z"/>
      <path d="M453.17,800.5c-.51-.42-.82-.98-.92-1.7-.08-.51-.12-1.09-.12-1.73s.04-1.22.12-1.71c.1-.71.41-1.27.92-1.7.51-.42,1.17-.63,1.97-.63s1.44.21,1.96.63c.51.42.82.98.92,1.68.08.44.12,1.02.12,1.73s-.04,1.28-.12,1.73c-.1.72-.41,1.29-.92,1.7-.51.42-1.16.62-1.96.62s-1.46-.21-1.97-.62ZM456.1,799.49c.26-.24.42-.55.49-.94.05-.46.08-.96.08-1.48s-.03-1.02-.08-1.46c-.06-.39-.22-.7-.49-.94-.26-.24-.59-.35-.98-.35s-.7.12-.96.35c-.26.24-.42.55-.49.94-.04.36-.06.85-.06,1.46s.02,1.12.06,1.48c.06.39.22.7.49.94.26.24.59.35.98.35s.7-.12.96-.35Z"/>
    </g>
    <text class="cls-10" transform="translate(276.49 718.21)"><tspan x="0" y="0">O</tspan><tspan class="cls-32" x="8.35" y="0">r</tspan><tspan x="13.5" y="0">dena</tspan><tspan class="cls-36" x="43.21" y="0">m</tspan><tspan x="54.59" y="0">en</tspan><tspan class="cls-26" x="69.46" y="0">t</tspan><tspan x="74.33" y="0">o </tspan><tspan class="cls-26" x="6.65" y="18.49">t</tspan><tspan x="11.52" y="18.49">erri</tspan><tspan class="cls-26" x="32.98" y="18.49">t</tspan><tspan x="37.85" y="18.49">orial e </tspan><tspan class="cls-32" x="-.23" y="36.98">r</tspan><tspan x="4.92" y="36.98">egularizaç</tspan><tspan class="cls-36" x="67.37" y="36.98">ã</tspan><tspan x="74.56" y="36.98">o </tspan><tspan x="13.71" y="55.47">fu</tspan><tspan class="cls-36" x="26.2" y="55.47">n</tspan><tspan x="33.66" y="55.47">diária</tspan></text>
    <g>
      <path d="M173,545.31c-.5-.26-.88-.63-1.16-1.11-.27-.48-.41-1.03-.41-1.66v-4.73c0-.96.3-1.72.9-2.29s1.39-.86,2.38-.86,1.78.28,2.37.85c.6.57.89,1.32.89,2.25v.12c0,.05-.02.09-.05.12-.03.03-.07.05-.11.05l-1.17.06c-.1,0-.15-.05-.15-.15v-.23c0-.53-.16-.96-.49-1.29-.33-.33-.76-.49-1.29-.49s-.97.16-1.3.49c-.33.33-.5.76-.5,1.29v4.9c0,.53.17.97.5,1.29.33.33.77.49,1.3.49s.97-.17,1.29-.49c.33-.33.49-.76.49-1.29v-.22c0-.1.05-.15.15-.15l1.17.06c.1,0,.15.05.15.15v.11c0,.62-.14,1.16-.41,1.63-.27.47-.66.84-1.15,1.09-.49.26-1.06.38-1.71.38s-1.22-.13-1.72-.39Z"/>
      <path d="M180.48,545.08c-.51-.42-.82-.98-.92-1.7-.08-.51-.12-1.09-.12-1.73s.04-1.22.12-1.71c.1-.71.41-1.27.92-1.7.51-.42,1.17-.63,1.97-.63s1.44.21,1.96.63c.51.42.82.98.92,1.68.08.44.12,1.02.12,1.73s-.04,1.28-.12,1.73c-.1.72-.41,1.29-.92,1.7-.51.42-1.16.62-1.96.62s-1.46-.21-1.97-.62ZM183.41,544.07c.26-.24.42-.55.49-.94.05-.46.08-.96.08-1.48s-.03-1.02-.08-1.46c-.06-.39-.22-.7-.49-.94-.26-.24-.59-.35-.98-.35s-.7.12-.96.35c-.26.24-.42.55-.49.94-.04.36-.06.85-.06,1.46s.02,1.12.06,1.48c.06.39.22.7.49.94.26.24.59.35.98.35s.7-.12.96-.35Z"/>
      <path d="M196.2,538.32c.4.46.59,1.1.59,1.93v5.18c0,.1-.05.15-.15.15h-1.16c-.1,0-.15-.05-.15-.15v-4.96c0-.48-.12-.86-.35-1.14-.23-.28-.55-.42-.95-.42s-.72.14-.96.41c-.24.27-.36.64-.36,1.12v4.99c0,.1-.05.15-.15.15h-1.16c-.1,0-.15-.05-.15-.15v-4.96c0-.48-.12-.86-.35-1.14s-.55-.42-.94-.42-.72.14-.96.41c-.24.27-.36.64-.36,1.12v4.99c0,.1-.05.15-.15.15h-1.16c-.1,0-.15-.05-.15-.15v-7.54c0-.1.05-.15.15-.15h1.16c.1,0,.15.05.15.15v.46s0,.04.02.05c.02.01.03,0,.05-.02.42-.5,1.01-.75,1.76-.75.45,0,.84.09,1.17.28.33.18.58.46.75.82.03.04.06.04.09-.01.23-.37.52-.64.89-.82s.75-.26,1.16-.26c.72,0,1.28.23,1.67.69Z"/>
      <path d="M202.87,537.73h1.17c.1,0,.15.05.15.15v7.54c0,.1-.05.15-.15.15h-1.17c-.1,0-.15-.05-.15-.15v-.48s0-.04-.02-.05c-.02-.01-.03,0-.05.01-.36.51-.92.77-1.69.77-.7,0-1.28-.21-1.73-.62-.46-.41-.69-1.01-.69-1.79v-5.39c0-.1.05-.15.15-.15h1.16c.1,0,.15.05.15.15v4.99c0,.48.12.86.35,1.12.23.27.56.4.99.4s.76-.14,1.01-.42c.25-.28.38-.67.38-1.15v-4.95c0-.1.05-.15.15-.15Z"/>
      <path d="M211.13,538.32c.42.46.62,1.1.62,1.91v5.19c0,.1-.05.15-.15.15h-1.17c-.1,0-.15-.05-.15-.15v-4.98c0-.47-.12-.85-.36-1.12-.24-.28-.57-.42-.98-.42s-.76.14-1.01.42c-.25.28-.38.66-.38,1.13v4.96c0,.1-.05.15-.15.15h-1.17c-.1,0-.15-.05-.15-.15v-7.54c0-.1.05-.15.15-.15h1.17c.1,0,.15.05.15.15v.48s0,.05.02.05c.02,0,.03,0,.05-.04.4-.5.99-.75,1.76-.75s1.33.23,1.75.69Z"/>
      <path d="M213.73,536.22c-.19-.18-.28-.42-.28-.71s.09-.54.28-.72c.18-.18.42-.27.71-.27s.52.09.71.28c.19.19.28.42.28.71s-.1.52-.29.71-.42.28-.7.28-.52-.09-.71-.28ZM213.68,545.42v-7.54c0-.1.05-.15.15-.15h1.17c.1,0,.15.05.15.15v7.54c0,.1-.05.15-.15.15h-1.17c-.1,0-.15-.05-.15-.15Z"/>
      <path d="M218.02,545.08c-.51-.42-.82-.98-.93-1.7-.07-.46-.11-1.04-.11-1.74,0-.61.04-1.18.11-1.71.11-.7.43-1.26.94-1.68.51-.42,1.16-.63,1.94-.63s1.4.2,1.93.6c.52.4.84.91.94,1.54l.06.37c0,.09-.05.15-.15.17l-1.16.09h-.03c-.06,0-.1-.04-.12-.11l-.02-.06-.03-.18c-.05-.32-.21-.59-.46-.81s-.58-.33-.97-.33-.71.12-.96.35c-.25.24-.4.55-.45.94-.05.43-.08.92-.08,1.46,0,.61.03,1.1.09,1.5.05.39.2.7.45.93.25.23.56.35.96.35s.73-.11.99-.33c.26-.22.41-.5.45-.82l.02-.15c0-.1.07-.15.17-.14l1.16.08c.1,0,.15.06.15.17l-.05.26c-.08.66-.38,1.19-.91,1.6s-1.18.62-1.96.62-1.44-.21-1.95-.62Z"/>
      <path d="M229.15,538.33c.51.48.77,1.1.77,1.87v5.22c0,.1-.05.15-.15.15h-1.17c-.1,0-.15-.05-.15-.15v-.45s0-.03-.02-.04c-.02,0-.03,0-.05.02-.46.49-1.1.74-1.93.74-.67,0-1.24-.18-1.71-.55-.47-.36-.71-.95-.71-1.76s.27-1.48.82-1.92c.55-.44,1.3-.66,2.24-.66h1.29s.06-.02.06-.06v-.43c0-.44-.12-.79-.35-1.05-.23-.26-.56-.38-.99-.38-.34,0-.62.08-.84.25-.22.17-.36.4-.41.69-.01.09-.07.14-.17.14l-1.26-.08s-.08-.01-.11-.04-.04-.06-.03-.1c.06-.64.35-1.15.87-1.55.52-.4,1.17-.59,1.95-.59.85,0,1.54.24,2.05.72ZM227.94,544.05c.33-.26.5-.6.5-1.03v-.99s-.02-.06-.06-.06h-1.19c-.5,0-.91.11-1.21.34-.3.23-.45.55-.45.99,0,.38.11.67.34.85.23.19.52.29.89.29.45,0,.85-.13,1.18-.38Z"/>
      <path d="M235.9,543.11c0-.1.07-.15.17-.14l1.16.08c.1,0,.15.06.15.17l-.05.26c-.08.58-.33,1.06-.74,1.45-.41.39-.94.63-1.59.72-.06.02-.07.05-.02.08.45.44.68.91.68,1.4,0,.12-.02.25-.05.37-.08.33-.24.57-.48.71s-.51.22-.83.22c-.2,0-.42-.03-.66-.09-.09-.03-.13-.09-.12-.18l.08-.49s.03-.07.06-.1c.03-.03.07-.03.12-.02.09.03.18.05.26.05.17,0,.32-.05.43-.16.11-.11.17-.27.17-.49s-.07-.42-.2-.63c-.13-.22-.32-.42-.55-.62-.01-.02-.04-.03-.08-.03-.62-.1-1.12-.36-1.51-.76-.39-.41-.63-.91-.72-1.52-.07-.46-.11-1.04-.11-1.74,0-.61.04-1.18.11-1.71.11-.7.43-1.26.94-1.68.51-.42,1.16-.63,1.94-.63s1.4.2,1.93.6c.52.4.84.91.94,1.54l.06.37c0,.09-.05.15-.15.17l-1.16.09h-.03c-.06,0-.1-.04-.12-.11l-.02-.06-.03-.18c-.05-.32-.21-.59-.46-.81s-.58-.33-.97-.33-.71.12-.96.35c-.25.24-.4.55-.45.94-.05.43-.08.92-.08,1.46,0,.61.03,1.1.09,1.5.05.39.2.7.45.93.25.23.56.35.96.35s.73-.11.99-.33c.26-.22.41-.5.45-.82l.02-.15Z"/>
      <path d="M243.65,538.33c.51.48.77,1.1.77,1.87v5.22c0,.1-.05.15-.15.15h-1.17c-.1,0-.15-.05-.15-.15v-.45s0-.03-.02-.04c-.02,0-.03,0-.05.02-.46.49-1.1.74-1.93.74-.67,0-1.24-.18-1.71-.55-.47-.36-.71-.95-.71-1.76s.27-1.48.82-1.92c.55-.44,1.3-.66,2.24-.66h1.29s.06-.02.06-.06v-.43c0-.44-.12-.79-.35-1.05-.23-.26-.56-.38-.99-.38-.34,0-.62.08-.84.25-.22.17-.36.4-.41.69-.01.09-.07.14-.17.14l-1.26-.08s-.08-.01-.11-.04-.04-.06-.03-.1c.06-.64.35-1.15.87-1.55.52-.4,1.17-.59,1.95-.59.85,0,1.54.24,2.05.72ZM242.05,536.27c-.13-.05-.28-.13-.45-.23-.05-.03-.13-.07-.22-.13s-.18-.1-.25-.12c-.07-.03-.15-.04-.23-.04-.14,0-.27.03-.39.08-.11.06-.22.16-.32.3-.06.09-.13.11-.22.05l-.43-.34c-.07-.06-.09-.13-.05-.2.14-.3.33-.52.55-.67.23-.15.48-.22.76-.22.17,0,.33.03.48.09.14.06.3.15.48.26.05.03.12.08.22.13.09.06.18.1.25.13.08.03.16.05.24.05.3,0,.53-.14.71-.42.06-.09.13-.11.22-.05l.42.32s.06.08.06.12-.02.09-.05.14c-.15.28-.35.48-.59.62-.24.13-.49.2-.75.2-.15,0-.3-.03-.43-.08ZM242.44,544.05c.33-.26.5-.6.5-1.03v-.99s-.02-.06-.06-.06h-1.19c-.5,0-.91.11-1.21.34-.3.23-.45.55-.45.99,0,.38.11.67.34.85.23.19.52.29.89.29.45,0,.85-.13,1.18-.38Z"/>
      <path d="M246.97,545.08c-.51-.42-.82-.98-.92-1.7-.08-.51-.12-1.09-.12-1.73s.04-1.22.12-1.71c.1-.71.41-1.27.92-1.7.51-.42,1.17-.63,1.97-.63s1.44.21,1.96.63c.51.42.82.98.92,1.68.08.44.12,1.02.12,1.73s-.04,1.28-.12,1.73c-.1.72-.41,1.29-.92,1.7-.51.42-1.16.62-1.96.62s-1.46-.21-1.97-.62ZM249.9,544.07c.26-.24.42-.55.49-.94.05-.46.08-.96.08-1.48s-.03-1.02-.08-1.46c-.06-.39-.22-.7-.49-.94-.26-.24-.59-.35-.98-.35s-.7.12-.96.35c-.26.24-.42.55-.49.94-.04.36-.06.85-.06,1.46s.02,1.12.06,1.48c.06.39.22.7.49.94.26.24.59.35.98.35s.7-.12.96-.35Z"/>
      <path d="M194.64,562.66c.24-.17.42-.4.55-.7.03-.09.09-.13.19-.11l1.05.23c.1.03.14.09.11.19-.2.61-.53,1.08-1.02,1.42-.48.34-1.07.51-1.77.51-.8,0-1.45-.2-1.94-.6-.49-.4-.81-.95-.94-1.65-.05-.29-.08-.59-.1-.92-.02-.32-.02-.75-.02-1.29s.03-.94.08-1.25c.09-.72.4-1.3.91-1.73.51-.44,1.16-.66,1.94-.66.85,0,1.54.24,2.06.72.52.48.82,1.12.88,1.91.03.35.05.99.05,1.93,0,.1-.05.15-.15.15h-4.22s-.06.02-.06.06c0,.29.02.54.05.75.05.38.21.69.48.92s.61.35,1.02.35c.35,0,.64-.08.89-.25ZM192.71,557.74c-.25.24-.4.54-.45.92-.03.28-.05.58-.05.91,0,.04.02.06.06.06h2.83s.06-.02.06-.06c-.02-.41-.04-.71-.06-.89-.05-.38-.21-.69-.46-.93-.26-.24-.58-.36-.97-.36s-.71.12-.96.35Z"/>
      <path d="M210.39,556.81c.4.46.59,1.1.59,1.93v5.18c0,.1-.05.15-.15.15h-1.16c-.1,0-.15-.05-.15-.15v-4.96c0-.48-.12-.86-.35-1.14-.23-.28-.55-.42-.95-.42s-.72.14-.96.41c-.24.27-.36.64-.36,1.12v4.99c0,.1-.05.15-.15.15h-1.16c-.1,0-.15-.05-.15-.15v-4.96c0-.48-.12-.86-.35-1.14s-.55-.42-.94-.42-.72.14-.96.41c-.24.27-.36.64-.36,1.12v4.99c0,.1-.05.15-.15.15h-1.16c-.1,0-.15-.05-.15-.15v-7.54c0-.1.05-.15.15-.15h1.16c.1,0,.15.05.15.15v.46s0,.04.02.05c.02.01.03,0,.05-.02.42-.5,1.01-.75,1.76-.75.45,0,.84.09,1.17.28.33.18.58.46.75.82.03.04.06.04.09-.01.23-.37.52-.64.89-.82s.75-.26,1.16-.26c.72,0,1.28.23,1.67.69Z"/>
      <path d="M212.61,555.18s-.02-.08.02-.13l.91-1.66c.03-.07.09-.11.19-.11h.99c.06,0,.1.02.12.05s.02.08-.02.13l-1.11,1.68c-.05.06-.11.09-.19.09h-.79c-.06,0-.1-.02-.12-.05ZM212.63,563.91v-7.54c0-.1.05-.15.15-.15h1.17c.1,0,.15.05.15.15v7.54c0,.1-.05.15-.15.15h-1.17c-.1,0-.15-.05-.15-.15Z"/>
      <path d="M220.21,553.28h1.17c.1,0,.15.05.15.15v10.48c0,.1-.05.15-.15.15h-1.17c-.1,0-.15-.05-.15-.15v-.52s-.01-.04-.03-.05c-.02,0-.04,0-.05.02-.37.55-.95.83-1.74.83-.64,0-1.15-.18-1.54-.55-.39-.37-.68-.94-.86-1.71-.12-.53-.18-1.12-.18-1.76s.05-1.24.15-1.76c.31-1.54,1.15-2.31,2.51-2.31.4,0,.73.07,1,.2.27.13.49.33.66.6.02.02.04.03.05.03s.02-.01.02-.05v-3.45c0-.1.05-.15.15-.15ZM220.04,560.14c0-.77-.07-1.36-.22-1.76-.09-.33-.23-.58-.42-.75-.19-.17-.44-.25-.75-.25-.61,0-1.03.32-1.26.97-.16.46-.25,1.06-.25,1.79s.07,1.31.2,1.71c.22.71.65,1.06,1.29,1.06.6,0,1-.34,1.2-1.03.13-.41.2-.99.2-1.74Z"/>
      <path d="M223.58,554.72c-.19-.18-.28-.42-.28-.71s.09-.54.28-.72c.18-.18.42-.27.71-.27s.52.09.71.28c.19.19.28.42.28.71s-.1.52-.29.71-.42.28-.7.28-.52-.09-.71-.28ZM223.54,563.91v-7.54c0-.1.05-.15.15-.15h1.17c.1,0,.15.05.15.15v7.54c0,.1-.05.15-.15.15h-1.17c-.1,0-.15-.05-.15-.15Z"/>
      <path d="M231.77,556.82c.51.48.77,1.1.77,1.87v5.22c0,.1-.05.15-.15.15h-1.17c-.1,0-.15-.05-.15-.15v-.45s0-.03-.02-.04c-.02,0-.03,0-.05.02-.46.49-1.1.74-1.93.74-.67,0-1.24-.18-1.71-.55-.47-.36-.71-.95-.71-1.76s.27-1.48.82-1.92c.55-.44,1.3-.66,2.24-.66h1.29s.06-.02.06-.06v-.43c0-.44-.12-.79-.35-1.05-.23-.26-.56-.38-.99-.38-.34,0-.62.08-.84.25-.22.17-.36.4-.41.69-.01.09-.07.14-.17.14l-1.26-.08s-.08-.01-.11-.04-.04-.06-.03-.1c.06-.64.35-1.15.87-1.55.52-.4,1.17-.59,1.95-.59.85,0,1.54.24,2.05.72ZM230.56,562.54c.33-.26.5-.6.5-1.03v-.99s-.02-.06-.06-.06h-1.19c-.5,0-.91.11-1.21.34-.3.23-.45.55-.45.99,0,.38.11.67.34.85.23.19.52.29.89.29.45,0,.85-.13,1.18-.38Z"/>
    </g>
    <text class="cls-10" transform="translate(179.49 447.28)"><tspan x="0" y="0">E</tspan><tspan class="cls-36" x="7.94" y="0">m</tspan><tspan x="19.32" y="0">e</tspan><tspan class="cls-30" x="26.69" y="0">r</tspan><tspan x="31.76" y="0">gê</tspan><tspan class="cls-36" x="46.55" y="0">n</tspan><tspan x="54.01" y="0">cia </tspan><tspan x="8.13" y="18.49">climática</tspan></text>
    <g>
      <path d="M244.89,357.62l-.46-1.79s-.04-.05-.08-.05h-3.41c-.05,0-.08.02-.08.05l-.45,1.79c-.01.09-.07.14-.17.14h-1.2c-.05,0-.09-.02-.12-.05-.03-.03-.03-.07-.02-.12l2.85-10.48c.02-.09.08-.14.17-.14h1.45c.09,0,.15.05.17.14l2.87,10.48.02.05c0,.08-.05.12-.15.12h-1.22c-.09,0-.15-.05-.17-.14ZM241.2,354.59s.03.02.05.02h2.79s.04,0,.05-.02c.02-.01.02-.03,0-.04l-1.43-5.58s-.02-.03-.03-.03-.02.01-.03.03l-1.42,5.58s0,.02,0,.04Z"/>
      <path d="M251.87,349.91h1.17c.1,0,.15.05.15.15v7.38c0,2.28-1.22,3.42-3.67,3.42-.22,0-.38,0-.49-.01-.1-.01-.15-.07-.15-.17l.03-1.03c0-.05.02-.09.05-.12.03-.03.07-.03.11-.02.97.04,1.65-.11,2.05-.45.4-.34.6-.91.6-1.73v-.29s0-.04-.02-.05c-.02-.01-.03,0-.05.02-.4.49-.96.74-1.68.74-.67,0-1.23-.2-1.69-.59s-.74-.95-.84-1.66c-.06-.33-.09-.89-.09-1.68,0-.85.04-1.45.11-1.79.09-.69.36-1.24.79-1.64.44-.41.99-.61,1.66-.61.74,0,1.32.24,1.74.72.02.02.04.03.05.02.02-.01.02-.03.02-.05v-.42c0-.1.05-.15.15-.15ZM251.71,353.81c0-.58-.02-1.06-.05-1.46-.04-.37-.19-.68-.43-.92s-.56-.36-.94-.36-.68.12-.93.36c-.25.24-.4.55-.45.92-.06.4-.09.89-.09,1.46,0,.53.03,1.01.08,1.42.05.38.21.69.46.92s.58.35.96.35.69-.12.94-.35.39-.54.43-.91c.02-.53.03-1.01.03-1.43Z"/>
      <path d="M258.72,356.34c.24-.17.42-.4.55-.7.03-.09.09-.13.19-.11l1.05.23c.1.03.14.09.11.19-.2.61-.53,1.08-1.02,1.42-.48.34-1.07.51-1.77.51-.8,0-1.45-.2-1.94-.6-.49-.4-.81-.95-.94-1.65-.05-.29-.08-.59-.1-.92-.02-.32-.02-.75-.02-1.29s.03-.94.08-1.25c.09-.72.4-1.3.91-1.73.51-.44,1.16-.66,1.94-.66.85,0,1.54.24,2.06.72.52.48.82,1.12.88,1.91.03.35.05.99.05,1.93,0,.1-.05.15-.15.15h-4.22s-.06.02-.06.06c0,.29.02.54.05.75.05.38.21.69.48.92s.61.35,1.02.35c.35,0,.64-.08.89-.25ZM256.79,351.42c-.25.24-.4.54-.45.92-.03.28-.05.58-.05.91,0,.04.02.06.06.06h2.83s.06-.02.06-.06c-.02-.41-.04-.71-.06-.89-.05-.38-.21-.69-.46-.93-.26-.24-.58-.36-.97-.36s-.71.12-.96.35Z"/>
      <path d="M267.41,350.5c.42.46.62,1.1.62,1.91v5.19c0,.1-.05.15-.15.15h-1.17c-.1,0-.15-.05-.15-.15v-4.98c0-.47-.12-.85-.36-1.12-.24-.28-.57-.42-.98-.42s-.76.14-1.01.42c-.25.28-.38.66-.38,1.13v4.96c0,.1-.05.15-.15.15h-1.17c-.1,0-.15-.05-.15-.15v-7.54c0-.1.05-.15.15-.15h1.17c.1,0,.15.05.15.15v.48s0,.05.02.05c.02,0,.03,0,.05-.04.4-.5.99-.75,1.76-.75s1.33.23,1.75.69Z"/>
      <path d="M274.17,346.97h1.17c.1,0,.15.05.15.15v10.48c0,.1-.05.15-.15.15h-1.17c-.1,0-.15-.05-.15-.15v-.52s-.01-.04-.03-.05c-.02,0-.04,0-.05.02-.37.55-.95.83-1.74.83-.64,0-1.15-.18-1.54-.55-.39-.37-.68-.94-.86-1.71-.12-.53-.18-1.12-.18-1.76s.05-1.24.15-1.76c.31-1.54,1.15-2.31,2.51-2.31.4,0,.73.07,1,.2.27.13.49.33.66.6.02.02.04.03.05.03s.02-.01.02-.05v-3.45c0-.1.05-.15.15-.15ZM274,353.83c0-.77-.07-1.36-.22-1.76-.09-.33-.23-.58-.42-.75-.19-.17-.44-.25-.75-.25-.61,0-1.03.32-1.26.97-.16.46-.25,1.06-.25,1.79s.07,1.31.2,1.71c.22.71.65,1.06,1.29,1.06.6,0,1-.34,1.2-1.03.13-.41.2-.99.2-1.74Z"/>
      <path d="M282.13,350.51c.51.48.77,1.1.77,1.87v5.22c0,.1-.05.15-.15.15h-1.17c-.1,0-.15-.05-.15-.15v-.45s0-.03-.02-.04c-.02,0-.03,0-.05.02-.46.49-1.1.74-1.93.74-.67,0-1.24-.18-1.71-.55-.47-.36-.71-.95-.71-1.76s.27-1.48.82-1.92c.55-.44,1.3-.66,2.24-.66h1.29s.06-.02.06-.06v-.43c0-.44-.12-.79-.35-1.05-.23-.26-.56-.38-.99-.38-.34,0-.62.08-.84.25-.22.17-.36.4-.41.69-.01.09-.07.14-.17.14l-1.26-.08s-.08-.01-.11-.04-.04-.06-.03-.1c.06-.64.35-1.15.87-1.55.52-.4,1.17-.59,1.95-.59.85,0,1.54.24,2.05.72ZM280.92,356.23c.33-.26.5-.6.5-1.03v-.99s-.02-.06-.06-.06h-1.19c-.5,0-.91.11-1.21.34-.3.23-.45.55-.45.99,0,.38.11.67.34.85.23.19.52.29.89.29.45,0,.85-.13,1.18-.38Z"/>
      <path d="M222.34,366.89c-.19-.18-.28-.42-.28-.71s.09-.54.28-.72c.18-.18.42-.27.71-.27s.52.09.71.28c.19.19.28.42.28.71s-.1.52-.29.71-.42.28-.7.28-.52-.09-.71-.28ZM222.29,376.09v-7.54c0-.1.05-.15.15-.15h1.17c.1,0,.15.05.15.15v7.54c0,.1-.05.15-.15.15h-1.17c-.1,0-.15-.05-.15-.15Z"/>
      <path d="M230.84,368.99c.42.46.62,1.1.62,1.91v5.19c0,.1-.05.15-.15.15h-1.17c-.1,0-.15-.05-.15-.15v-4.98c0-.47-.12-.85-.36-1.12-.24-.28-.57-.42-.98-.42s-.76.14-1.01.42c-.25.28-.38.66-.38,1.13v4.96c0,.1-.05.15-.15.15h-1.17c-.1,0-.15-.05-.15-.15v-7.54c0-.1.05-.15.15-.15h1.17c.1,0,.15.05.15.15v.48s0,.05.02.05c.02,0,.03,0,.05-.04.4-.5.99-.75,1.76-.75s1.33.23,1.75.69Z"/>
      <path d="M236.59,369.54h-1.37s-.06.02-.06.06v4.22c0,.42.08.72.25.89s.43.25.79.25h.29c.1,0,.15.05.15.15v.97c0,.1-.05.15-.15.15l-.6.02c-.72,0-1.26-.14-1.63-.41-.36-.27-.55-.78-.55-1.52v-4.73s-.02-.06-.06-.06h-.75c-.1,0-.15-.05-.15-.15v-.83c0-.1.05-.15.15-.15h.75s.06-.02.06-.06v-1.77c0-.1.05-.15.15-.15h1.12c.1,0,.15.05.15.15v1.77s.02.06.06.06h1.37c.1,0,.15.05.15.15v.83c0,.1-.05.15-.15.15Z"/>
      <path d="M241.88,374.84c.24-.17.42-.4.55-.7.03-.09.09-.13.19-.11l1.05.23c.1.03.14.09.11.19-.2.61-.53,1.08-1.02,1.42-.48.34-1.07.51-1.77.51-.8,0-1.45-.2-1.94-.6-.49-.4-.81-.95-.94-1.65-.05-.29-.08-.59-.1-.92-.02-.32-.02-.75-.02-1.29s.03-.94.08-1.25c.09-.72.4-1.3.91-1.73.51-.44,1.16-.66,1.94-.66.85,0,1.54.24,2.06.72.52.48.82,1.12.88,1.91.03.35.05.99.05,1.93,0,.1-.05.15-.15.15h-4.22s-.06.02-.06.06c0,.29.02.54.05.75.05.38.21.69.48.92s.61.35,1.02.35c.35,0,.64-.08.89-.25ZM239.96,369.91c-.25.24-.4.54-.45.92-.03.28-.05.58-.05.91,0,.04.02.06.06.06h2.83s.06-.02.06-.06c-.02-.41-.04-.71-.06-.89-.05-.38-.21-.69-.46-.93-.26-.24-.58-.36-.97-.36s-.71.12-.96.35Z"/>
      <path d="M249.55,368.51c.07.03.1.09.08.18l-.23,1.17c-.01.1-.07.13-.19.09-.15-.05-.32-.08-.51-.08-.13,0-.23,0-.29.02-.4.03-.73.21-1,.55-.27.33-.4.73-.4,1.19v4.45c0,.1-.05.15-.15.15h-1.17c-.1,0-.15-.05-.15-.15v-7.54c0-.1.05-.15.15-.15h1.17c.1,0,.15.05.15.15v.99s0,.05.02.05c.02,0,.03,0,.04-.02.37-.83.94-1.25,1.7-1.25.31,0,.57.06.79.18Z"/>
      <path d="M255.83,368.99c.42.46.62,1.1.62,1.91v5.19c0,.1-.05.15-.15.15h-1.17c-.1,0-.15-.05-.15-.15v-4.98c0-.47-.12-.85-.36-1.12-.24-.28-.57-.42-.98-.42s-.76.14-1.01.42c-.25.28-.38.66-.38,1.13v4.96c0,.1-.05.15-.15.15h-1.17c-.1,0-.15-.05-.15-.15v-7.54c0-.1.05-.15.15-.15h1.17c.1,0,.15.05.15.15v.48s0,.05.02.05c.02,0,.03,0,.05-.04.4-.5.99-.75,1.76-.75s1.33.23,1.75.69Z"/>
      <path d="M263.02,369c.51.48.77,1.1.77,1.87v5.22c0,.1-.05.15-.15.15h-1.17c-.1,0-.15-.05-.15-.15v-.45s0-.03-.02-.04c-.02,0-.03,0-.05.02-.46.49-1.1.74-1.93.74-.67,0-1.24-.18-1.71-.55-.47-.36-.71-.95-.71-1.76s.27-1.48.82-1.92c.55-.44,1.3-.66,2.24-.66h1.29s.06-.02.06-.06v-.43c0-.44-.12-.79-.35-1.05-.23-.26-.56-.38-.99-.38-.34,0-.62.08-.84.25-.22.17-.36.4-.41.69-.01.09-.07.14-.17.14l-1.26-.08s-.08-.01-.11-.04-.04-.06-.03-.1c.06-.64.35-1.15.87-1.55.52-.4,1.17-.59,1.95-.59.85,0,1.54.24,2.05.72ZM261.81,374.72c.33-.26.5-.6.5-1.03v-.99s-.02-.06-.06-.06h-1.19c-.5,0-.91.11-1.21.34-.3.23-.45.55-.45.99,0,.38.11.67.34.85.23.19.52.29.89.29.45,0,.85-.13,1.18-.38Z"/>
      <path d="M266.39,375.75c-.51-.42-.82-.98-.93-1.7-.07-.46-.11-1.04-.11-1.74,0-.61.04-1.18.11-1.71.11-.7.43-1.26.94-1.68.51-.42,1.16-.63,1.94-.63s1.4.2,1.93.6c.52.4.84.91.94,1.54l.06.37c0,.09-.05.15-.15.17l-1.16.09h-.03c-.06,0-.1-.04-.12-.11l-.02-.06-.03-.18c-.05-.32-.21-.59-.46-.81s-.58-.33-.97-.33-.71.12-.96.35c-.25.24-.4.55-.45.94-.05.43-.08.92-.08,1.46,0,.61.03,1.1.09,1.5.05.39.2.7.45.93.25.23.56.35.96.35s.73-.11.99-.33c.26-.22.41-.5.45-.82l.02-.15c0-.1.07-.15.17-.14l1.16.08c.1,0,.15.06.15.17l-.05.26c-.08.66-.38,1.19-.91,1.6s-1.18.62-1.96.62-1.44-.21-1.95-.62Z"/>
      <path d="M272.93,366.89c-.19-.18-.28-.42-.28-.71s.09-.54.28-.72c.18-.18.42-.27.71-.27s.52.09.71.28c.19.19.28.42.28.71s-.1.52-.29.71-.42.28-.7.28-.52-.09-.71-.28ZM272.88,376.09v-7.54c0-.1.05-.15.15-.15h1.17c.1,0,.15.05.15.15v7.54c0,.1-.05.15-.15.15h-1.17c-.1,0-.15-.05-.15-.15Z"/>
      <path d="M277.23,375.75c-.51-.42-.82-.98-.92-1.7-.08-.51-.12-1.09-.12-1.73s.04-1.22.12-1.71c.1-.71.41-1.27.92-1.7.51-.42,1.17-.63,1.97-.63s1.44.21,1.96.63c.51.42.82.98.92,1.68.08.44.12,1.02.12,1.73s-.04,1.28-.12,1.73c-.1.72-.41,1.29-.92,1.7-.51.42-1.16.62-1.96.62s-1.46-.21-1.97-.62ZM280.16,374.74c.26-.24.42-.55.49-.94.05-.46.08-.96.08-1.48s-.03-1.02-.08-1.46c-.06-.39-.22-.7-.49-.94-.26-.24-.59-.35-.98-.35s-.7.12-.96.35c-.26.24-.42.55-.49.94-.04.36-.06.85-.06,1.46s.02,1.12.06,1.48c.06.39.22.7.49.94.26.24.59.35.98.35s.7-.12.96-.35Z"/>
      <path d="M288.98,368.99c.42.46.62,1.1.62,1.91v5.19c0,.1-.05.15-.15.15h-1.17c-.1,0-.15-.05-.15-.15v-4.98c0-.47-.12-.85-.36-1.12-.24-.28-.57-.42-.98-.42s-.76.14-1.01.42c-.25.28-.38.66-.38,1.13v4.96c0,.1-.05.15-.15.15h-1.17c-.1,0-.15-.05-.15-.15v-7.54c0-.1.05-.15.15-.15h1.17c.1,0,.15.05.15.15v.48s0,.05.02.05c.02,0,.03,0,.05-.04.4-.5.99-.75,1.76-.75s1.33.23,1.75.69Z"/>
      <path d="M296.16,369c.51.48.77,1.1.77,1.87v5.22c0,.1-.05.15-.15.15h-1.17c-.1,0-.15-.05-.15-.15v-.45s0-.03-.02-.04c-.02,0-.03,0-.05.02-.46.49-1.1.74-1.93.74-.67,0-1.24-.18-1.71-.55-.47-.36-.71-.95-.71-1.76s.27-1.48.82-1.92c.55-.44,1.3-.66,2.24-.66h1.29s.06-.02.06-.06v-.43c0-.44-.12-.79-.35-1.05-.23-.26-.56-.38-.99-.38-.34,0-.62.08-.84.25-.22.17-.36.4-.41.69-.01.09-.07.14-.17.14l-1.26-.08s-.08-.01-.11-.04-.04-.06-.03-.1c.06-.64.35-1.15.87-1.55.52-.4,1.17-.59,1.95-.59.85,0,1.54.24,2.05.72ZM294.95,374.72c.33-.26.5-.6.5-1.03v-.99s-.02-.06-.06-.06h-1.19c-.5,0-.91.11-1.21.34-.3.23-.45.55-.45.99,0,.38.11.67.34.85.23.19.52.29.89.29.45,0,.85-.13,1.18-.38Z"/>
      <path d="M298.64,376.09v-10.48c0-.1.05-.15.15-.15h1.17c.1,0,.15.05.15.15v10.48c0,.1-.05.15-.15.15h-1.17c-.1,0-.15-.05-.15-.15Z"/>
    </g>
    <text class="cls-10" transform="translate(304.85 306.09)"><tspan class="cls-36" x="0" y="0">E</tspan><tspan x="7.89" y="0">ducaç</tspan><tspan class="cls-34" x="44.69" y="0">ã</tspan><tspan x="51.88" y="0">o</tspan></text>
    <text class="cls-10" transform="translate(484.41 286.47)"><tspan x="0" y="0">Segu</tspan><tspan class="cls-36" x="30.09" y="0">r</tspan><tspan x="35.3" y="0">a</tspan><tspan class="cls-36" x="42.56" y="0">n</tspan><tspan x="50.02" y="0">ça</tspan></text>
    <text class="cls-10" transform="translate(382.31 264.95)"><tspan x="0" y="0">Bioe</tspan><tspan class="cls-37" x="26.83" y="0">c</tspan><tspan x="34.04" y="0">o</tspan><tspan class="cls-36" x="41.59" y="0">n</tspan><tspan x="49.05" y="0">omia</tspan></text>
    <g>
      <path d="M737.99,290.26c.53.57.79,1.32.79,2.26s-.26,1.65-.79,2.21c-.53.56-1.23.84-2.1.84h-2.06s-.06.02-.06.06v4.42c0,.1-.05.15-.15.15h-1.17c-.1,0-.15-.05-.15-.15v-10.49c0-.1.05-.15.15-.15h3.45c.87,0,1.57.29,2.1.85ZM736.86,293.88c.3-.33.46-.78.46-1.33s-.15-1.02-.46-1.36c-.3-.34-.7-.51-1.19-.51h-1.85s-.06.02-.06.06v3.58s.02.06.06.06h1.85c.49,0,.89-.17,1.19-.5Z"/>
      <path d="M740.17,300.05v-10.48c0-.1.05-.15.15-.15h1.17c.1,0,.15.05.15.15v10.48c0,.1-.05.15-.15.15h-1.17c-.1,0-.15-.05-.15-.15Z"/>
      <path d="M748.22,292.95c.51.48.77,1.1.77,1.87v5.22c0,.1-.05.15-.15.15h-1.17c-.1,0-.15-.05-.15-.15v-.45s0-.03-.02-.04c-.02,0-.03,0-.05.02-.46.49-1.1.74-1.93.74-.67,0-1.24-.18-1.71-.55-.47-.36-.71-.95-.71-1.76s.27-1.48.82-1.92,1.3-.65,2.24-.65h1.29s.06-.02.06-.06v-.43c0-.44-.12-.79-.35-1.05-.23-.26-.56-.39-.99-.39-.34,0-.62.08-.84.25-.22.17-.36.4-.41.69-.01.09-.07.14-.17.14l-1.26-.08s-.08-.01-.11-.04c-.03-.03-.04-.06-.03-.1.06-.64.35-1.15.87-1.55.52-.4,1.17-.59,1.95-.59.85,0,1.54.24,2.05.72ZM747.02,298.68c.33-.26.5-.6.5-1.03v-.99s-.02-.06-.06-.06h-1.19c-.5,0-.91.11-1.21.34-.3.23-.46.55-.46.99,0,.38.11.67.34.86.23.19.52.29.89.29.45,0,.84-.13,1.18-.39Z"/>
      <path d="M755.8,292.95c.42.46.62,1.1.62,1.91v5.19c0,.1-.05.15-.15.15h-1.17c-.1,0-.15-.05-.15-.15v-4.98c0-.47-.12-.85-.36-1.12s-.57-.42-.98-.42-.76.14-1.01.42c-.25.28-.38.66-.38,1.13v4.96c0,.1-.05.15-.15.15h-1.17c-.1,0-.15-.05-.15-.15v-7.54c0-.1.05-.15.15-.15h1.17c.1,0,.15.05.15.15v.48s0,.05.02.05c.02,0,.03,0,.05-.04.4-.5.99-.75,1.76-.75s1.33.23,1.75.69Z"/>
      <path d="M759.06,299.7c-.51-.42-.82-.98-.92-1.7-.08-.51-.12-1.09-.12-1.73s.04-1.22.12-1.71c.1-.71.41-1.27.92-1.7.51-.42,1.17-.63,1.97-.63s1.44.21,1.96.63c.51.42.82.98.92,1.68.08.44.12,1.02.12,1.73s-.04,1.28-.12,1.73c-.1.72-.41,1.29-.92,1.7-.51.42-1.16.62-1.96.62s-1.46-.21-1.97-.62ZM761.99,298.69c.26-.24.42-.55.49-.94.05-.46.08-.96.08-1.48s-.03-1.02-.08-1.46c-.06-.39-.22-.7-.49-.94s-.59-.35-.98-.35-.7.12-.96.35-.42.55-.49.94c-.04.36-.06.85-.06,1.46s.02,1.12.06,1.48c.06.39.22.7.49.94.26.24.59.35.98.35s.7-.12.96-.35Z"/>
      <path d="M772.56,298.79c.24-.17.42-.4.55-.7.03-.09.09-.13.18-.11l1.05.23c.1.03.14.09.11.19-.2.61-.53,1.08-1.02,1.42-.48.34-1.07.51-1.77.51-.8,0-1.45-.2-1.94-.6-.49-.4-.81-.95-.94-1.65-.05-.29-.08-.59-.1-.92-.02-.32-.02-.75-.02-1.29s.03-.94.08-1.25c.09-.72.4-1.3.91-1.73s1.16-.66,1.94-.66c.85,0,1.54.24,2.06.72.52.48.82,1.12.88,1.91.03.35.05.99.05,1.93,0,.1-.05.15-.15.15h-4.22s-.06.02-.06.06c0,.29.02.54.05.76.05.38.21.69.48.92.27.24.61.35,1.02.35.35,0,.64-.08.89-.25ZM770.64,293.87c-.25.24-.4.54-.46.92-.03.28-.05.58-.05.91,0,.04.02.06.06.06h2.83s.06-.02.06-.06c-.02-.41-.04-.71-.06-.89-.05-.38-.21-.69-.46-.93-.26-.24-.58-.36-.97-.36s-.71.12-.96.35Z"/>
      <path d="M734.49,314.75c0,.66-.05,1.24-.15,1.76-.31,1.54-1.14,2.31-2.5,2.31-.75,0-1.3-.26-1.66-.79-.01-.03-.03-.04-.05-.04-.02,0-.03.02-.03.05v3.44c0,.1-.05.15-.15.15h-1.17c-.1,0-.15-.05-.15-.15v-10.48c0-.1.05-.15.15-.15h1.17c.1,0,.15.05.15.15v.49s0,.04.02.05c.01,0,.03,0,.05-.02.38-.53.96-.8,1.73-.8.65,0,1.17.19,1.56.55.39.37.67.94.85,1.71.12.53.18,1.12.18,1.76ZM732.99,314.78c0-.73-.06-1.3-.18-1.71-.11-.35-.27-.61-.48-.79-.21-.18-.48-.27-.82-.27-.32,0-.58.09-.77.27-.2.18-.34.44-.45.78-.12.41-.18.99-.18,1.73s.07,1.35.2,1.76c.1.33.25.58.44.75.19.17.44.25.75.25.6,0,1.02-.32,1.26-.97.15-.43.23-1.03.23-1.79Z"/>
      <path d="M737,318.19c-.51-.42-.82-.98-.92-1.7-.08-.51-.12-1.09-.12-1.73s.04-1.22.12-1.71c.1-.71.41-1.27.92-1.7.51-.42,1.17-.63,1.97-.63s1.44.21,1.96.63c.51.42.82.98.92,1.68.08.44.12,1.02.12,1.73s-.04,1.28-.12,1.73c-.1.72-.41,1.29-.92,1.7-.51.42-1.16.62-1.96.62s-1.46-.21-1.97-.62ZM739.94,317.18c.26-.24.42-.55.49-.94.05-.46.08-.96.08-1.48s-.03-1.02-.08-1.46c-.06-.39-.22-.7-.49-.94s-.59-.35-.98-.35-.7.12-.96.35-.42.55-.49.94c-.04.36-.06.85-.06,1.46s.02,1.12.06,1.48c.06.39.22.7.49.94s.59.35.98.35.7-.12.96-.35Z"/>
      <path d="M743.66,318.54v-10.48c0-.1.05-.15.15-.15h1.17c.1,0,.15.05.15.15v10.48c0,.1-.05.15-.15.15h-1.17c-.1,0-.15-.05-.15-.15Z"/>
      <path d="M746.8,309.81s-.02-.08.02-.13l.91-1.66c.03-.07.09-.11.18-.11h.99c.06,0,.1.02.12.05s.02.08-.02.13l-1.11,1.68c-.05.06-.11.09-.18.09h-.79c-.06,0-.1-.02-.12-.05ZM746.82,318.54v-7.54c0-.1.05-.15.15-.15h1.17c.1,0,.15.05.15.15v7.54c0,.1-.05.15-.15.15h-1.17c-.1,0-.15-.05-.15-.15Z"/>
      <path d="M753.35,311.99h-1.37s-.06.02-.06.06v4.22c0,.42.08.72.25.89.17.17.43.25.79.25h.29c.1,0,.15.05.15.15v.97c0,.1-.05.15-.15.15l-.6.02c-.72,0-1.26-.14-1.63-.41-.36-.27-.55-.78-.55-1.52v-4.73s-.02-.06-.06-.06h-.75c-.1,0-.15-.05-.15-.15v-.83c0-.1.05-.15.15-.15h.75s.06-.02.06-.06v-1.77c0-.1.05-.15.15-.15h1.12c.1,0,.15.05.15.15v1.77s.02.06.06.06h1.37c.1,0,.15.05.15.15v.83c0,.1-.05.15-.15.15Z"/>
      <path d="M755.15,309.34c-.18-.18-.28-.42-.28-.71s.09-.54.28-.72c.19-.18.42-.27.71-.27s.52.09.71.28c.18.19.28.42.28.71s-.09.52-.29.71-.42.28-.7.28-.52-.09-.71-.28ZM755.11,318.54v-7.54c0-.1.05-.15.15-.15h1.17c.1,0,.15.05.15.15v7.54c0,.1-.05.15-.15.15h-1.17c-.1,0-.15-.05-.15-.15Z"/>
      <path d="M759.44,318.19c-.51-.42-.82-.98-.93-1.7-.07-.46-.11-1.04-.11-1.74,0-.61.04-1.18.11-1.71.11-.7.43-1.26.94-1.68.51-.42,1.16-.63,1.94-.63s1.4.2,1.93.6c.52.4.84.91.94,1.54l.06.37c0,.09-.05.15-.15.17l-1.16.09h-.03c-.06,0-.1-.04-.12-.11v-.06s-.05-.18-.05-.18c-.05-.32-.21-.59-.46-.81-.26-.22-.58-.33-.97-.33s-.71.12-.96.35-.4.55-.45.94c-.05.43-.08.92-.08,1.46,0,.61.03,1.1.09,1.5.05.39.2.7.45.93.25.23.57.35.96.35s.73-.11.99-.33c.26-.22.41-.5.45-.82l.02-.15c0-.1.07-.15.17-.14l1.16.08c.1,0,.15.06.15.17l-.05.26c-.08.66-.38,1.19-.91,1.6-.52.41-1.18.62-1.96.62s-1.44-.21-1.95-.62Z"/>
      <path d="M770.58,311.44c.51.48.77,1.1.77,1.87v5.22c0,.1-.05.15-.15.15h-1.17c-.1,0-.15-.05-.15-.15v-.45s0-.03-.02-.04c-.02,0-.03,0-.05.02-.46.49-1.1.74-1.93.74-.67,0-1.24-.18-1.71-.55-.47-.36-.71-.95-.71-1.76s.27-1.48.82-1.92,1.3-.66,2.24-.66h1.29s.06-.02.06-.06v-.43c0-.44-.12-.79-.35-1.05-.23-.26-.56-.38-.99-.38-.34,0-.62.08-.84.25-.22.17-.36.4-.41.69-.01.09-.07.14-.17.14l-1.26-.08s-.08-.01-.11-.04c-.03-.03-.04-.06-.03-.1.06-.64.35-1.15.87-1.55.52-.4,1.17-.59,1.95-.59.85,0,1.54.24,2.05.72ZM769.37,317.17c.33-.26.5-.6.5-1.03v-.99s-.02-.06-.06-.06h-1.19c-.5,0-.91.11-1.21.34-.3.23-.46.55-.46.99,0,.38.11.67.34.85.23.19.52.29.89.29.45,0,.84-.13,1.18-.38Z"/>
      <path d="M773.56,318.2c-.51-.39-.76-.89-.76-1.51v-.15c0-.1.05-.15.15-.15h1.09c.1,0,.15.05.15.15v.09c0,.28.13.52.4.72.27.21.6.31.99.31s.71-.1.95-.29.36-.44.36-.72c0-.23-.07-.41-.21-.55-.14-.14-.31-.26-.51-.35-.2-.09-.5-.2-.89-.33-.48-.15-.89-.32-1.23-.49-.33-.17-.62-.41-.85-.72-.24-.31-.35-.71-.35-1.19,0-.69.24-1.23.73-1.63.49-.4,1.14-.6,1.95-.6s1.48.21,1.98.62.75.95.75,1.62v.03c0,.1-.05.15-.15.15h-1.08c-.1,0-.15-.05-.15-.15v-.06c0-.3-.12-.54-.37-.74-.25-.2-.57-.29-.97-.29-.38,0-.69.09-.92.28-.23.18-.35.42-.35.71,0,.22.07.39.2.53.13.14.3.25.5.35.2.09.5.21.89.34.51.17.94.34,1.27.51.33.16.62.4.87.71.25.31.37.7.37,1.19,0,.69-.25,1.23-.75,1.63-.5.4-1.18.6-2.03.6s-1.52-.2-2.03-.59Z"/>
      <path d="M734.71,333.24c0,.66-.05,1.24-.15,1.76-.31,1.54-1.14,2.31-2.5,2.31-.75,0-1.3-.26-1.66-.79-.01-.03-.03-.04-.05-.04-.02,0-.03.02-.03.05v3.44c0,.1-.05.15-.15.15h-1.17c-.1,0-.15-.05-.15-.15v-10.48c0-.1.05-.15.15-.15h1.17c.1,0,.15.05.15.15v.49s0,.04.02.05c.01,0,.03,0,.05-.02.38-.53.96-.8,1.73-.8.65,0,1.17.19,1.56.55.39.37.67.94.85,1.71.12.53.18,1.12.18,1.76ZM733.22,333.27c0-.73-.06-1.3-.18-1.71-.11-.35-.27-.61-.48-.79-.21-.18-.48-.27-.82-.27-.32,0-.58.09-.77.27-.2.18-.34.44-.45.78-.12.41-.18.99-.18,1.73s.07,1.35.2,1.76c.1.33.25.58.44.75.19.17.44.25.75.25.6,0,1.02-.32,1.26-.97.15-.43.23-1.03.23-1.79Z"/>
      <path d="M740.67,329.34h1.17c.1,0,.15.05.15.15v7.54c0,.1-.05.15-.15.15h-1.17c-.1,0-.15-.05-.15-.15v-.48s0-.04-.02-.05c-.02-.01-.03,0-.05.01-.36.51-.92.77-1.7.77-.7,0-1.28-.21-1.73-.62-.46-.41-.69-1.01-.69-1.79v-5.39c0-.1.05-.15.15-.15h1.16c.1,0,.15.05.15.15v4.99c0,.48.12.86.35,1.12.23.27.56.4.99.4s.76-.14,1.01-.42.38-.67.38-1.15v-4.95c0-.1.05-.15.15-.15ZM738.43,328.3s-.02-.08.01-.13l.91-1.66c.03-.07.09-.11.19-.11h.99c.06,0,.1.02.12.05s.02.08-.02.13l-1.11,1.68c-.05.06-.11.09-.18.09h-.79c-.06,0-.1-.02-.12-.05Z"/>
      <path d="M749.8,333.29c0,.64-.06,1.22-.18,1.76-.17.77-.46,1.34-.85,1.71s-.91.55-1.56.55c-.78,0-1.36-.27-1.73-.82-.01-.02-.03-.03-.05-.02-.02.01-.03.03-.03.05v.51c0,.1-.05.15-.15.15h-1.17c-.1,0-.15-.05-.15-.15v-10.48c0-.1.05-.15.15-.15h1.17c.1,0,.15.05.15.15v3.44s0,.05.02.05.03-.01.05-.03c.34-.52.89-.79,1.66-.79,1.36,0,2.19.77,2.5,2.31.1.51.15,1.1.15,1.76ZM748.3,333.26c0-.76-.08-1.36-.23-1.79-.25-.65-.67-.97-1.26-.97-.31,0-.56.08-.75.25-.19.17-.34.42-.44.75-.13.41-.2,1-.2,1.76s.06,1.32.18,1.74c.22.69.62,1.03,1.22,1.03.65,0,1.08-.35,1.29-1.06.12-.41.19-.98.19-1.71Z"/>
      <path d="M751.46,337.03v-10.48c0-.1.05-.15.15-.15h1.17c.1,0,.15.05.15.15v10.48c0,.1-.05.15-.15.15h-1.17c-.1,0-.15-.05-.15-.15Z"/>
      <path d="M754.93,327.83c-.18-.18-.28-.42-.28-.71s.09-.54.28-.72c.19-.18.42-.27.71-.27s.52.09.71.28c.18.19.28.42.28.71s-.09.52-.29.71-.42.28-.7.28-.52-.09-.71-.28ZM754.88,337.03v-7.54c0-.1.05-.15.15-.15h1.17c.1,0,.15.05.15.15v7.54c0,.1-.05.15-.15.15h-1.17c-.1,0-.15-.05-.15-.15Z"/>
      <path d="M759.22,336.68c-.51-.42-.82-.98-.93-1.7-.07-.46-.11-1.04-.11-1.74,0-.61.04-1.18.11-1.71.11-.7.43-1.26.94-1.68.51-.42,1.16-.63,1.94-.63s1.4.2,1.93.6c.52.4.84.91.94,1.54l.06.37c0,.09-.05.15-.15.17l-1.16.09h-.03c-.06,0-.1-.04-.12-.11v-.06s-.05-.18-.05-.18c-.05-.32-.21-.59-.46-.81-.26-.22-.58-.33-.97-.33s-.71.12-.96.35-.4.55-.45.94c-.05.43-.08.92-.08,1.46,0,.61.03,1.1.09,1.5.05.39.2.7.45.93.25.23.57.35.96.35s.73-.11.99-.33c.26-.22.41-.5.45-.82l.02-.15c0-.1.07-.15.17-.14l1.16.08c.1,0,.15.06.15.17l-.05.26c-.08.66-.38,1.19-.91,1.6-.52.41-1.18.62-1.96.62s-1.44-.21-1.95-.62Z"/>
      <path d="M770.35,329.94c.51.48.77,1.1.77,1.87v5.22c0,.1-.05.15-.15.15h-1.17c-.1,0-.15-.05-.15-.15v-.45s0-.03-.02-.04c-.02,0-.03,0-.05.02-.46.49-1.1.74-1.93.74-.67,0-1.24-.18-1.71-.55-.47-.36-.71-.95-.71-1.76s.27-1.48.82-1.92,1.3-.66,2.24-.66h1.29s.06-.02.06-.06v-.43c0-.44-.12-.79-.35-1.05-.23-.26-.56-.38-.99-.38-.34,0-.62.08-.84.25-.22.17-.36.4-.41.69-.01.09-.07.14-.17.14l-1.26-.08s-.08-.01-.11-.04c-.03-.03-.04-.06-.03-.1.06-.64.35-1.15.87-1.55.52-.4,1.17-.59,1.95-.59.85,0,1.54.24,2.05.72ZM769.14,335.66c.33-.26.5-.6.5-1.03v-.99s-.02-.06-.06-.06h-1.19c-.5,0-.91.11-1.21.34-.3.23-.46.55-.46.99,0,.38.11.67.34.85.23.19.52.29.89.29.45,0,.84-.13,1.18-.38Z"/>
      <path d="M773.33,336.69c-.51-.39-.76-.89-.76-1.51v-.15c0-.1.05-.15.15-.15h1.09c.1,0,.15.05.15.15v.09c0,.28.13.52.4.72.27.21.6.31.99.31s.71-.1.95-.29.36-.44.36-.72c0-.23-.07-.41-.21-.55-.14-.14-.31-.26-.51-.35-.2-.09-.5-.2-.89-.33-.48-.15-.89-.32-1.23-.49-.33-.17-.62-.41-.85-.72-.24-.31-.35-.71-.35-1.19,0-.69.24-1.23.73-1.63.49-.4,1.14-.6,1.95-.6s1.48.21,1.98.62.75.95.75,1.62v.03c0,.1-.05.15-.15.15h-1.08c-.1,0-.15-.05-.15-.15v-.06c0-.3-.12-.54-.37-.74-.25-.2-.57-.29-.97-.29-.38,0-.69.09-.92.28-.23.18-.35.42-.35.71,0,.22.07.39.2.53.13.14.3.25.5.35.2.09.5.21.89.34.51.17.94.34,1.27.51.33.16.62.4.87.71.25.31.37.7.37,1.19,0,.69-.25,1.23-.75,1.63-.5.4-1.18.6-2.03.6s-1.52-.2-2.03-.59Z"/>
    </g>
    <g>
      <path d="M775.71,435.31l-.46-1.79s-.04-.05-.08-.05h-3.41c-.05,0-.08.02-.08.05l-.45,1.79c0,.09-.07.14-.17.14h-1.2c-.05,0-.09-.02-.12-.05-.03-.03-.03-.07-.02-.12l2.85-10.48c.02-.09.08-.14.17-.14h1.45c.09,0,.15.05.17.14l2.87,10.48.02.05c0,.08-.05.12-.15.12h-1.22c-.09,0-.15-.05-.17-.14ZM772.02,432.29s.03.02.05.02h2.79s.04,0,.05-.02c.01-.01.02-.03,0-.04l-1.43-5.58s-.02-.03-.03-.03c0,0-.02.01-.03.03l-1.42,5.58s0,.02,0,.04Z"/>
      <path d="M781.67,428.75h-1.37s-.06.02-.06.06v4.22c0,.42.08.72.25.89.17.17.43.25.79.25h.29c.1,0,.15.05.15.15v.97c0,.1-.05.15-.15.15l-.6.02c-.72,0-1.26-.14-1.63-.41-.36-.27-.55-.78-.55-1.52v-4.73s-.02-.06-.06-.06h-.75c-.1,0-.15-.05-.15-.15v-.83c0-.1.05-.15.15-.15h.75s.06-.02.06-.06v-1.77c0-.1.05-.15.15-.15h1.12c.1,0,.15.05.15.15v1.77s.02.06.06.06h1.37c.1,0,.15.05.15.15v.83c0,.1-.05.15-.15.15Z"/>
      <path d="M787.59,427.61h1.17c.1,0,.15.05.15.15v7.54c0,.1-.05.15-.15.15h-1.17c-.1,0-.15-.05-.15-.15v-.48s0-.04-.02-.05c-.02-.01-.03,0-.05.01-.36.51-.92.77-1.7.77-.7,0-1.28-.21-1.73-.62-.46-.41-.69-1.01-.69-1.79v-5.39c0-.1.05-.15.15-.15h1.16c.1,0,.15.05.15.15v4.99c0,.48.12.86.35,1.12.23.27.56.4.99.4s.76-.14,1.01-.42.38-.67.38-1.15v-4.95c0-.1.05-.15.15-.15Z"/>
      <path d="M795.54,428.2c.51.48.77,1.1.77,1.87v5.22c0,.1-.05.15-.15.15h-1.17c-.1,0-.15-.05-.15-.15v-.45s0-.03-.02-.04c-.02,0-.03,0-.05.02-.46.49-1.1.74-1.93.74-.67,0-1.24-.18-1.71-.55-.47-.36-.71-.95-.71-1.76s.27-1.48.82-1.92,1.3-.66,2.24-.66h1.29s.06-.02.06-.06v-.43c0-.44-.12-.79-.35-1.05-.23-.26-.56-.38-.99-.38-.34,0-.62.08-.84.25-.22.17-.36.4-.41.69-.01.09-.07.14-.17.14l-1.26-.08s-.08-.01-.11-.04c-.03-.03-.04-.06-.03-.1.06-.64.35-1.15.87-1.55.52-.4,1.17-.59,1.95-.59.85,0,1.54.24,2.05.72ZM794.33,433.93c.33-.26.5-.6.5-1.03v-.99s-.02-.06-.06-.06h-1.19c-.5,0-.91.11-1.21.34-.3.23-.46.55-.46.99,0,.38.11.67.34.85.23.19.52.29.89.29.45,0,.84-.13,1.18-.38Z"/>
      <path d="M802.29,432.99c0-.1.07-.15.17-.14l1.16.08c.1,0,.15.06.15.17l-.05.26c-.08.58-.33,1.06-.74,1.45-.41.39-.94.63-1.59.72-.06.02-.07.05-.02.08.45.44.68.91.68,1.4,0,.12-.02.25-.05.37-.08.33-.24.57-.48.71-.24.14-.51.22-.83.22-.2,0-.42-.03-.66-.09-.09-.03-.13-.09-.12-.18l.08-.49s.03-.07.06-.1c.03-.03.07-.03.12-.02.09.03.18.05.26.05.17,0,.32-.05.43-.16.11-.11.17-.27.17-.49s-.07-.42-.2-.63c-.13-.22-.32-.42-.56-.62,0-.02-.04-.03-.08-.03-.62-.1-1.12-.36-1.51-.76s-.63-.91-.72-1.52c-.07-.46-.11-1.04-.11-1.74,0-.61.04-1.18.11-1.71.11-.7.43-1.26.94-1.68.51-.42,1.16-.63,1.94-.63s1.4.2,1.93.6c.52.4.84.91.94,1.54l.06.37c0,.09-.05.15-.15.17l-1.16.09h-.03c-.06,0-.1-.04-.12-.11v-.06s-.05-.18-.05-.18c-.05-.32-.21-.59-.46-.81-.26-.22-.58-.33-.97-.33s-.71.12-.96.35-.4.55-.45.94c-.05.43-.08.92-.08,1.46,0,.61.03,1.1.09,1.5.05.39.2.7.45.93.25.23.57.35.96.35s.73-.11.99-.33c.26-.22.41-.5.45-.82l.02-.15Z"/>
      <path d="M810.04,428.2c.51.48.77,1.1.77,1.87v5.22c0,.1-.05.15-.15.15h-1.17c-.1,0-.15-.05-.15-.15v-.45s0-.03-.02-.04c-.02,0-.03,0-.05.02-.46.49-1.1.74-1.93.74-.67,0-1.24-.18-1.71-.55-.47-.36-.71-.95-.71-1.76s.27-1.48.82-1.92,1.3-.66,2.24-.66h1.29s.06-.02.06-.06v-.43c0-.44-.12-.79-.35-1.05-.23-.26-.56-.38-.99-.38-.34,0-.62.08-.84.25-.22.17-.36.4-.41.69-.01.09-.07.14-.17.14l-1.26-.08s-.08-.01-.11-.04c-.03-.03-.04-.06-.03-.1.06-.64.35-1.15.87-1.55.52-.4,1.17-.59,1.95-.59.85,0,1.54.24,2.05.72ZM808.44,426.15c-.13-.05-.28-.13-.45-.23-.05-.03-.13-.07-.22-.13s-.18-.1-.25-.12c-.07-.03-.15-.04-.23-.04-.14,0-.27.03-.38.08-.11.06-.22.16-.32.3-.06.09-.13.11-.22.05l-.43-.34c-.07-.06-.09-.13-.05-.2.14-.3.33-.52.55-.67.23-.15.48-.22.75-.22.17,0,.33.03.48.09.14.06.3.15.48.26.05.03.12.08.22.13.09.06.18.1.25.13.08.03.16.05.24.05.3,0,.53-.14.71-.42.06-.09.13-.11.22-.05l.42.32s.06.08.06.12-.01.09-.05.14c-.15.28-.35.48-.59.62-.24.13-.49.2-.75.2-.15,0-.3-.03-.43-.08ZM808.83,433.93c.33-.26.5-.6.5-1.03v-.99s-.02-.06-.06-.06h-1.19c-.5,0-.91.11-1.21.34-.3.23-.46.55-.46.99,0,.38.11.67.34.85.23.19.52.29.89.29.45,0,.84-.13,1.18-.38Z"/>
      <path d="M813.35,434.95c-.51-.42-.82-.98-.92-1.7-.08-.51-.12-1.09-.12-1.73s.04-1.22.12-1.71c.1-.71.41-1.27.92-1.7.51-.42,1.17-.63,1.97-.63s1.44.21,1.96.63c.51.42.82.98.92,1.68.08.44.12,1.02.12,1.73s-.04,1.28-.12,1.73c-.1.72-.41,1.29-.92,1.7-.51.42-1.16.62-1.96.62s-1.46-.21-1.97-.62ZM816.29,433.94c.26-.24.42-.55.49-.94.05-.46.08-.96.08-1.48s-.03-1.02-.08-1.46c-.06-.39-.22-.7-.49-.94s-.59-.35-.98-.35-.7.12-.96.35-.42.55-.49.94c-.04.36-.06.85-.06,1.46s.02,1.12.06,1.48c.06.39.22.7.49.94s.59.35.98.35.7-.12.96-.35Z"/>
      <path d="M762.78,452.53c.24-.17.42-.4.55-.7.03-.09.09-.13.18-.11l1.05.23c.1.03.14.09.11.19-.2.61-.53,1.08-1.02,1.42-.48.34-1.07.51-1.77.51-.8,0-1.45-.2-1.94-.6s-.81-.95-.94-1.65c-.05-.29-.08-.59-.1-.92-.02-.32-.02-.75-.02-1.29s.03-.94.08-1.25c.09-.72.4-1.3.91-1.73s1.16-.66,1.94-.66c.85,0,1.54.24,2.06.72.52.48.82,1.12.88,1.91.03.35.05.99.05,1.93,0,.1-.05.15-.15.15h-4.22s-.06.02-.06.06c0,.29.02.54.05.75.05.38.21.69.48.92.27.24.61.35,1.02.35.35,0,.64-.08.89-.25ZM760.85,447.61c-.25.24-.4.54-.46.92-.03.28-.05.58-.05.91,0,.04.02.06.06.06h2.83s.06-.02.06-.06c-.02-.41-.04-.71-.06-.89-.05-.38-.21-.69-.46-.93s-.58-.36-.97-.36-.71.12-.96.35Z"/>
      <path d="M775.45,446.69c.4.46.59,1.1.59,1.93v5.18c0,.1-.05.15-.15.15h-1.16c-.1,0-.15-.05-.15-.15v-4.96c0-.48-.12-.86-.35-1.14-.23-.28-.55-.42-.95-.42s-.72.14-.96.41-.36.64-.36,1.12v4.99c0,.1-.05.15-.15.15h-1.16c-.1,0-.15-.05-.15-.15v-4.96c0-.48-.12-.86-.35-1.14s-.55-.42-.94-.42-.72.14-.96.41-.36.64-.36,1.12v4.99c0,.1-.05.15-.15.15h-1.16c-.1,0-.15-.05-.15-.15v-7.54c0-.1.05-.15.15-.15h1.16c.1,0,.15.05.15.15v.46s0,.04.02.05c.02.01.03,0,.05-.02.42-.5,1.01-.75,1.76-.75.45,0,.84.09,1.17.28.33.18.58.46.76.82.03.04.06.04.09-.01.23-.37.52-.64.89-.82.36-.17.75-.26,1.16-.26.72,0,1.28.23,1.67.69Z"/>
      <path d="M783.8,450c0,.66-.05,1.24-.15,1.76-.31,1.54-1.14,2.31-2.5,2.31-.75,0-1.3-.26-1.66-.79-.01-.03-.03-.04-.05-.04-.02,0-.03.02-.03.05v3.44c0,.1-.05.15-.15.15h-1.17c-.1,0-.15-.05-.15-.15v-10.48c0-.1.05-.15.15-.15h1.17c.1,0,.15.05.15.15v.49s0,.04.02.05c.01,0,.03,0,.05-.02.38-.53.96-.8,1.73-.8.65,0,1.17.19,1.56.55.39.37.67.94.85,1.71.12.53.18,1.12.18,1.76ZM782.31,450.03c0-.73-.06-1.3-.18-1.71-.11-.35-.27-.61-.48-.79-.21-.18-.48-.27-.82-.27-.32,0-.58.09-.77.27-.2.18-.34.44-.45.78-.12.41-.18.99-.18,1.73s.07,1.35.2,1.76c.1.33.25.58.44.75.19.17.44.25.75.25.6,0,1.02-.32,1.26-.97.15-.43.23-1.03.23-1.79Z"/>
      <path d="M789.54,446.21c.07.03.1.09.08.18l-.23,1.17c-.01.1-.07.13-.18.09-.15-.05-.32-.08-.51-.08-.13,0-.23,0-.29.02-.4.03-.73.21-1,.55-.27.33-.4.73-.4,1.19v4.45c0,.1-.05.15-.15.15h-1.17c-.1,0-.15-.05-.15-.15v-7.54c0-.1.05-.15.15-.15h1.17c.1,0,.15.05.15.15v.99s0,.05.02.05c.02,0,.03,0,.04-.02.37-.83.93-1.25,1.7-1.25.31,0,.57.06.79.18Z"/>
      <path d="M794.38,452.53c.24-.17.42-.4.55-.7.03-.09.09-.13.18-.11l1.05.23c.1.03.14.09.11.19-.2.61-.53,1.08-1.02,1.42-.48.34-1.07.51-1.77.51-.8,0-1.45-.2-1.94-.6s-.81-.95-.94-1.65c-.05-.29-.08-.59-.1-.92-.02-.32-.02-.75-.02-1.29s.03-.94.08-1.25c.09-.72.4-1.3.91-1.73s1.16-.66,1.94-.66c.85,0,1.54.24,2.06.72.52.48.82,1.12.88,1.91.03.35.05.99.05,1.93,0,.1-.05.15-.15.15h-4.22s-.06.02-.06.06c0,.29.02.54.05.75.05.38.21.69.48.92.27.24.61.35,1.02.35.35,0,.64-.08.89-.25ZM792.46,447.61c-.25.24-.4.54-.46.92-.03.28-.05.58-.05.91,0,.04.02.06.06.06h2.83s.06-.02.06-.06c-.02-.41-.04-.71-.06-.89-.05-.38-.21-.69-.46-.93s-.58-.36-.97-.36-.71.12-.96.35Z"/>
      <path d="M798.41,453.45c-.51-.39-.76-.89-.76-1.51v-.15c0-.1.05-.15.15-.15h1.09c.1,0,.15.05.15.15v.09c0,.28.13.52.4.72.27.21.6.31.99.31s.71-.1.95-.29.36-.44.36-.72c0-.23-.07-.41-.21-.55-.14-.14-.31-.26-.51-.35-.2-.09-.5-.2-.89-.33-.48-.15-.89-.32-1.23-.49-.33-.17-.62-.41-.85-.72-.24-.31-.35-.71-.35-1.19,0-.69.24-1.23.73-1.63.49-.4,1.14-.6,1.95-.6s1.48.21,1.98.62.75.95.75,1.62v.03c0,.1-.05.15-.15.15h-1.08c-.1,0-.15-.05-.15-.15v-.06c0-.3-.12-.54-.37-.74-.25-.2-.57-.29-.97-.29-.38,0-.69.09-.92.28-.23.18-.35.42-.35.71,0,.22.07.39.2.53.13.14.3.25.5.35.2.09.5.21.89.34.51.17.94.34,1.27.51.33.16.62.4.87.71.25.31.37.7.37,1.19,0,.69-.25,1.23-.75,1.63-.5.4-1.18.6-2.03.6s-1.52-.2-2.03-.59Z"/>
      <path d="M809.42,446.69c.51.48.77,1.1.77,1.87v5.22c0,.1-.05.15-.15.15h-1.17c-.1,0-.15-.05-.15-.15v-.45s0-.03-.02-.04c-.02,0-.03,0-.05.02-.46.49-1.1.74-1.93.74-.67,0-1.24-.18-1.71-.55-.47-.36-.71-.95-.71-1.76s.27-1.48.82-1.92,1.3-.66,2.24-.66h1.29s.06-.02.06-.06v-.43c0-.44-.12-.79-.35-1.05-.23-.26-.56-.38-.99-.38-.34,0-.62.08-.84.25-.22.17-.36.4-.41.69-.01.09-.07.14-.17.14l-1.26-.08s-.08-.01-.11-.04c-.03-.03-.04-.06-.03-.1.06-.64.35-1.15.87-1.55.52-.4,1.17-.59,1.95-.59.85,0,1.54.24,2.05.72ZM808.21,452.42c.33-.26.5-.6.5-1.03v-.99s-.02-.06-.06-.06h-1.19c-.5,0-.91.11-1.21.34-.3.23-.46.55-.46.99,0,.38.11.67.34.85.23.19.52.29.89.29.45,0,.84-.13,1.18-.38Z"/>
      <path d="M815.96,446.21c.07.03.1.09.08.18l-.23,1.17c-.01.1-.07.13-.18.09-.15-.05-.32-.08-.51-.08-.13,0-.23,0-.29.02-.4.03-.73.21-1,.55-.27.33-.4.73-.4,1.19v4.45c0,.1-.05.15-.15.15h-1.17c-.1,0-.15-.05-.15-.15v-7.54c0-.1.05-.15.15-.15h1.17c.1,0,.15.05.15.15v.99s0,.05.02.05c.02,0,.03,0,.04-.02.37-.83.93-1.25,1.7-1.25.31,0,.57.06.79.18Z"/>
      <path d="M817.33,444.59c-.18-.18-.28-.42-.28-.71s.09-.54.28-.72c.19-.18.42-.27.71-.27s.52.09.71.28c.18.19.28.42.28.71s-.09.52-.29.71-.42.28-.7.28-.52-.09-.71-.28ZM817.29,453.79v-7.54c0-.1.05-.15.15-.15h1.17c.1,0,.15.05.15.15v7.54c0,.1-.05.15-.15.15h-1.17c-.1,0-.15-.05-.15-.15Z"/>
      <path d="M825.52,446.69c.51.48.77,1.1.77,1.87v5.22c0,.1-.05.15-.15.15h-1.17c-.1,0-.15-.05-.15-.15v-.45s0-.03-.02-.04c-.02,0-.03,0-.05.02-.46.49-1.1.74-1.93.74-.67,0-1.24-.18-1.71-.55-.47-.36-.71-.95-.71-1.76s.27-1.48.82-1.92,1.3-.66,2.24-.66h1.29s.06-.02.06-.06v-.43c0-.44-.12-.79-.35-1.05-.23-.26-.56-.38-.99-.38-.34,0-.62.08-.84.25-.22.17-.36.4-.41.69-.01.09-.07.14-.17.14l-1.26-.08s-.08-.01-.11-.04c-.03-.03-.04-.06-.03-.1.06-.64.35-1.15.87-1.55.52-.4,1.17-.59,1.95-.59.85,0,1.54.24,2.05.72ZM824.31,452.42c.33-.26.5-.6.5-1.03v-.99s-.02-.06-.06-.06h-1.19c-.5,0-.91.11-1.21.34-.3.23-.46.55-.46.99,0,.38.11.67.34.85.23.19.52.29.89.29.45,0,.84-.13,1.18-.38Z"/>
      <path d="M828,453.79v-10.48c0-.1.05-.15.15-.15h1.17c.1,0,.15.05.15.15v10.48c0,.1-.05.15-.15.15h-1.17c-.1,0-.15-.05-.15-.15Z"/>
    </g>
    <text class="cls-10" transform="translate(499.89 152.52)"><tspan class="cls-27" x="0" y="0">G</tspan><tspan class="cls-11" x="8.17" y="0">o</tspan><tspan class="cls-13" x="15.42" y="0">v</tspan><tspan x="22.04" y="0">erna</tspan><tspan class="cls-36" x="49.42" y="0">n</tspan><tspan x="56.88" y="0">ça</tspan></text>
    <text class="cls-10" transform="translate(571.23 328.72)"><tspan class="cls-38" x="0" y="0">S</tspan><tspan x="7.78" y="0">aúde</tspan></text>
    <text class="cls-10" transform="translate(620.76 390.49)"><tspan x="0" y="0">Cidad</tspan><tspan class="cls-28" x="34.18" y="0">e</tspan><tspan x="41.47" y="0">s</tspan></text>
    <text class="cls-10" transform="translate(607.29 537.35)"><tspan x="0" y="0">D</tspan><tspan class="cls-27" x="8.38" y="0">e</tspan><tspan class="cls-8" x="15.67" y="0">sm</tspan><tspan class="cls-35" x="33.84" y="0">a</tspan><tspan x="41.05" y="0">ta</tspan><tspan class="cls-36" x="53.27" y="0">m</tspan><tspan x="64.66" y="0">en</tspan><tspan class="cls-25" x="79.53" y="0">t</tspan><tspan x="84.4" y="0">o</tspan></text>
    <text class="cls-9" transform="translate(617.72 450.46)"><tspan class="cls-16" x="0" y="0">P</tspan><tspan class="cls-15" x="7.18" y="0">o</tspan><tspan class="cls-17" x="13.77" y="0">v</tspan><tspan class="cls-19" x="19.72" y="0">os i</tspan><tspan class="cls-22" x="38.24" y="0">n</tspan><tspan class="cls-19" x="45.02" y="0">dígenas, </tspan><tspan class="cls-19" x="-15.33" y="17.92">quilo</tspan><tspan class="cls-24" x="11.07" y="17.92">m</tspan><tspan class="cls-22" x="21.69" y="17.92">b</tspan><tspan class="cls-18" x="28.54" y="17.92">olas e </tspan><tspan class="cls-21" x="62.57" y="17.92">c</tspan><tspan class="cls-18" x="69.11" y="17.92">omuni-</tspan><tspan class="cls-19" x="-3.61" y="35.83">dad</tspan><tspan class="cls-20" x="16.77" y="35.83">e</tspan><tspan class="cls-18" x="23.39" y="35.83">s t</tspan><tspan class="cls-23" x="36.36" y="35.83">r</tspan><tspan class="cls-19" x="40.96" y="35.83">adicionais</tspan></text>
  </g>
</svg>